<?xml version="1.0" encoding="UTF-8" standalone="no"?>
<svg
   width="24px"
   height="24px"
   viewBox="0 0 24 24"
   fill="none"
   version="1.1"
   id="svg134"
   sodipodi:docname="add-fill.svg"
   inkscape:version="1.2.1 (2ed6d7ae0b, 2022-08-22, custom)"
   xmlns:inkscape="http://www.inkscape.org/namespaces/inkscape"
   xmlns:sodipodi="http://sodipodi.sourceforge.net/DTD/sodipodi-0.dtd"
   xmlns="http://www.w3.org/2000/svg"
   xmlns:svg="http://www.w3.org/2000/svg">
  <defs
     id="defs138" />
  <sodipodi:namedview
     id="namedview136"
     pagecolor="#505050"
     bordercolor="#ffffff"
     borderopacity="1"
     inkscape:showpageshadow="0"
     inkscape:pageopacity="0"
     inkscape:pagecheckerboard="1"
     inkscape:deskcolor="#505050"
     showgrid="false"
     inkscape:zoom="14.760854"
     inkscape:cx="6.3004484"
     inkscape:cy="11.754062"
     inkscape:window-width="1366"
     inkscape:window-height="704"
     inkscape:window-x="0"
     inkscape:window-y="0"
     inkscape:window-maximized="1"
     inkscape:current-layer="svg134" />
  <path
     id="rect452"
     style="fill:#000000;fill-opacity:1;stroke-width:0.933333;stroke-linecap:square"
     d="M 12,2 C 9.8350566,2 6.9485625,2.1024044 4.8867188,2.3085938 c -0.7216479,0 -1.3395844,0.3107133 -1.7519532,0.8261718 C 2.7223968,3.6502241 2.4116832,4.1650709 2.3085938,4.8867188 2.1024044,6.9485625 2,9.8350566 2,12 c 0,2.164894 0.2055041,5.051387 0.3085938,7.113281 0.1030894,1.340197 1.1348292,2.475025 2.578125,2.578125 C 6.9485625,21.897606 9.8350566,22 12,22 c 2.164894,0 5.051387,-0.205494 7.113281,-0.308594 1.340197,-0.1031 2.475025,-1.134828 2.578125,-2.578125 C 21.897606,17.051387 22,14.164894 22,12 22,9.8350566 21.897606,6.9485625 21.691406,4.8867188 21.588306,3.5465127 20.556578,2.4116832 19.113281,2.3085938 17.051387,2.1024044 14.164894,2 12,2 Z m 0.06836,6.2109375 c 0.218657,0.00399 0.41744,0.097667 0.560547,0.2460937 0.143107,0.1484269 0.230563,0.3516484 0.226563,0.5703126 l -0.03906,2.1855472 2.185547,0.04101 c 0.437328,0.008 0.795109,0.377126 0.787109,0.814453 -0.008,0.437329 -0.379064,0.79511 -0.816406,0.78711 l -2.185547,-0.03906 -0.111328,2.113282 c -0.008,0.437341 -0.379062,0.795109 -0.816406,0.787109 -0.217341,-0.07688 -0.36281,-0.08015 -0.505859,-0.228516 -0.14312,-0.148442 -0.211685,-0.369844 -0.208985,-0.515625 l 0.03906,-2.185547 -2.1855471,-0.04101 c -0.4373419,-0.008 -0.7950994,-0.377127 -0.7871094,-0.814453 0.00799,-0.437329 0.3771247,-0.79511 0.8144531,-0.78711 l 2.1875004,0.03906 0.04101,-2.1855471 c 0.008,-0.437328 0.37714,-0.7950895 0.814453,-0.7871094 z"
     sodipodi:nodetypes="scscsccsccsccsssccccccccscccccccs" />
</svg>
