<?xml version="1.0" encoding="UTF-8" standalone="no"?>
<svg
   viewBox="0 0 24 24"
   fill="currentColor"
   version="1.1"
   id="svg200"
   sodipodi:docname="arrow-last.svg"
   inkscape:version="1.2.1 (0f2f062aeb, 2022-09-21, custom)"
   inkscape:export-filename="../b71c410c/arrow-l.svg"
   inkscape:export-xdpi="96"
   inkscape:export-ydpi="96"
   xmlns:inkscape="http://www.inkscape.org/namespaces/inkscape"
   xmlns:sodipodi="http://sodipodi.sourceforge.net/DTD/sodipodi-0.dtd"
   xmlns="http://www.w3.org/2000/svg"
   xmlns:svg="http://www.w3.org/2000/svg">
  <defs
     id="defs204" />
  <sodipodi:namedview
     id="namedview202"
     pagecolor="#505050"
     bordercolor="#ffffff"
     borderopacity="1"
     inkscape:showpageshadow="0"
     inkscape:pageopacity="0"
     inkscape:pagecheckerboard="1"
     inkscape:deskcolor="#505050"
     showgrid="false"
     inkscape:zoom="14.760854"
     inkscape:cx="4.6745263"
     inkscape:cy="13.650972"
     inkscape:window-width="1366"
     inkscape:window-height="704"
     inkscape:window-x="0"
     inkscape:window-y="0"
     inkscape:window-maximized="1"
     inkscape:current-layer="svg200" />
  <path
     id="path198"
     d="m 6.5665505,5.2495377 c 0.191925,0 0.382847,0.074258 0.529297,0.2207032 l 6.0000005,6.0000001 c 0.29289,0.292899 0.29289,0.767647 0,1.060547 l -6.0000005,6 c -0.2929,0.292899 -0.767647,0.292899 -1.060547,0 -0.2929,-0.2929 -0.2929,-0.767648 0,-1.060547 L 11.506004,11.999538 6.0353005,6.5307877 c -0.2929,-0.2928897 -0.2929,-0.7676571 0,-1.0605468 0.14645,-0.1464449 0.339325,-0.2207032 0.53125,-0.2207032 z m 10.9029795,0.00781 c 0.39521,8.473e-4 0.715076,0.321589 0.714844,0.7167994 V 18.024928 c 2.31e-4,0.395209 -0.319635,0.71595 -0.714844,0.716797 -0.395972,2.31e-4 -0.717028,-0.320825 -0.716797,-0.716797 V 5.9741471 C 16.752502,5.5781756 17.073559,5.2571196 17.46953,5.2573502 Z"
     sodipodi:nodetypes="sccccscccssscccccss" />
</svg>
