<?xml version="1.0" encoding="UTF-8" standalone="no"?>
<svg viewBox="0 0 1440 154" fill="#333333" xmlns="http://www.w3.org/2000/svg">
   <path d="M 1439.6055 15.056641 C 1434.3442 13.57675 1428.9356 12.148814 1423.1562 10.865234 C 1416.5671 9.4018014 1409.6361 8.0742802 1402.3477 6.9003906 C 1395.0592 5.7265011 1387.4137 4.7071067 1379.3984 3.859375 C 1371.3832 3.0116433 1362.9979 2.3365217 1354.2285 1.8515625 C 1345.4591 1.3666033 1336.305 1.0719004 1326.7539 0.98632812 C 1317.9375 0.90733829 1308.7823 1.0055328 1299.2773 1.296875 C 1289.7724 1.5882172 1279.9183 2.0732214 1269.7031 2.7636719 C 1259.488 3.4541224 1248.9116 4.3504149 1237.9648 5.46875 C 1227.0181 6.5870851 1215.7 7.9269571 1204 9.5019531 C 1178.5826 13.626949 1144.5685 18.757818 1105.5996 24.109375 C 1086.1152 26.785153 1065.3907 29.515433 1043.8848 32.203125 C 1022.3788 34.890817 1000.0912 37.53594 977.47461 40.039062 C 954.85805 42.542185 931.91197 44.903323 909.0957 47.025391 C 886.27944 49.147459 863.59139 51.031642 841.48633 52.576172 C 819.38127 54.120702 797.8599 55.327149 777.37695 56.097656 C 756.89401 56.868163 737.44993 57.201953 719.5 57.001953 C 719.09063 56.997353 718.79631 57.040159 718.39062 57.037109 C 700.41379 57.196221 680.97565 56.829838 660.52344 56.035156 C 640.07122 55.240475 618.60426 54.017849 596.57422 52.462891 C 574.54417 50.907932 551.95056 49.020157 529.24023 46.898438 C 506.52991 44.776718 483.70399 42.420745 461.21094 39.925781 C 438.71788 37.430817 416.55792 34.797739 395.17969 32.123047 C 373.80145 29.448355 353.20376 26.731217 333.83789 24.070312 C 295.10616 18.748504 261.29695 13.648529 236 9.5429688 C 220.40005 7.4429757 205.48011 5.7614691 191.21289 4.4648438 C 176.94568 3.1682184 163.33135 2.2568317 150.3457 1.6953125 C 137.36006 1.1337933 125.00135 0.92201849 113.24609 1.0273438 C 101.49084 1.132669 90.339699 1.5539044 79.763672 2.2578125 C 69.187645 2.9617206 59.188207 3.9493646 49.740234 5.1835938 C 40.292262 6.4178229 31.394527 7.8994144 23.023438 9.5957031 C 15.081918 11.204945 7.687117 13.034763 0.66992188 15 L 0.66992188 153.93945 L 1439.6055 153.93945 L 1439.6055 15.056641 z " />
</svg>