<?xml version="1.0" encoding="UTF-8" standalone="no"?>
<svg
   width="30"
   height="30"
   viewBox="0 0 30 30"
   fill="currentColor"
   version="1.1"
   id="svg1029"
   sodipodi:docname="sagas.svg"
   inkscape:version="1.2.1 (2ed6d7ae0b, 2022-08-22, custom)"
   xmlns:inkscape="http://www.inkscape.org/namespaces/inkscape"
   xmlns:sodipodi="http://sodipodi.sourceforge.net/DTD/sodipodi-0.dtd"
   xmlns="http://www.w3.org/2000/svg"
   xmlns:svg="http://www.w3.org/2000/svg">
  <defs
     id="defs1033" />
  <sodipodi:namedview
     id="namedview1031"
     pagecolor="#505050"
     bordercolor="#ffffff"
     borderopacity="1"
     inkscape:showpageshadow="0"
     inkscape:pageopacity="0"
     inkscape:pagecheckerboard="1"
     inkscape:deskcolor="#505050"
     showgrid="false"
     inkscape:zoom="15.866667"
     inkscape:cx="15"
     inkscape:cy="15.031513"
     inkscape:window-width="1366"
     inkscape:window-height="704"
     inkscape:window-x="0"
     inkscape:window-y="0"
     inkscape:window-maximized="1"
     inkscape:current-layer="svg1029" />
  <path
     id="path1023"
     d="M 20.128906 2.5 C 19.882831 2.5 19.636969 2.5935002 19.449219 2.78125 L 15 7.2304688 L 11.833984 4.0644531 C 11.458485 3.6889535 10.850109 3.6889535 10.474609 4.0644531 C 10.09911 4.4399727 10.09911 5.0483285 10.474609 5.4238281 L 12.720703 7.6699219 C 10.367529 7.7449469 7.8110325 7.907352 6.0839844 8.03125 C 4.4053461 8.1516599 3.0540148 9.4565036 2.890625 11.138672 C 2.7166452 12.93007 2.5 15.562755 2.5 17.564453 C 2.5 19.566251 2.7166452 22.198836 2.890625 23.990234 C 3.0540148 25.672333 4.4053461 26.975303 6.0839844 27.095703 C 8.3955221 27.261503 12.193203 27.5 15 27.5 C 17.806697 27.5 21.604518 27.261503 23.916016 27.095703 C 25.594714 26.975303 26.945975 25.672333 27.109375 23.990234 C 27.283375 22.198836 27.5 19.566251 27.5 17.564453 C 27.5 15.562755 27.283375 12.93007 27.109375 11.138672 C 26.945975 9.4565036 25.594714 8.1516599 23.916016 8.03125 C 22.189005 7.907352 19.632479 7.7449469 17.279297 7.6699219 L 20.808594 4.140625 C 21.184093 3.7651254 21.184093 3.1567696 20.808594 2.78125 C 20.620844 2.5935002 20.374981 2.5 20.128906 2.5 z M 15 9.5507812 C 17.731097 9.5507813 21.468599 9.7834589 23.779297 9.9492188 C 24.529796 10.003039 25.123313 10.582419 25.195312 11.324219 C 25.368912 13.110917 25.576172 15.663655 25.576172 17.564453 C 25.576172 19.465351 25.368912 22.018089 25.195312 23.804688 C 25.123313 24.546587 24.529796 25.123834 23.779297 25.177734 C 21.468599 25.343434 17.731097 25.576172 15 25.576172 C 12.268903 25.576172 8.5314008 25.343434 6.2207031 25.177734 C 5.4701639 25.123834 4.8767274 24.546587 4.8046875 23.804688 C 4.6311477 22.018089 4.4238281 19.465351 4.4238281 17.564453 C 4.4238281 15.663655 4.6311477 13.110917 4.8046875 11.324219 C 4.8767274 10.582419 5.4701639 10.003039 6.2207031 9.9492188 C 8.5314008 9.7834589 12.268903 9.5507812 15 9.5507812 z M 18.998047 13 C 18.899665 13.000232 18.799984 13.013928 18.701172 13.044922 L 11.744141 15.228516 C 11.350941 15.351916 11.072822 15.702082 11.044922 16.113281 C 11.016922 16.524381 11.244288 16.910538 11.617188 17.085938 L 16.267578 19.273438 L 10.697266 21.046875 C 10.170966 21.214275 9.8793852 21.776435 10.046875 22.302734 C 10.214275 22.829034 10.776435 23.120625 11.302734 22.953125 L 19.302734 20.408203 C 19.694734 20.283503 19.971047 19.930031 19.998047 19.519531 C 20.025147 19.109132 19.797981 18.723928 19.425781 18.548828 L 14.789062 16.369141 L 19.298828 14.955078 C 19.825728 14.789778 20.120278 14.228171 19.955078 13.701172 C 19.820772 13.273066 19.424369 12.998996 18.998047 13 z " />
</svg>
