<?xml version="1.0" encoding="UTF-8" standalone="no"?>
<svg
   width="30"
   height="30"
   viewBox="0 0 30 30"
   fill="currentColor"
   version="1.1"
   id="svg1029"
   sodipodi:docname="sagas-fill.svg"
   inkscape:version="1.2.1 (2ed6d7ae0b, 2022-08-22, custom)"
   xmlns:inkscape="http://www.inkscape.org/namespaces/inkscape"
   xmlns:sodipodi="http://sodipodi.sourceforge.net/DTD/sodipodi-0.dtd"
   xmlns="http://www.w3.org/2000/svg"
   xmlns:svg="http://www.w3.org/2000/svg">
  <defs
     id="defs1033" />
  <sodipodi:namedview
     id="namedview1031"
     pagecolor="#505050"
     bordercolor="#ffffff"
     borderopacity="1"
     inkscape:showpageshadow="0"
     inkscape:pageopacity="0"
     inkscape:pagecheckerboard="1"
     inkscape:deskcolor="#505050"
     showgrid="false"
     inkscape:zoom="15.866667"
     inkscape:cx="15"
     inkscape:cy="15.031513"
     inkscape:window-width="1366"
     inkscape:window-height="704"
     inkscape:window-x="0"
     inkscape:window-y="0"
     inkscape:window-maximized="1"
     inkscape:current-layer="svg1029" />
  <path
     id="path1023"
     d="M 20.128906 2.5 C 19.882831 2.5 19.636969 2.5935002 19.449219 2.78125 L 15 7.2304688 L 11.833984 4.0644531 C 11.458486 3.6889539 10.850109 3.6889539 10.474609 4.0644531 C 10.099111 4.4399723 10.099111 5.0483289 10.474609 5.4238281 L 12.720703 7.6699219 C 10.367531 7.7449468 7.8110307 7.9073521 6.0839844 8.03125 C 4.4053478 8.1516598 3.0540146 9.4565052 2.890625 11.138672 C 2.7166454 12.930068 2.5 15.562757 2.5 17.564453 C 2.5 19.566249 2.7166454 22.198838 2.890625 23.990234 C 3.0540146 25.672332 4.4053478 26.975303 6.0839844 27.095703 C 8.3955198 27.261503 12.193206 27.5 15 27.5 C 17.806694 27.5 21.60452 27.261503 23.916016 27.095703 C 25.594712 26.975303 26.945975 25.672332 27.109375 23.990234 C 27.283375 22.198838 27.5 19.566249 27.5 17.564453 C 27.5 15.562757 27.283375 12.930068 27.109375 11.138672 C 26.945975 9.4565052 25.594712 8.1516598 23.916016 8.03125 C 22.189006 7.9073521 19.632477 7.7449468 17.279297 7.6699219 L 20.808594 4.140625 C 21.184092 3.7651258 21.184092 3.1567692 20.808594 2.78125 C 20.620844 2.5935004 20.374981 2.5 20.128906 2.5 z M 18.898438 13.003906 C 19.361163 12.956511 19.810441 13.240135 19.955078 13.701172 C 20.120278 14.228171 19.825728 14.789778 19.298828 14.955078 L 14.789062 16.369141 L 19.425781 18.548828 C 19.797981 18.723928 20.025147 19.109132 19.998047 19.519531 C 19.971047 19.930031 19.694734 20.283503 19.302734 20.408203 L 11.302734 22.953125 C 10.776435 23.120625 10.214275 22.829034 10.046875 22.302734 C 9.8793852 21.776435 10.170966 21.214275 10.697266 21.046875 L 16.267578 19.273438 L 11.617188 17.085938 C 11.244288 16.910538 11.016922 16.524381 11.044922 16.113281 C 11.072822 15.702082 11.350941 15.351916 11.744141 15.228516 L 18.701172 13.044922 C 18.767047 13.024259 18.832334 13.010677 18.898438 13.003906 z " />
</svg>
