<svg xmlns="http://www.w3.org/2000/svg" width="30" height="30" viewBox="0 0 30 30" fill="currentColor">
<path fill-rule="evenodd" clip-rule="evenodd" d="M20.8081 2.78162C21.1836 3.15714 21.1836 3.76595 20.8081 4.14145L15.6799 9.26965C15.3044 9.64516 14.6956 9.64516 14.3201 9.26965L10.4739 5.4235C10.0984 5.048 10.0984 4.43919 10.4739 4.06367C10.8494 3.68817 11.4583 3.68817 11.8338 4.06367L15 7.22992L19.4483 2.78162C19.8238 2.40612 20.4326 2.40612 20.8081 2.78162Z" />
<path fill-rule="evenodd" clip-rule="evenodd" d="M19.9542 13.7007C20.1194 14.2277 19.8262 14.7889 19.2993 14.9542L14.7895 16.3686L19.4257 18.5497C19.7979 18.7248 20.0249 19.1099 19.9978 19.5203C19.9708 19.9308 19.6952 20.2828 19.3032 20.4075L11.3032 22.9529C10.7769 23.1204 10.2145 22.8295 10.0471 22.3032C9.87961 21.7769 10.1705 21.2145 10.6968 21.0471L16.268 19.2744L11.6178 17.0867C11.2449 16.9113 11.0178 16.5251 11.0458 16.114C11.0737 15.7028 11.351 15.351 11.7442 15.2276L18.7007 13.0458C19.2277 12.8805 19.7889 13.1738 19.9542 13.7007Z" />
<path fill-rule="evenodd" clip-rule="evenodd" d="M15 9.55129C12.2689 9.55129 8.53214 9.78412 6.22144 9.94988C5.4709 10.0037 4.87763 10.5819 4.80559 11.3237C4.63205 13.1104 4.42308 15.6633 4.42308 17.5641C4.42308 19.465 4.63205 22.0179 4.80559 23.8045C4.87763 24.5464 5.4709 25.1245 6.22144 25.1784C8.53214 25.3441 12.2689 25.5769 15 25.5769C17.7311 25.5769 21.4679 25.3441 23.7786 25.1784C24.5291 25.1245 25.1224 24.5464 25.1944 23.8045C25.368 22.0179 25.5769 19.465 25.5769 17.5641C25.5769 15.6633 25.368 13.1104 25.1944 11.3237C25.1224 10.5819 24.5291 10.0037 23.7786 9.94988C21.4679 9.78412 17.7311 9.55129 15 9.55129ZM6.08384 8.03173C8.39539 7.8659 12.1932 7.6282 15 7.6282C17.8069 7.6282 21.6046 7.8659 23.9161 8.03173C25.5948 8.15214 26.9451 9.45553 27.1085 11.1377C27.2825 12.9291 27.5 15.5624 27.5 17.5641C27.5 19.5659 27.2825 22.1991 27.1085 23.9905C26.9451 25.6726 25.5948 26.9761 23.9161 27.0965C21.6046 27.2623 17.8067 27.5 15 27.5C12.1932 27.5 8.39538 27.2623 6.08384 27.0965C4.4052 26.9761 3.0549 25.6726 2.89151 23.9905C2.71753 22.1991 2.5 19.5659 2.5 17.5641C2.5 15.5624 2.71753 12.9291 2.89151 11.1377C3.0549 9.45553 4.4052 8.15214 6.08384 8.03173Z" />
</svg>
