<svg xmlns="http://www.w3.org/2000/svg" xmlns:xlink="http://www.w3.org/1999/xlink" viewBox="0 0 24 24"><defs><symbol id="material_system_icon_border" data-name="material_system_icon_border" viewBox="0 0 48 48"><rect width="48" height="48" fill="none"/></symbol></defs><title>FilmDBicon</title><g id="border"><use id="material_system_icon_border-3" data-name="material_system_icon_border" width="48" height="48" transform="scale(0.5)" xlink:href="#material_system_icon_border"/></g><g id="Capa_7" data-name="Capa 7"><path d="M10,9.6v4.88a.58.58,0,0,0,.91.48l3.65-2.43a.58.58,0,0,0,0-1L10.91,9.12A.58.58,0,0,0,10,9.6Z" transform="translate(0 0)" fill="#e91e63"/><path d="M8.43,4a17,17,0,0,1,3.79,1.24,16.6,16.6,0,0,1,3.47,2.13,9.42,9.42,0,0,1,2.65,3.23,5,5,0,0,1,.48,2.09,3.66,3.66,0,0,1-.56,2,5.15,5.15,0,0,0-.94-3.52,12.84,12.84,0,0,0-2.57-2.64c-1-.81-2-1.53-3.09-2.27S9.44,4.81,8.43,4Z" transform="translate(0 0)" fill="#e91e63"/><path d="M18,7.22" transform="translate(0 0)" fill="none"/><path d="M5.36,7.22" transform="translate(0 0)" fill="none"/><path d="M6.84,10.86c-.1,1.26-.22,2.48-.21,3.65a7.8,7.8,0,0,0,.19,1.66,1.66,1.66,0,0,0,.66,1,5.3,5.3,0,0,0,3.09.26c1.16-.16,2.36-.42,3.6-.66a9.47,9.47,0,0,1-3.34,1.83,7.89,7.89,0,0,1-2,.35,3.9,3.9,0,0,1-2.16-.52,2.86,2.86,0,0,1-1.22-2,6.26,6.26,0,0,1,0-2A10.27,10.27,0,0,1,6.84,10.86Z" transform="translate(0 0)" fill="#e91e63"/></g></svg>