<svg xmlns="http://www.w3.org/2000/svg" viewBox="0 0 264 168"><title>Thumbnail_v3</title><g id="Background"><path d="M0,0H264V168H0V0" transform="translate(0 0)" fill="#030118"/></g><g id="Icon"><g id="_e91e63ff" data-name="#e91e63ff"><path d="M102.77,22.53c2.49,0,4.83,1,7.26,1.4a141.35,141.35,0,0,1,43.41,19.83c7.41,5.25,14.67,10.92,20.3,18.13,6.07,7.72,11.33,16.62,12.33,26.57a31.44,31.44,0,0,1-4,19.64c-.12-1.55,0-3.1,0-4.64a41.48,41.48,0,0,0-9-25A102.54,102.54,0,0,0,157.67,62q-10.17-8.48-21.06-16c-8.15-5.61-16.69-10.64-24.63-16.55C108.86,27.2,105.82,24.86,102.77,22.53Z" transform="translate(0 0)" fill="#e91e63"/><path d="M117.75,62.9a4.81,4.81,0,0,1,5,.74q14.56,9.83,29.14,19.64a4.65,4.65,0,0,1,0,7.6q-14.44,9.7-28.91,19.37c-1.33.94-3.08,1.73-4.69,1a4.61,4.61,0,0,1-3.37-4.47q-.06-19.71,0-39.42A4.75,4.75,0,0,1,117.75,62.9Z" transform="translate(0 0)" fill="#e91e63"/><path d="M80.73,96.71A84.77,84.77,0,0,1,89.31,77.6c-1,12.19-2.38,24.47-1.22,36.7.8,4.25.93,9,3.89,12.44,2.44,3,6.46,4,10.09,4.73,8.23,1.21,16.53-.16,24.67-1.41,7.29-1.42,14.59-2.78,21.86-4.29a78.78,78.78,0,0,1-23.66,13.6,58.83,58.83,0,0,1-18.14,4,32.07,32.07,0,0,1-19-4.41,21.55,21.55,0,0,1-7.94-9.85c-1.35-3.37-1.65-7-2-10.6C77.15,111.12,78.62,103.75,80.73,96.71Z" transform="translate(0 0)" fill="#e91e63"/></g></g></svg>