<svg viewBox="0 0 24 24"><path d="M11.1,2c2.6-0.3,5.4,0.6,7.4,2.3s3.4,4.2,3.5,6.9c0.2,2.2-0.4,4.6-1.7,6.4c-1.6,2.4-4.3,4-7.2,4.3     c-1.7,0.2-3.4-0.1-4.9-0.7c-1.4-0.6-2.7-1.5-3.7-2.6C3.1,17,2.3,14.9,2,12.8c-0.3-2.6,0.6-5.3,2.4-7.3C6,3.6,8.4,2.3,11.1,2z      M11,2.9c-2.7,0.3-5.2,1.8-6.7,4c1.8,0,3.7,0,5.5,0c0.7,0.5,1.4,0.9,2,1.5c0,2.6,0,5.3,0,8c-0.6,0.5-1.2,0.9-1.8,1.3     c-0.1,0.1-0.1,0.1-0.3,0.1c-1.6,0-3.3,0-4.9,0c0.1,0.2,0.3,0.4,0.5,0.5c1.5,1.6,3.7,2.7,5.9,2.9c1.6,0.1,3.2-0.1,4.6-0.7     c1.4-0.6,2.6-1.6,3.5-2.7c-0.1,0-0.3-0.1-0.5-0.1c-1.3,0-2.6,0-3.9,0c-0.1,0-0.2,0-0.3-0.1c-0.6-0.4-1.2-0.9-1.8-1.3     c-0.1-0.1-0.1-0.1-0.1-0.3c0-2.6,0-5.2,0-7.8c0.7-0.5,1.4-0.9,2-1.4c0.7,0,1.5,0,2.2,0c0.3,0.2,0.7,0.5,1,0.7     c0.1-0.3,0.2-0.5,0.3-0.7c0.5,0,0.9,0,1.5,0C19,6,18.3,5.2,17.5,4.6C15.7,3.3,13.2,2.6,11,2.9z M20.3,8c-0.2,0.9-0.3,2-0.5,2.9     c-0.8,0-1.6,0-2.4,0c0-0.5,0-1,0-1.6c-0.9,0-1.8,0-2.7,0c0.2,0.1,0.5,0.3,0.7,0.5c0.1,0.1,0.1,0.2,0.1,0.3c0,1.4,0,2.9,0,4.3     c0,0.3,0.1,0.5,0.3,0.7s0.5,0.2,0.7,0.2s0.6,0,0.9,0c0-0.5,0-0.9,0-1.4c0.9,0,1.8,0,2.6,0c0,0.8,0,1.6,0,2.4c0,0.1,0,0.2,0.1,0.3     c0.5-1,0.9-2,1.1-3.2c0.3-1.8,0-3.6-0.7-5.3C20.3,8.1,20.3,8,20.3,8z M3.1,9c-0.7,2.2-0.7,4.6,0.2,6.7c0.3,0.4,0.5,0.9,0.8,1.3     c0-0.5,0-1.1,0-1.6c0-2,0-3.8,0-5.8C3.9,9.4,3.7,9.3,3.4,9.1C3.3,9,3.3,9,3.1,9z M6.3,9.4C6.5,9.6,6.8,9.7,7,9.9     c0,1.8,0,3.6,0,5.4c0.3,0.1,0.5,0,0.9,0.1c0.3,0,0.5,0,0.8-0.2C9,14.9,9.1,14.7,9,14.3c0-1.3,0-2.7,0-4c0-0.5-0.4-0.9-0.9-0.9     C7.5,9.4,6.9,9.3,6.3,9.4z"></path></svg>
