<svg viewBox="0 0 24 24" data-v-5831562a=""><path d="M2.8,4.7c2.1-0.8,4.4-0.8,6.6-0.4c3.6,0.6,7,2.1,9.7,4.4c1.4,1.3,2.7,2.9,2.9,4.8v0.5     c-0.1,0.8-0.3,1.5-0.7,2.2c-0.7,1.1-1.8,1.9-3,2.3c-2.2,0.8-4.6,0.9-6.8,0.3c-0.1,0.3,0,0.5-0.1,0.8c-0.3,0.3-1,0.4-1.4,0     c-0.3-0.4-0.3-0.9-0.4-1.4c-1.6-0.7-3.3-1.8-4.4-3.4c-0.3-0.3-0.3-0.8-0.1-1.1c0.2-0.5,0.7-0.7,1.2-1c1.1-0.5,2.3-0.9,3.5-1.1     C9.8,10.8,9.8,9.9,10,9c0.1-0.3,0.1-0.7,0.4-0.9c0.4,0.3,0.8,0.7,0.8,1.3c0.1,0.7,0.2,1.4,0.2,2.2c1.3-0.1,2.6,0.1,3.8,0.4     c0.8,0.2,1.7,0.6,2,1.3c0.5,0.9-0.4,2.1-1.4,2c-0.3-0.1-0.8-0.1-1-0.4c0.3-0.3,0.8-0.3,1-0.7c0-0.3-0.4-0.5-0.7-0.5     c-1.3-0.4-2.7-0.5-4-0.5c0,1.5,0.1,3,0.1,4.4c1.2,0.2,2.5,0.3,3.8,0.1s2.6-0.5,3.6-1.3C19.5,15.8,20,15,20,14     c0.1-0.9-0.3-1.9-0.9-2.7c-0.9-1.3-2.2-2.2-3.5-3c-2.6-1.6-5.7-2.7-8.7-3C5.7,5.3,4.6,5.3,3.4,5.5C3.2,5.6,3,5.7,2.9,5.8     c0.3,0.1,0.7,0.1,1,0.3c0,0.1-0.1,0.2-0.2,0.3c-0.4,0.1-1,0.1-1.4-0.1C1.9,6.1,2,5.8,2.1,5.5C2.3,5.3,2.5,4.9,2.8,4.7z M6,13.9     c-0.2,0.1-0.5,0.2-0.5,0.4c0,0.3,0.2,0.4,0.4,0.6c1,1,2.3,1.7,3.6,2.2c0.1-1.3,0.1-2.6,0.1-3.9C8.5,13.3,7.2,13.4,6,13.9z"></path></svg>
