<svg viewBox="0 0 24 24"><path d="M 11.800781,2 C 10.600782,2 9.3992176,2.2992191 8.1992188,2.6992188 6.99922,3.1992182 5.8007802,4.000001 4.8007812,5 3.9007822,5.999999 3.0996089,7.1996108 2.5996094,8.5996094 2.1996098,9.6996083 2,10.800392 2,11.900391 v 0.298828 c 0,0.999999 0.2000003,2.000001 0.5,3 0.3999996,1.399998 1.3007823,2.700782 2.3007812,3.800781 0.9999991,0.999999 2.1984387,1.799219 3.3984376,2.199219 1.1999987,0.399999 2.4015632,0.701172 3.6015622,0.701172 h 0.298828 c 1.899998,0 3.701174,-0.500001 5.201172,-1.5 1.299999,-0.8 2.39922,-2.000783 3.199219,-3.300782 0.899999,-1.499998 1.400391,-3.200001 1.400391,-5 v -0.298828 c 0,-0.799999 -0.100782,-1.600782 -0.300782,-2.300781 -0.299999,-1.1999988 -0.8,-2.3007823 -1.5,-3.3007812 -0.899999,-1.1999988 -2.100392,-2.3000008 -3.40039,-3 C 15.29922,2.3992195 13.699608,2 12.099609,2 Z m 0.5,1.3007812 c 1.499999,1e-7 3.098439,0.498829 4.398438,1.2988282 1.299998,0.7999992 2.3,2.0007825 3,3.3007812 0.699999,1.2999987 1,2.6996104 1,4.0996094 0,1.099999 -0.19961,2.09961 -0.59961,3.099609 -0.599999,1.599999 -1.79922,3.000001 -3.199218,4 -1.499999,1.099999 -3.401174,1.6 -5.201172,1.5 -1.399999,-0.1 -2.8000015,-0.499219 -4.0000002,-1.199218 C 6.2992202,18.700391 5.1999993,17.499217 4.5,16.199219 3.8000007,14.89922 3.4003906,13.399999 3.4003906,12 c 0,-0.899999 0.100391,-1.79922 0.4003906,-2.6992188 0.3999997,-1.1999987 1.100001,-2.4003916 2,-3.4003906 C 6.8007803,5.0003915 7.8992201,4.3007808 9.1992188,3.8007812 9.899218,3.6007814 10.700391,3.5003905 11.400391,3.4003906 c 0.199999,0 0.500391,3.906e-4 0.90039,-0.099609 z m 0.898438,0.7988282 c -0.1,0 -0.09922,0.099609 -0.199219,0.099609 -0.4,0.3999987 -0.799219,0.9000015 -1.199219,1.5 0,0.1999993 -0.101562,0.5011724 -0.101562,0.7011718 V 7 7.3007812 c 0.1,0.2999994 0.201172,0.5984383 0.201172,0.8984376 0.1,0.4999985 0.199218,0.9003921 0.199218,1.4003906 v 0.8007816 c 0,0.599997 7.79e-4,1.09961 -0.199218,1.599609 -0.2,0.599997 -0.49961,1.099612 -0.59961,1.599609 V 14 14.400391 c 0,0.199997 -0.1,0.399609 0,0.599609 0,0.1 0.09922,0.300781 0.199219,0.300781 l 0.09961,-0.101562 c 0.1,-0.1 0.09961,-0.298438 0.09961,-0.398438 0,-0.2 0.0016,-0.30039 0.101562,-0.40039 0.1,-0.2 0.298438,-0.501172 0.398438,-0.701172 0.2,-0.3 0.401562,-0.598831 0.601562,-0.798828 0.2,-0.2 0.298438,-0.401175 0.398438,-0.701172 0.2,-0.5 0.4,-0.898438 0.5,-1.398438 v -0.40039 c 0.1,-0.5999994 0.1,-1.2007834 0,-1.8007816 C 13.699219,8.2996103 13.6,7.9992179 13.5,7.6992188 13.3,7.1992201 13.1,6.5999982 13,6 12.9,5.6000012 12.900391,5.2007803 12.900391,4.8007812 13.000391,4.7007816 13,4.5999997 13,4.5 13.1,4.4 13.199219,4.2996088 13.199219,4.0996094 Z m -3,1.5996094 c 0,0.1 0.10039,0.2011728 -0.09961,0.7011718 0.1,0.499999 0.201172,1.000001 0.201172,1.5 V 8.3007812 C 10.300781,8.7007806 10.10039,9.1000008 9.9003906,9.5 9.700391,9.8999992 9.4992182,10.199611 9.1992188,10.599609 l -0.099609,0.09961 v -0.398438 c 0,-0.1 0.099609,-0.200781 0.099609,-0.300781 h -0.099609 c -0.1,0 -0.099219,0.09922 -0.1992188,0.199219 -0.1,0.2 -0.2011719,0.600392 -0.2011718,0.90039 v 0.59961 c 0.084146,0.673171 0.2390847,1.276048 0.4648437,1.867187 -0.076489,-0.160937 -0.1636725,-0.316797 -0.2636719,-0.466797 -0.1999988,-0.399994 -0.6003924,-0.7 -0.9003906,-1 -0.1999988,-0.1 -0.500393,-0.298828 -0.9003906,-0.298828 -0.05,-0.025 -0.1050787,-0.03789 -0.1660156,-0.04101 -0.022852,-0.0012 -0.046225,-0.0013 -0.070313,0 -0.1686117,0.0091 -0.3656257,0.075 -0.5625,0.140625 0.3999982,0.1 0.6988288,0.2 0.7988282,0.5 0.2999982,0.199994 0.4996095,0.6 0.5996094,1 C 7.6992187,13.600385 7.8007812,13.8 7.8007812,14 c 10e-8,0.1 0.099609,0.3 0.099609,0.5 L 7.5996094,14.199219 c -0.099999,0 -0.1992188,0.0016 -0.1992188,0.101562 V 14.5 c 0,0.2 0.099219,0.399615 0.1992188,0.599609 0.099999,0.3 0.2007818,0.500782 0.3007812,0.800782 0.099999,0.199994 0.099219,0.4 0.1992188,0.5 0.099999,0.1 0.1011724,0.198828 0.2011718,0.298828 0.12823,0.12823 0.2127854,0.297345 0.2851563,0.455078 C 8.5241858,17.062858 8.4624851,16.962485 8.4003906,16.900391 8.0003938,16.400391 7.5992156,15.999999 7.1992188,15.5 7.1992187,15.4 7.0999992,15.299219 7,15.199219 6.7000024,14.799219 6.5999992,14.4 6.5,14 6.5,13.9 6.400391,13.90039 6.400391,13.90039 6.300392,13.90039 6.300782,14 6.300782,14 c 1e-7,0.4 0.09922,0.799219 0.1992188,1.199219 C 6.5999992,15.699211 6.8000016,16.1 7,16.5 c 0.1999984,0.4 0.399611,0.799617 0.5996094,1.099609 0.499996,0.6 1.2003962,1.100008 1.9003906,1.5 l 0.599609,0.300782 c -0.2999944,-0.3 -0.5988287,-0.600008 -0.7988278,-1 -0.090587,-0.120785 -0.1715896,-0.241394 -0.2441406,-0.359375 0.046509,0.05797 0.094697,0.110322 0.1425782,0.158203 0.1999987,0.1 0.3000007,0.3 0.5,0.5 0.1999987,0.299994 0.4011722,0.501172 0.7011722,0.701172 0.1,0 0.198828,0.09961 0.298828,0.09961 -0.1,-0.2 -0.298438,-0.499219 -0.398438,-0.699219 -0.2,-0.399994 -0.4003904,-0.801172 -0.4003904,-1.201172 0,-0.399994 -0.099609,-0.7 -0.099609,-1 0,-0.299994 -0.1015624,-0.498828 -0.1015624,-0.798828 -10e-8,-0.2 -0.099609,-0.501172 -0.099609,-0.701172 -0.057425,-0.40197 -0.1489216,-0.802509 -0.2910156,-1.185547 0.1943221,0.298478 0.2950677,0.690649 0.4921874,0.986329 0.4,0.699998 0.49961,1.49883 0.59961,2.298828 V 17.5 c 0.1,-0.1 0.30039,-0.200391 0.40039,-0.400391 0.2,-0.399998 0.298828,-0.79922 0.298828,-1.199218 v -1 C 10.99961,14.600391 11,14.399609 11,14.099609 c 0.1,-0.899998 0.499219,-1.7 0.699219,-2.5 0.1,-0.499998 0.201172,-0.898828 0.201172,-1.298828 0,-0.5999984 3.9e-4,-1.2011726 -0.09961,-1.7011716 C 11.700781,8.1996102 11.600389,7.8999992 11.400391,7.5 l -0.59961,-1.1992188 c -0.1,-0.1999995 -0.200392,-0.4000001 -0.40039,-0.5 -0.1,-0.1 -0.101172,-0.1015624 -0.201172,-0.1015624 z m 2.5,1.7011718 c 0.299997,0.6999979 0.6,1.4992209 0.5,2.1992188 0.1,0.5999976 7.81e-4,1.2007816 -0.199219,1.8007816 -0.1,0.299997 -0.200781,0.499221 -0.300781,0.699218 -0.2,0.2 -0.298438,0.300003 -0.398438,0.5 -0.1,0.1 -0.201172,0.200782 -0.201172,0.300782 0,-0.2 -3.9e-4,-0.4 0.09961,-0.5 0.1,-0.2 0.200781,-0.501172 0.300781,-0.701172 0.2,-0.3 0.200781,-0.700003 0.300781,-1 C 12.900781,10.399219 13,10.20039 13,9.9003906 13,9.6003915 13.1,9.2999991 13,9 12.9,8.6000012 12.799219,8.0992175 12.699219,7.6992188 V 7.4375 Z M 11.099609,9.5 c 0.1,0.1 0.09961,0.2007814 0.09961,0.3007812 0,0.3999998 3.9e-4,0.7992188 -0.09961,1.1992188 -0.199998,0.599998 -0.4,1.200783 -0.5,1.800781 v 0.5 c 0.1,0.3 0.09961,0.598438 0.09961,0.898438 0.1,0.299998 0.101562,0.600392 0.101562,0.90039 C 10.700781,14.699611 10.600389,14.4 10.400391,14 c -0.2,-0.499999 -0.5007822,-0.900783 -0.8007816,-1.300781 -0.1,-0.2 -0.1992188,-0.3 -0.1992188,-0.5 -0.1,-0.1 -0.099609,-0.198828 -0.099609,-0.298828 0.1,0.1 0.1984379,0.198828 0.3984376,0.298828 0,0 0.1015624,3.9e-4 0.1015624,-0.09961 0,-0.299998 0.099219,-0.49922 0.1992184,-0.699218 0.1,-0.3 0.3,-0.500782 0.5,-0.800782 0.2,-0.199998 0.4,-0.498828 0.5,-0.7988278 0.1,-0.1 0.09961,-0.2007814 0.09961,-0.3007812 z m 4.701172,1.900391 C 15.900781,11.900387 15.7,12.500001 15.5,13 c -0.2,0.3 -0.399613,0.7 -0.599609,1 0,-0.1 0.1,-0.200781 0,-0.300781 l -0.09961,0.101562 c -0.293925,0.352714 -0.518913,0.774296 -0.654297,1.22461 0.108713,-0.472912 0.182192,-0.923776 0.253907,-1.425782 v -1 c -0.1,-0.299995 -0.100782,-0.7 -0.300782,-1 L 14,11.5 c -0.1,0.4 -0.2,0.800391 -0.5,0.900391 -0.2,0.399995 -0.399219,0.7 -0.699219,1 -0.299995,0.299995 -0.600781,0.6 -0.800781,1 -0.1,0.199995 -0.09922,0.30039 -0.199219,0.40039 0,0 -0.101562,0.09922 -0.101562,0.199219 -0.1,0.4 -0.298438,0.699614 -0.398438,1.099609 -0.1,0.2 -0.101562,0.300005 -0.101562,0.5 0,0.5 0.101172,0.900391 0.201172,1.400391 0.05122,0.204889 0.101587,0.410117 0.179687,0.601562 C 11.553005,18.561974 11.52699,18.52699 11.5,18.5 11.4,18.4 11.2,18.299219 11,18.199219 c -0.2,-0.1 -0.300391,-0.198438 -0.400391,-0.398438 -0.299991,-0.299991 -0.4,-0.801172 -0.5,-1.201172 V 16.400391 C 10.099609,16.400391 10,16.4 10,16.5 c 0,0.5 -3.865e-4,1.100391 0.09961,1.400391 0.1,0.299991 0.300009,0.7 0.5,1 0.2,0.199991 0.401181,0.4 0.701172,0.5 L 11.19922,19.300781 C 11.099219,19.200781 11.1,19.1 11,19 c 0.2,-0.1 0.300781,-7.81e-4 0.300781,0.199219 0.1,0 0.1,0.101172 0,0.201172 0.1,0.1 0.298438,0.1 0.398438,0 0.1,-0.1 0.101562,-0.200391 0.101562,-0.400391 -0.0082,-0.01645 -0.01716,-0.03048 -0.02539,-0.04687 0.03758,0.05083 0.07859,0.10007 0.125,0.146484 0.1,0.2 0.3,0.300005 0.5,0.5 0.1,0.1 0.198828,0.101172 0.298828,0.201172 0,-0.2 -0.09961,-0.30039 -0.09961,-0.40039 -0.1,-0.1 -0.199218,-0.300391 -0.199218,-0.400391 0.199995,0 0.30039,0.199219 0.40039,0.199219 v -0.09961 -0.5 c 0,-0.1 0.09961,-0.30039 0.09961,-0.40039 0.1,-0.3 0.198828,-0.498833 0.298828,-0.798828 0.2,-0.4 0.3,-0.69961 0.5,-1.09961 0.2,-0.2 0.200781,-0.401172 0.300781,-0.701172 0.02473,-0.08656 0.04453,-0.168075 0.06641,-0.251953 C 14.023602,15.562287 14,15.781282 14,16 c 0,0.4 -3.91e-4,0.799219 0.09961,1.199219 0.1,0 0.201172,3.9e-4 0.201172,-0.09961 C 14.400781,16.899613 14.4,16.7 14.5,16.5 c 0.1,-0.1 0.09922,-0.300391 0.199219,-0.400391 0.2,-0.199996 0.401562,-0.499222 0.601562,-0.699218 l 0.5,-0.5 c 0.2,-0.1 0.4,-0.300004 0.5,-0.5 0.2,-0.4 0.199219,-0.900782 0.199219,-1.300782 -0.1,-0.399996 -0.100781,-0.799222 -0.300781,-1.199218 -0.1,-0.2 -0.198438,-0.4 -0.398438,-0.5 z m 1.59961,2.199218 c -0.3,0.3 -0.29961,0.700007 -0.59961,1 -0.299993,0.2 -0.501172,0.39961 -0.701172,0.59961 -0.199993,0.2 -0.30039,0.600397 -0.40039,0.90039 0,0.3 -0.09961,0.600391 -0.09961,0.900391 0.1,0 0.300391,3.91e-4 0.400391,-0.09961 0.3,-0.2 0.600391,-0.401179 0.900391,-0.701172 0.1,-0.1 0.198828,-0.198438 0.298828,-0.398438 0.1,-0.2 0.201172,-0.500781 0.201172,-0.800781 0.1,-0.499999 0.09961,-0.900788 0.09961,-1.300781 0,0 3.91e-4,-0.09961 -0.09961,-0.09961 z m -1.5,0.201172 c 0,0 -3.91e-4,0.09844 0.09961,0.398438 l -0.09961,0.101562 -0.300782,0.298828 c -0.199996,0.1 -0.3,0.300391 -0.5,0.400391 C 14.899613,15.1 14.7,15.3 14.5,15.5 l -0.09961,0.09961 C 14.500391,15.299613 14.7,15.000781 15,14.800781 c 0.4,-0.2 0.700391,-0.6 0.900391,-1 z m -2.300782,0.09961 c 0,0.199995 3.91e-4,0.4 -0.09961,0.5 -0.2,0.399995 -0.399219,0.799223 -0.699219,1.199218 C 12.700781,15.799609 12.6,15.9 12.5,16 c -0.2,0.2 -0.300391,0.3 -0.400391,0.5 -0.1,0.2 0,0.399614 0,0.599609 0,0.1 0.09961,0.09961 0.09961,0.09961 0.2,-0.1 0.200395,-0.198828 0.40039,-0.298828 0,0.1 -0.09961,0.09922 -0.09961,0.199218 -0.2,0.4 -0.199609,0.79961 -0.09961,1.09961 -0.1,-0.1 -0.200782,-0.198438 -0.300782,-0.398438 -0.199995,-0.299995 -0.298828,-0.701567 -0.298828,-1.101562 0,-0.3 0.09883,-0.598438 0.298828,-0.898438 L 12.699219,15.199219 13,14.900391 c 0.2,-0.2 0.399614,-0.400005 0.599609,-1 z M 8.9003906,15 C 9.00039,15.2 9,15.500787 9,15.800781 c 0,0.3 0.099609,0.598438 0.099609,0.898438 0,0.299994 0.099609,0.501172 0.099609,0.701172 -0.2999988,-0.3 -0.49961,-0.600006 -0.5996094,-1 -0.099999,-0.2 -0.1992188,-0.300006 -0.1992188,-0.5 0.1000002,0 0.198829,0.09961 0.298829,0.09961 h 0.1015624 c 0.1,-0.1 0.099609,-0.09922 0.099609,-0.199219 V 15.19922 Z m 8.0000004,0.400391 c 0,0.199993 3.9e-4,0.30039 -0.09961,0.40039 -0.2,0.2 -0.401562,0.298438 -0.601562,0.398438 0,-0.1 0.0016,-0.298438 0.101562,-0.398438 0.1,-0.2 0.29961,-0.40039 0.59961,-0.40039 z m -1.800782,0.798828 c 0,0.299991 -0.20039,0.600399 -0.40039,0.90039 -0.2,0.2 -0.498837,0.4 -0.798828,0.5 0,0 3.9e-4,-0.09961 -0.09961,-0.09961 -0.1,0 -0.201172,-3.91e-4 -0.201172,0.09961 -0.1,0.2 -0.09922,0.39961 -0.199218,0.59961 -0.1,0.299991 -0.201172,0.7 -0.201172,1 0,0.1 0.0016,0.30039 0.101562,0.40039 h 0.09961 c 0.199991,0 0.30039,-0.09922 0.40039,-0.199218 0.4,-0.3 0.700009,-0.600391 1,-0.900391 0.3,-0.3 0.4,-0.699618 0.5,-1.099609 0,-0.3 0.1,-0.700009 0,-1 0,-0.1 -0.101172,-0.201172 -0.201172,-0.201172 z m -7.1992184,1 C 8.100389,17.399219 8.4000008,17.6 8.5,18 8.599999,18 8.599609,18.09922 8.599609,18.199219 8.399611,17.999219 8.1999984,17.8 8,17.5 8,17.4 7.9003906,17.299219 7.9003906,17.199219 Z m 6.5097654,0.845703 c -0.0056,0.01845 -0.0098,0.03624 -0.0098,0.05469 0,0.1 3.9e-4,0.201172 -0.09961,0.201172 -0.1,0.1 -0.3,0.298438 -0.5,0.398438 -0.1,0 -0.101172,0.101172 -0.201172,0.201172 0,0.1 -0.199218,0.1 -0.199218,0 0,-0.1 0.09961,-0.200782 0.09961,-0.300782 h 0.199219 l 0.201172,-0.199218 c 0.199463,-0.132981 0.39848,-0.222722 0.509765,-0.355469 z" /></svg>