<svg viewBox="0 0 24 24" data-v-5831562a=""><g><path class="st1" d="M11.8,2h0.3c1.6,0,3.2,0.4,4.6,1.2c1.3,0.7,2.5,1.8,3.4,3c0.7,1,1.2,2.1,1.5,3.3c0.2,0.7,0.3,1.5,0.3,2.3v0.3    c0,1.8-0.5,3.5-1.4,5c-0.8,1.3-1.9,2.5-3.2,3.3c-1.5,1-3.3,1.5-5.2,1.5h-0.3c-1.2,0-2.4-0.3-3.6-0.7C7,20.8,5.8,20,4.8,19    c-1-1.1-1.9-2.4-2.3-3.8c-0.3-1-0.5-2-0.5-3v-0.3c0-1.1,0.2-2.2,0.6-3.3C3.1,7.2,3.9,6,4.8,5c1-1,2.2-1.8,3.4-2.3    C9.4,2.3,10.6,2,11.8,2z M11.4,3.4c-0.7,0.1-1.5,0.2-2.2,0.4C7.9,4.3,6.8,5,5.8,5.9C4.9,6.9,4.2,8.1,3.8,9.3    c-0.3,0.9-0.4,1.8-0.4,2.7c0,1.4,0.4,2.9,1.1,4.2c0.7,1.3,1.8,2.5,3.2,3.2c1.2,0.7,2.6,1.1,4,1.2c1.8,0.1,3.7-0.4,5.2-1.5    c1.4-1,2.6-2.4,3.2-4c0.4-1,0.6-2,0.6-3.1c0-1.4-0.3-2.8-1-4.1c-0.7-1.3-1.7-2.5-3-3.3c-1.3-0.8-2.9-1.3-4.4-1.3    C11.9,3.4,11.6,3.4,11.4,3.4z"></path><g><path class="st1" d="M13,4.2c0.1,0,0.1-0.1,0.2-0.1c0,0.2-0.1,0.3-0.2,0.4c0,0.1,0,0.2-0.1,0.3c0,0.4,0,0.8,0.1,1.2     c0.1,0.6,0.3,1.2,0.5,1.7c0.1,0.3,0.2,0.6,0.2,0.9c0.1,0.6,0.1,1.2,0,1.8c0,0.1,0,0.3,0,0.4c-0.1,0.5-0.3,0.9-0.5,1.4     c-0.1,0.3-0.2,0.5-0.4,0.7c-0.2,0.2-0.4,0.5-0.6,0.8c-0.1,0.2-0.3,0.5-0.4,0.7c-0.1,0.1-0.1,0.2-0.1,0.4c0,0.1,0,0.3-0.1,0.4     c0,0-0.1,0.1-0.1,0.1c-0.1,0-0.2-0.2-0.2-0.3c-0.1-0.2,0-0.4,0-0.6c0-0.1,0-0.3,0-0.4c0-0.1,0-0.3,0-0.4c0.1-0.5,0.4-1,0.6-1.6     c0.2-0.5,0.2-1,0.2-1.6c0-0.3,0-0.6,0-0.8c0-0.5-0.1-0.9-0.2-1.4c0-0.3-0.1-0.6-0.2-0.9c0-0.1,0-0.2,0-0.3c0-0.2,0-0.4,0-0.6     c0-0.2,0.1-0.5,0.1-0.7C12.2,5.1,12.6,4.6,13,4.2z M12.7,7.4c0,0.1,0,0.2,0,0.3C12.8,8.1,12.9,8.6,13,9c0.1,0.3,0,0.6,0,0.9     c0,0.3-0.1,0.5-0.2,0.8c-0.1,0.3-0.1,0.7-0.3,1c-0.1,0.2-0.2,0.5-0.3,0.7c-0.1,0.1-0.1,0.3-0.1,0.5c0-0.1,0.1-0.2,0.2-0.3     c0.1-0.2,0.2-0.3,0.4-0.5c0.1-0.2,0.2-0.4,0.3-0.7c0.2-0.6,0.3-1.2,0.2-1.8C13.3,8.9,13,8.1,12.7,7.4C12.7,7.5,12.7,7.4,12.7,7.4     z"></path></g><g><path class="st1" d="M10.2,5.7c0.1,0,0.1,0,0.2,0.1c0.2,0.1,0.3,0.3,0.4,0.5c0.2,0.4,0.4,0.8,0.6,1.2c0.2,0.4,0.3,0.7,0.4,1.1     c0.1,0.5,0.1,1.1,0.1,1.7c0,0.4-0.1,0.8-0.2,1.3c-0.2,0.8-0.6,1.6-0.7,2.5c0,0.3,0,0.5,0.1,0.8c0,0.3,0,0.7,0,1     c0,0.4-0.1,0.8-0.3,1.2c-0.1,0.2-0.3,0.3-0.4,0.4c0-0.1,0-0.2,0-0.3c-0.1-0.8-0.2-1.6-0.6-2.3c-0.2-0.3-0.3-0.7-0.5-1     c-0.3-0.7-0.5-1.4-0.6-2.2c0-0.2,0-0.4,0-0.6c0-0.3,0.1-0.7,0.2-0.9c0.1-0.1,0.1-0.2,0.2-0.2c0,0,0.1,0,0.1,0     c0,0.1-0.1,0.2-0.1,0.3c0,0.1,0,0.2,0,0.4c0,0,0.1-0.1,0.1-0.1c0.3-0.4,0.5-0.7,0.7-1.1c0.2-0.4,0.4-0.8,0.4-1.2     c0-0.1,0-0.3,0-0.4c0-0.5-0.1-1-0.2-1.5C10.3,5.9,10.2,5.8,10.2,5.7z M11,9.8c-0.1,0.3-0.3,0.6-0.5,0.8c-0.2,0.3-0.4,0.5-0.5,0.8     c-0.1,0.2-0.2,0.4-0.2,0.7c0,0.1-0.1,0.1-0.1,0.1c-0.2-0.1-0.3-0.2-0.4-0.3c0,0.1,0,0.2,0.1,0.3c0,0.2,0.1,0.3,0.2,0.5     c0.3,0.4,0.6,0.8,0.8,1.3c0.2,0.4,0.3,0.7,0.4,1.1c0-0.3,0-0.6-0.1-0.9c0-0.3,0-0.6-0.1-0.9c0-0.2,0-0.3,0-0.5     c0.1-0.6,0.3-1.2,0.5-1.8c0.1-0.4,0.1-0.8,0.1-1.2c0-0.1,0-0.2-0.1-0.3C11.1,9.6,11.1,9.7,11,9.8z"></path></g><g><path class="st1" d="M15.8,11.4c0.2,0.1,0.3,0.3,0.4,0.5c0.2,0.4,0.2,0.8,0.3,1.2c0,0.4,0,0.9-0.2,1.3c-0.1,0.2-0.3,0.4-0.5,0.5     c-0.2,0.2-0.3,0.3-0.5,0.5c-0.2,0.2-0.4,0.5-0.6,0.7c-0.1,0.1-0.1,0.3-0.2,0.4c-0.1,0.2-0.1,0.4-0.2,0.6c0,0.1-0.1,0.1-0.2,0.1     C14,16.8,14,16.4,14,16c0-0.8,0.3-1.6,0.8-2.2c0,0,0.1-0.1,0.1-0.1c0.1,0.1,0,0.2,0,0.3c0.2-0.3,0.4-0.7,0.6-1     C15.7,12.5,15.9,11.9,15.8,11.4z M15.9,13.8c-0.2,0.4-0.5,0.8-0.9,1c-0.3,0.2-0.5,0.5-0.6,0.8l0,0c0,0,0,0,0,0     c0,0,0.1-0.1,0.1-0.1c0.2-0.2,0.4-0.4,0.6-0.5c0.2-0.1,0.3-0.3,0.5-0.4c0.1-0.1,0.2-0.2,0.3-0.3c0,0,0.1-0.1,0.1-0.1     C15.9,13.9,15.9,13.8,15.9,13.8L15.9,13.8z"></path></g><g><path class="st1" d="M14,11.5c0,0,0.1,0.1,0.1,0.1c0.2,0.3,0.2,0.7,0.3,1c0,0.3,0,0.7,0,1c-0.1,0.7-0.2,1.3-0.4,2     c-0.1,0.3-0.1,0.5-0.3,0.7c-0.2,0.4-0.3,0.7-0.5,1.1c-0.1,0.3-0.2,0.5-0.3,0.8c0,0.1-0.1,0.3-0.1,0.4c0,0.2,0,0.4,0,0.5     c0,0,0,0.1,0,0.1c-0.1,0-0.2-0.2-0.4-0.2c0,0.1,0.1,0.3,0.2,0.4c0,0.1,0.1,0.2,0.1,0.4c0,0,0,0,0,0c-0.1-0.1-0.2-0.1-0.3-0.2     c-0.2-0.2-0.4-0.3-0.5-0.5c-0.3-0.3-0.4-0.7-0.5-1.1c-0.1-0.5-0.2-0.9-0.2-1.4c0-0.2,0-0.3,0.1-0.5c0.1-0.4,0.3-0.7,0.4-1.1     c0-0.1,0.1-0.2,0.1-0.2c0.1-0.1,0.1-0.2,0.2-0.4c0.2-0.4,0.5-0.7,0.8-1c0.3-0.3,0.5-0.6,0.7-1C13.8,12.3,13.9,11.9,14,11.5z      M13,14.9c-0.1,0.1-0.2,0.2-0.3,0.3c-0.2,0.2-0.4,0.4-0.6,0.6c-0.2,0.3-0.3,0.6-0.3,0.9c0,0.4,0.1,0.8,0.3,1.1     c0.1,0.2,0.2,0.3,0.3,0.4c-0.1-0.3-0.1-0.7,0.1-1.1c0-0.1,0.1-0.1,0.1-0.2c-0.2,0.1-0.2,0.2-0.4,0.3c0,0-0.1,0-0.1-0.1     c0-0.2-0.1-0.4,0-0.6c0.1-0.2,0.2-0.3,0.4-0.5c0.1-0.1,0.2-0.2,0.3-0.4c0.3-0.4,0.5-0.8,0.7-1.2c0.1-0.1,0.1-0.3,0.1-0.5     C13.4,14.5,13.2,14.7,13,14.9z"></path></g><g><path class="st1" d="M6.3,11.9c0.3-0.1,0.6-0.2,0.8-0.1C7.5,11.8,7.8,12,8,12.1c0.3,0.3,0.7,0.6,0.9,1c0.4,0.6,0.6,1.3,0.7,2     c0,0.2,0.1,0.5,0.1,0.7l0,0c0,0.3,0.1,0.5,0.1,0.8c0,0.3,0.1,0.6,0.1,1c0,0.4,0.2,0.8,0.4,1.2c0.1,0.2,0.3,0.5,0.4,0.7     c-0.1,0-0.2-0.1-0.3-0.1c-0.3-0.2-0.5-0.4-0.7-0.7c-0.2-0.2-0.3-0.4-0.5-0.5c-0.2-0.2-0.4-0.5-0.5-0.8c-0.1-0.2-0.2-0.5-0.4-0.7     c-0.1-0.1-0.1-0.2-0.2-0.3c-0.1-0.1-0.1-0.3-0.2-0.5c-0.1-0.3-0.2-0.5-0.3-0.8c-0.1-0.2-0.2-0.4-0.2-0.6c0-0.1,0-0.1,0-0.2     c0-0.1,0.1-0.1,0.2-0.1c0.1,0.1,0.2,0.2,0.3,0.3c0-0.2-0.1-0.4-0.1-0.5c0-0.2-0.1-0.4-0.1-0.6c-0.1-0.4-0.3-0.8-0.6-1     C7,12.1,6.7,12,6.3,11.9z M8.9,15c0,0.1,0,0.1,0,0.2c0,0.2,0,0.4,0,0.6c0,0.1,0,0.1-0.1,0.2c0,0-0.1,0-0.1,0     c-0.1,0-0.2-0.1-0.3-0.1c0,0.2,0.1,0.3,0.2,0.5c0.1,0.4,0.3,0.7,0.6,1c0-0.2-0.1-0.4-0.1-0.7l0,0c0-0.3-0.1-0.6-0.1-0.9     C9,15.5,9,15.2,8.9,15z"></path></g><g><path class="st1" d="M17.4,13.6C17.4,13.5,17.4,13.5,17.4,13.6c0.1,0,0.1,0.1,0.1,0.1c0,0.4,0,0.8-0.1,1.3c0,0.3-0.1,0.6-0.2,0.8     c-0.1,0.2-0.2,0.3-0.3,0.4c-0.3,0.3-0.6,0.5-0.9,0.7c-0.1,0.1-0.3,0.1-0.4,0.1c0-0.3,0.1-0.6,0.1-0.9c0.1-0.3,0.2-0.7,0.4-0.9     c0.2-0.2,0.4-0.4,0.7-0.6C17.1,14.3,17.1,13.9,17.4,13.6z M16.3,15.8c-0.1,0.1-0.1,0.3-0.1,0.4c0.2-0.1,0.4-0.2,0.6-0.4     c0.1-0.1,0.1-0.2,0.1-0.4C16.6,15.4,16.4,15.6,16.3,15.8z"></path></g><g><path class="st1" d="M6.4,13.9c0,0,0.1,0,0.1,0.1c0.1,0.4,0.2,0.8,0.5,1.2c0.1,0.1,0.2,0.2,0.2,0.3c0.4,0.5,0.8,0.9,1.2,1.4     c0.1,0.1,0.2,0.3,0.3,0.4C8.8,17.6,9,18,9.3,18.4c0.2,0.4,0.5,0.7,0.8,1c-0.2-0.1-0.4-0.2-0.6-0.3c-0.7-0.4-1.4-0.9-1.9-1.5     c-0.2-0.3-0.4-0.7-0.6-1.1c-0.2-0.4-0.4-0.8-0.5-1.3c-0.1-0.4-0.2-0.8-0.2-1.2C6.3,14,6.3,13.9,6.4,13.9z M7.9,17.2     c0,0.1,0.1,0.2,0.1,0.3c0.2,0.3,0.4,0.5,0.6,0.7c0-0.1,0-0.2-0.1-0.2C8.4,17.6,8.1,17.4,7.9,17.2z"></path></g><g><path class="st1" d="M15.1,16.2c0.1,0,0.2,0.1,0.2,0.2c0.1,0.3,0,0.7,0,1c-0.1,0.4-0.2,0.8-0.5,1.1c-0.3,0.3-0.6,0.6-1,0.9     c-0.1,0.1-0.2,0.2-0.4,0.2c0,0-0.1,0-0.1,0c-0.1-0.1-0.1-0.3-0.1-0.4c0-0.3,0.1-0.7,0.2-1c0.1-0.2,0.1-0.4,0.2-0.6     c0-0.1,0.1-0.1,0.2-0.1c0.1,0,0.1,0.1,0.1,0.1c0.3-0.1,0.6-0.3,0.8-0.5C14.9,16.8,15.1,16.5,15.1,16.2z M13.9,18.4     c-0.1,0.1-0.1,0.1-0.2,0.2c-0.1,0-0.1,0-0.2,0c0,0.1-0.1,0.2-0.1,0.3c0,0.1,0.2,0.1,0.2,0c0.1-0.1,0.1-0.2,0.2-0.2     c0.2-0.1,0.4-0.3,0.5-0.4c0.1,0,0.1-0.1,0.1-0.2c0-0.1,0.1-0.2,0.1-0.3C14.5,18.1,14.2,18.2,13.9,18.4z"></path></g><g><path class="st1" d="M10,16.5c0-0.1,0.1-0.1,0.1-0.1c0,0.1,0,0.2,0,0.2c0.1,0.4,0.2,0.9,0.5,1.2c0.1,0.2,0.2,0.3,0.4,0.4     c0.2,0.1,0.4,0.2,0.5,0.3c0.1,0.1,0.2,0.3,0.3,0.5c0,0.2,0,0.3-0.1,0.4c-0.1,0.1-0.3,0.1-0.4,0c-0.3-0.1-0.5-0.3-0.7-0.5     c-0.2-0.3-0.4-0.7-0.5-1C10,17.6,10,17,10,16.5z M11,19c0.1,0.1,0.1,0.2,0.2,0.3c0,0,0.1,0.1,0.1,0.1c0.1-0.1,0.1-0.2,0-0.2     C11.3,19,11.2,18.9,11,19z"></path></g></g></svg>
