<svg viewBox="0 0 24 24"><path d="M 11.921875,1.6875 A 4.19,4.19 0 0 0 8.2792969,3.5195312 4.07,4.07 0 0 0 9,9.2109375 16.34,16.34 0 0 0 10.550781,10.529297 C 9.6007822,8.9992984 10.420001,7.2003116 11,6.3203125 A 0.6,0.6 0 0 1 11.810547,6.140625 l 0.09766,0.076172 a 0.59,0.59 0 0 1 0.08203,0.7128906 3.36,3.36 0 0 0 -0.541015,2.8496094 c 0.389999,-0.999999 0.481328,-1.1000009 0.861328,-2 A 5.94,5.94 0 0 1 15.699219,4.359375 4.07,4.07 0 0 0 14.189453,2.4707031 4.19,4.19 0 0 0 11.921875,1.6875 Z m 5.947266,3.9121094 A 4.05,4.05 0 0 0 13.820312,8.2792969 16.25,16.25 0 0 0 13,10.160156 c 1.209999,-1.3899984 3.159923,-1.1599214 4.169922,-0.9199216 a 0.6,0.6 0 0 1 0.429687,0.75 l -0.03125,0.082032 a 0.58,0.58 0 0 1 -0.667968,0.328125 3.37,3.37 0 0 0 -2.861329,0.359375 c 1.339999,0.05 1.380158,0.120937 2.410157,0.210937 a 6.18,6.18 0 0 1 4.210937,2 A 4.07,4.07 0 0 0 21.820312,11 4.18,4.18 0 0 0 19,5.8300781 4.05,4.05 0 0 0 17.869141,5.5996094 Z M 5.5800781,6.3808594 A 4.12,4.12 0 0 0 3.6503906,7.1992188 4.2,4.2 0 0 0 2.859375,13.080078 4.06,4.06 0 0 0 8.5,14.140625 15.71,15.71 0 0 0 10.230469,13.080078 c -1.7599985,0.44 -3.2308603,-0.899454 -3.8808596,-1.689453 a 0.6,0.6 0 0 1 0.089844,-0.861328 L 6.9003906,10.220703 6.5195312,10.480469 A 0.61,0.61 0 0 1 7.2597656,10.609375 3.33,3.33 0 0 0 9.7890625,12 C 8.8490634,11.250001 8.7895305,11.129452 8.0195312,10.439453 A 6.72,6.72 0 0 1 5.5800781,6.3808594 Z M 12,10.75 A 1.25,1.25 0 0 0 10.75,12 1.25,1.25 0 0 0 12,13.25 1.25,1.25 0 0 0 13.25,12 1.25,1.25 0 0 0 12,10.75 Z m 2.179688,1.490234 c 1.679998,0.68 2.07039,2.610626 2.15039,3.640625 A 0.6,0.6 0 0 1 15.75,16.529297 H 15.66016 A 0.6,0.6 0 0 1 15.199219,16 3.42,3.42 0 0 0 14,13.390625 c 0.28,0.999999 0.250703,1.159376 0.470703,2.109375 a 6.39,6.39 0 0 1 -0.640625,4.810547 4.2,4.2 0 0 0 6.289063,-3.740235 4.06,4.06 0 0 0 -3.939453,-4.169921 15.32,15.32 0 0 0 -2,-0.160157 z M 12.460938,14 c -0.13,1.799998 -1.840783,2.769922 -2.8007818,3.169922 A 0.61,0.61 0 0 1 8.859375,16.810547 v 0.04883 L 8.830078,16.755861 a 0.61,0.61 0 0 1 0.359375,-0.646484 3.45,3.45 0 0 0 2.080078,-1.910156 c -0.829999,0.539999 -1.000313,0.580313 -1.8203123,1.070312 A 6.62,6.62 0 0 1 4.640625,16.199219 4.19,4.19 0 0 0 10.150391,20.960938 4.06,4.06 0 0 0 12.929688,16 16,16 0 0 0 12.460938,14 Z" /></svg>