<svg xmlns="http://www.w3.org/2000/svg" xmlns:xlink="http://www.w3.org/1999/xlink" viewBox="0 0 24 24"><defs><symbol id="a" viewBox="0 0 48 48"><rect width="48" height="48" fill="none"></rect></symbol></defs><use width="48" height="48" transform="scale(0.5)" xlink:href="#a"></use><circle cx="12" cy="12" r="1.25"></circle><path d="M11.81,6.14l0,0,.43.34-.36-.29,0,0a.59.59,0,0,1,.11.74,3.36,3.36,0,0,0-.54,2.85c.39-1,.48-1.1.86-2a5.94,5.94,0,0,1,3.39-3.42,4.07,4.07,0,0,0-1.51-1.89A4.19,4.19,0,0,0,8.28,3.52,4.07,4.07,0,0,0,9,9.21a16.34,16.34,0,0,0,1.55,1.32C9.6,9,10.42,7.2,11,6.32A.6.6,0,0,1,11.81,6.14Z" transform="translate(0 0)"></path><path d="M6.35,11.39a.6.6,0,0,1,.09-.86l0,0,.46-.31-.38.26,0,0a.61.61,0,0,1,.74.13,3.33,3.33,0,0,0,2.53,1.39c-.94-.75-1-.87-1.77-1.56A6.72,6.72,0,0,1,5.58,6.38a4.12,4.12,0,0,0-1.93.82,4.2,4.2,0,0,0-.79,5.88A4.06,4.06,0,0,0,8.5,14.14a15.71,15.71,0,0,0,1.73-1.06C8.47,13.52,7,12.18,6.35,11.39Z" transform="translate(0 0)"></path><path d="M12.93,16a16,16,0,0,0-.47-2c-.13,1.8-1.84,2.77-2.8,3.17a.61.61,0,0,1-.8-.36l0,.05-.15-.53.12.44a.08.08,0,0,1,0,0,.61.61,0,0,1,.36-.66,3.45,3.45,0,0,0,2.08-1.91c-.83.54-1,.58-1.82,1.07a6.62,6.62,0,0,1-4.81.93,4.19,4.19,0,0,0,5.51,4.76A4.06,4.06,0,0,0,12.93,16Z" transform="translate(0 0)"></path><path d="M16.18,12.4a15.32,15.32,0,0,0-2-.16c1.68.68,2.07,2.61,2.15,3.64a.6.6,0,0,1-.58.65h0l-.55,0,.46,0h0A.6.6,0,0,1,15.2,16,3.42,3.42,0,0,0,14,13.39c.28,1,.25,1.16.47,2.11a6.39,6.39,0,0,1-.64,4.81,4.2,4.2,0,0,0,6.29-3.74A4.06,4.06,0,0,0,16.18,12.4Z" transform="translate(0 0)"></path><path d="M17.17,9.24a.6.6,0,0,1,.43.75s0,0,0,0l-.19.51.16-.43v0a.58.58,0,0,1-.67.33,3.37,3.37,0,0,0-2.86.36c1.34.05,1.38.12,2.41.21a6.18,6.18,0,0,1,4.21,2A4.07,4.07,0,0,0,21.82,11,4.18,4.18,0,0,0,19,5.83a4.05,4.05,0,0,0-5.18,2.45A16.25,16.25,0,0,0,13,10.16C14.21,8.77,16.16,9,17.17,9.24Z" transform="translate(0 0)"></path></svg>
