<svg viewBox="0 0 24 24" ><path d="M12,2C6.5,2,2,6.5,2,12s4.5,10,10,10s10-4.5,10-10S17.5,2,12,2z M4.9,6.3c0.8-1,2-1.6,3.2-2   c1-0.3,2.2-0.4,3.2-0.2c1.2,0.2,2.4,0.8,3.3,1.7c1,1,1.6,2.4,1.7,3.8c0.2,1.4-0.1,3-0.9,4.2c-0.2,0.3-0.4,0.6-0.6,0.8   c0-0.7-0.1-1.5-0.6-2c0-0.1,0-0.2-0.1-0.2c-0.1,0-0.2,0-0.3,0c0.1-0.1,0.3-0.2,0.4-0.4c0.2-0.2,0.2-0.5,0.2-0.7   c0-0.2-0.1-0.3-0.2-0.4c-0.1-0.2-0.3-0.2-0.4-0.4c0,0,0,0.1,0,0.1c-0.2-0.1-0.4-0.2-0.6-0.1c-0.2,0.1-0.5,0.1-0.8,0   c0,0.1,0.1,0.2,0.1,0.2c-0.2,0-0.3,0.1-0.3,0.3c0,0,0.1,0,0.2-0.1c-0.2,0.1-0.1,0.3-0.2,0.5c0,0,0.1-0.1,0.1-0.1c0,0.1,0,0.2,0,0.3   c0,0.1-0.1,0.2-0.2,0.3c0,0,0.1,0.1,0.1,0.1c0,0.1,0,0.1,0,0.2c0,0,0,0.1,0,0.1c0,0,0,0,0.1,0.1c0,0.1,0,0.2,0.1,0.2   c0.1,0,0.3,0,0.4,0c0,0.1,0.1,0.1,0.1,0.2c-0.3,0.3-0.6,0.6-1.1,0.7c-0.1-0.1-0.3-0.2-0.5-0.2c-0.2,0-0.4,0.1-0.5,0.3   c-0.3,0-0.6-0.1-0.8-0.3c-0.1-0.1-0.3-0.2-0.4-0.2c-0.1,0-0.2-0.1-0.2-0.2c0,0-0.1,0.1-0.1,0.1c-0.9-1.5-2.1-2.8-3.6-3.7   c-0.6-0.4-1.3-0.8-2-1.1C4.1,7.4,4.5,6.8,4.9,6.3z M13.2,15.1c-0.3-0.3-0.5-0.6-0.7-0.9c0.2-0.1,0.3-0.1,0.5-0.2   C13.2,14.4,13.2,14.8,13.2,15.1z M11.9,16c-0.4,0.2-0.7,0.4-1.1,0.7c-0.1-0.3,0.1-0.6,0.2-0.9c0.1,0,0.3,0,0.3-0.1   c0-0.3,0.1-0.5,0.1-0.8C11.7,15.3,11.8,15.6,11.9,16z M10.8,14c0,0.1,0,0.1-0.1,0.2c-0.1,0-0.3,0-0.4-0.1c-0.1-0.1-0.2-0.1-0.3-0.1   c0,0-0.1,0-0.1,0c0-0.1-0.1-0.2-0.1-0.2c0.1,0,0.3,0,0.4,0C10.4,13.9,10.6,14,10.8,14z M18.2,18.6c-0.9,0.9-2,1.5-3.2,2   c-1.6,0.6-3.4,0.7-5.1,0.3c-1.2-0.3-2.3-0.8-3.3-1.5c-1.1-0.8-2.1-1.9-2.7-3.2c-1.3-2.4-1.3-5.4-0.2-7.9c1.5,0.7,2.9,1.7,4,2.9   c0.6,0.6,1.1,1.3,1.5,2.1c-0.1,0-0.1,0.1-0.2,0.1c0,0.1,0.1,0.2,0.1,0.3c0.1,0.1,0.2,0.2,0.3,0.3c0.1,0.1,0.1,0.2,0.1,0.4   c-0.1,0.1-0.1,0.1-0.2,0.2c0.1,0.2,0.2,0.3,0.4,0.4c0.1,0.1,0.1,0.3,0.1,0.4c0.1,0.1,0.2,0,0.2-0.1c0-0.1,0-0.2-0.1-0.3   c0.1-0.1,0.3-0.1,0.4-0.2c-0.1,0.2-0.1,0.5-0.2,0.7c-0.1,0.1,0.1,0.2,0.1,0.2c-0.1,0.3-0.1,0.6-0.3,0.9c-0.1,0.1-0.3,0.2-0.4,0.3   C9.6,17,9.4,17,9.2,16.9c0,0.1,0,0.1,0,0.2c-0.6,0-1.2,0-1.8-0.2c0.9,0.6,1.9,0.9,2.9,1.1c0,0.1-0.1,0.1-0.1,0.2   c0,0.1,0.1,0.1,0.1,0.1c-0.1,0.2-0.1,0.3-0.2,0.5C10,19,9.8,19.2,9.7,19.3c-0.1,0.1-0.2,0.2-0.4,0.3c-0.1,0.1-0.2,0-0.3,0.1   c0,0,0,0.1,0,0.1C9.1,19.8,9.2,20,9.4,20c0.3,0,0.5-0.2,0.8-0.3c0.1,0,0.3,0,0.4-0.1c0.1-0.2-0.1-0.4,0-0.5   c0.1-0.2,0.1-0.3,0.3-0.5c0.1-0.1,0.2,0,0.3-0.1c0.1-0.1,0.1-0.3,0.1-0.4c1.9,0,3.7-0.7,5.1-1.9c1.1-0.9,1.9-2.1,2.3-3.4   c0.5-1.4,0.4-3,0-4.4c-0.3-1-0.9-2-1.6-2.8c-1-1-2.2-1.7-3.6-2.1C11.6,3.1,9.6,3.3,7.8,4C7.4,4.2,7.1,4.4,6.7,4.6   C8.1,3.5,10,3,11.8,2.9h0.5c0.2,0,0.4,0,0.6,0c1.4,0.1,2.8,0.6,4,1.4c0.9,0.6,1.7,1.4,2.4,2.3c0.8,1.1,1.4,2.4,1.6,3.8   c0.3,1.6,0.1,3.3-0.5,4.9C20,16.5,19.2,17.7,18.2,18.6z"></path></svg>
