<svg viewBox="0 0 24 24" ><path d="M8.4,3C8.7,2.7,9,2.1,9.5,2.1c0.1,0.2,0,0.3,0,0.5C9.7,2.7,9.6,3,9.6,3.1c1.9-0.5,4-0.4,5.8,0.3     c1.3,0.5,2.4,1.3,3.3,2.2c0.1,0,0.1,0,0.1,0c0,0.1,0.1,0.1,0.1,0.3c0.1-0.1,0.3-0.3,0.4-0.4l0.1,0.1c0.1-0.2,0.3-0.4,0.4-0.4     c0,0.5-0.3,0.9-0.6,1.3c0.1,0.1,0.1,0.1,0.1,0.2C19.7,7.1,20,7.6,20.3,8c1.3,2.6,1.2,5.8-0.1,8.3c-0.6,1.2-1.5,2.2-2.6,3     c0.3,0.3,0.5,0.6,0.8,1c0.2,0.2,0.4,0.3,0.6,0.6c-0.6-0.1-1-0.6-1.4-1c-0.1-0.1-0.3-0.2-0.4-0.3c-1.6,1.2-3.6,1.7-5.6,1.6     c-1.5-0.1-3-0.6-4.3-1.3c-0.5,0.3-1,0.6-1.5,0.9c0.1,0.2,0.1,0.4,0.1,0.6c-0.4,0.1-0.9,0.2-1.3,0.3c-0.4,0.1-0.8,0.3-1.3,0.4     c0.3-0.3,0.6-0.4,0.9-0.7c0.4-0.3,0.7-0.6,1-1c0.3-0.1,0.4,0.1,0.6,0.3c0.4-0.3,1-0.6,1.5-0.8c-1.7-1-2.9-2.7-3.7-4.5     C2.9,13.6,2.7,12,3,10.4C3,9.6,3.4,8.8,3.7,8.1C4,7.4,4.5,6.8,4.9,6.2c0.5-0.8,1.3-1.3,2-1.9C7.1,4.2,7.4,4.1,7.6,4     C7.8,3.6,8,3.3,8.4,3z M9.6,4.7C9.6,4.9,9.8,5.1,9.8,5.3c0,0.1-0.1,0.3-0.1,0.4c0.1,0.1,0.1,0.2,0.1,0.3C9.8,6.1,9.8,6.2,9.7,6.4     c0.1,0,0.1,0.1,0.2,0.1C10,6.7,9.9,7,9.8,7.2c0.2,0.2,0.4,0.4,0.4,0.7c0.3,0,0.4,0.2,0.4,0.4C10.9,8.5,11,8.6,11,8.9     c0.1,0.1,0.3,0.2,0.3,0.4c0.2,0.1,0.2,0.3,0.2,0.5c0.4-0.3,0.8-0.4,1.3-0.6c0.9-0.5,1.9-0.8,2.9-1.1c0.6-0.1,1-0.6,1.4-1     c0.1-0.1,0.3-0.2,0.5-0.3c-0.5-0.6-1.2-1-1.8-1.3C15.2,5,14.6,4.8,14,4.6c-1-0.3-2-0.3-3.1-0.2C10.5,4.5,10,4.5,9.6,4.7z      M4.5,10.2c-0.3,1.2-0.3,2.4-0.1,3.6c0.3,0.9,0.6,1.8,1.1,2.6c0.6,0.8,1.2,1.5,2,2c0.3,0.2,0.6,0.4,0.9,0.5     c0.4-0.2,0.7-0.4,1.1-0.6c-0.4-0.4-0.9-0.8-1.4-1.2c-0.5-0.3-1-0.6-1.4-1c-0.1-0.1-0.3-0.2-0.3-0.4c0-0.2-0.1-0.3-0.1-0.5     c-0.1-0.1-0.1-0.1-0.1-0.2c-0.1-0.3,0-0.4,0-0.7c0.1,0.1,0.1,0.1,0.1,0.1c0-0.1,0-0.2,0-0.3c0.2-0.3,0.2-0.6,0.2-0.8     c0.1,0,0.1,0,0.1,0.1c-0.1-0.1-0.1-0.3-0.2-0.4c0.1-0.1,0.1-0.2,0.1-0.3c0.1,0.1,0.3,0.3,0.3,0.4c0.1,0,0.2,0.1,0.3,0.2     c0.3-0.5,0.6-1,0.6-1.5c-0.2-0.3-0.5-0.5-0.8-0.7c-0.4-0.4-0.8-0.6-1.2-1.1C5.5,9.6,5.6,9.2,5.7,8.8c0.1-0.5,0.1-1,0.3-1.5     C5.4,8,4.8,9.1,4.5,10.2z M17.4,8.2c-0.1,0.3-0.4,0.4-0.6,0.5c-0.1,0.3-0.4,0.4-0.6,0.6c-0.1,0.2-0.3,0.3-0.4,0.4     c-0.1,0.4-0.4,0.8-0.7,1.1c-0.1,0.3-0.3,0.6-0.5,0.7c-0.1,0.2-0.3,0.4-0.4,0.5c-0.2,0.1-0.2,0.3-0.3,0.5c0,0.1-0.1,0.3-0.1,0.4     c-0.1,0.1-0.1,0.2-0.1,0.3c-0.1,0.1-0.1,0.3-0.3,0.4c0.4,0.2,0.8,0.4,1.1,0.8c0.2,0.3,0.4,0.5,0.7,0.7c0.2-0.1,0.4-0.2,0.6-0.3     c0.1-0.1,0.1-0.3,0.2-0.3c0.3-0.2,0.7-0.4,1-0.5c-0.1,0.1-0.3,0.3-0.4,0.4c0.4-0.2,0.8-0.4,1.2-0.6c0.3-0.2,0.3-0.6,0.4-0.8     c0.1-0.1,0.3-0.3,0.4-0.3c0.4-0.3,0.9-0.4,1.3-0.7c0-0.6-0.1-1.2-0.3-1.8c-0.3-0.9-0.6-1.8-1.2-2.5C18,7.9,17.8,8.1,17.4,8.2z      M19.7,12.2c-0.1,0.1-0.3,0.3-0.4,0.4c0.1-0.1,0.3-0.1,0.4-0.2C19.7,12.3,19.7,12.2,19.7,12.2z M19.2,13.1c0.1,0,0.3,0,0.4,0     c0.1-0.1,0.1-0.4,0.1-0.6C19.5,12.7,19.2,12.8,19.2,13.1z M18.8,13.8c-0.3,0.2-0.6,0.1-1,0.1c-0.3,0-0.4,0.1-0.6,0.3     c-0.3,0.2-0.6,0.3-0.8,0.5c0.3,0,0.4-0.1,0.6-0.1c-0.4,0.2-0.7,0.4-1,0.6c-0.3,0-0.6,0-0.8,0.2c0.1,0.2,0.3,0.4,0.4,0.6     c0.4,0.7,0.8,1.3,1.2,2c0.2-0.1,0.3-0.3,0.5-0.4c0.7-0.6,1.2-1.5,1.7-2.3c0.3-0.6,0.5-1.3,0.6-1.9C19.4,13.6,19.1,13.7,18.8,13.8     z M8.7,14.7c-0.1,0.5,0.2,1,0.3,1.4c0.1,0.2,0.1,0.3,0.2,0.5c0.3,0.4,0.6,0.9,1,1.3c0.8-0.5,1.7-1,2.6-1.4     c-0.1-0.7-0.3-1.3-0.7-1.9c-1,0.1-1.9,0.1-2.9-0.2C8.9,14.5,8.7,14.5,8.7,14.7z M10.3,18.2c0.2,0.3,0.4,0.6,0.6,0.8     c0.1,0.2,0.3,0.3,0.3,0.5c-0.3-0.1-0.4-0.4-0.6-0.5c0.1,0.2,0.3,0.4,0.3,0.7c0.6,0.1,1.1,0.1,1.7,0.1c0.1-0.3,0.1-0.6,0.1-1     c0.1-0.6,0.1-1.3,0.1-2C11.9,17.3,11.1,17.7,10.3,18.2z M14.5,17.7c-0.1,0.1-0.3,0.1-0.4,0.1C14,17.9,13.9,18,13.9,18     c-0.1,0.2-0.3,0.3-0.4,0.3c-0.1,0.2-0.1,0.4-0.3,0.5c0,0.4-0.3,0.6-0.4,0.9c1.2-0.1,2.4-0.6,3.5-1.2c-0.4-0.1-0.8-0.3-1-0.6     C15,17.8,14.8,17.7,14.5,17.7z M8.7,19c0.6,0.4,1.3,0.6,2.1,0.6c-0.4-0.4-0.7-0.8-1.1-1.2C9.4,18.6,9.1,18.8,8.7,19z"></path></svg>
