<?xml version="1.0" encoding="UTF-8" standalone="no"?>
<svg
   viewBox="0 0 24 24"
   data-v-fae5bece=""
   data-v-1d2bc3dd=""
   version="1.1"
   id="svg224"
   sodipodi:docname="JRRTolkien.svg"
   xml:space="preserve"
   inkscape:version="1.2.1 (2ed6d7ae0b, 2022-08-22, custom)"
   xmlns:inkscape="http://www.inkscape.org/namespaces/inkscape"
   xmlns:sodipodi="http://sodipodi.sourceforge.net/DTD/sodipodi-0.dtd"
   xmlns="http://www.w3.org/2000/svg"
   xmlns:svg="http://www.w3.org/2000/svg"><defs
     id="defs228" /><sodipodi:namedview
     id="namedview226"
     pagecolor="#505050"
     bordercolor="#ffffff"
     borderopacity="1"
     inkscape:showpageshadow="0"
     inkscape:pageopacity="0"
     inkscape:pagecheckerboard="1"
     inkscape:deskcolor="#505050"
     showgrid="false"
     inkscape:zoom="18.438181"
     inkscape:cx="13.179174"
     inkscape:cy="10.548763"
     inkscape:window-width="1366"
     inkscape:window-height="704"
     inkscape:window-x="0"
     inkscape:window-y="0"
     inkscape:window-maximized="1"
     inkscape:current-layer="svg224" /><path
     d="m 12.3,2.3 c 0,-0.1 0.2,-0.2 0.3,-0.2 0.1,0 0.2,0.1 0.2,0.2 0,0.4 0,0.9 0.1,1.3 0.1,0.2 0.1,0.4 0.2,0.6 0,0 -0.1,0.1 -0.1,0.1 0.1,0.1 0.2,0.1 0.2,0.3 0.1,0.4 0.2,0.8 0.3,1.3 0,0.2 0.2,0.4 0.2,0.6 0,0.1 0,0.3 0.1,0.3 0.3,0 0.5,0 0.8,0.1 0.3,0.1 0.7,0.1 1,0.2 0.1,0 0.2,0.1 0.3,0.1 0.2,0.1 0.4,0.1 0.6,0.2 0.2,0.1 0.4,0.2 0.6,0.2 0.1,0 0.2,-0.1 0.2,-0.1 0.1,-0.2 0.2,-0.4 0.3,-0.7 0.1,-0.6 0.1,-1.2 0.2,-1.8 0.1,-0.4 0.1,-0.8 0.2,-1.3 0.2,0.2 0.3,0.3 0.4,0.5 0.1,0.2 0.3,0.3 0.3,0.5 0.2,0.4 0.1,0.8 0.3,1.2 -0.1,0.5 -0.1,0.8 0,1.1 0,0.2 0.1,0.3 0.1,0.5 0,0.2 0,0.5 0,0.7 0,0.2 0,0.5 0.1,0.7 0.1,0.1 0.3,0.1 0.4,0.2 0.2,0.2 0.5,0.3 0.8,0.6 0.4,0.3 0.8,0.6 1.1,1.1 -0.2,0 -0.5,0 -0.7,0 0,-0.1 0.1,-0.1 0.1,-0.2 0,0 -0.1,-0.1 -0.1,-0.1 -0.1,0.1 -0.1,0.3 -0.2,0.4 0.3,0.1 0.6,0.1 0.9,0.1 0,0.2 0,0.4 0,0.5 0,0 0.1,-0.1 0.1,-0.1 0,0.1 0,0.1 0,0.2 -0.1,0 -0.3,0 -0.4,0 0.1,0.1 0.2,0.1 0.2,0.2 0,0.1 0,0.2 -0.1,0.3 0,-0.1 -0.1,-0.1 -0.1,-0.2 0,0 -0.1,0.1 -0.1,0.1 0.1,0.1 0.2,0.1 0.3,0.2 0,0.2 0,0.3 0,0.5 -0.1,-0.2 -0.1,-0.3 -0.1,-0.5 -0.1,0.2 0,0.5 -0.1,0.7 0,0 0,-0.1 0,-0.2 0,0 -0.1,0.1 -0.1,0.1 0,-0.1 0,-0.3 0,-0.4 0,-0.2 0,-0.5 0,-0.7 -0.2,0.1 -0.3,0.3 -0.4,0.5 -0.2,0.2 -0.5,0.4 -0.7,0.6 -0.2,0.1 -0.3,0.3 -0.5,0.4 -0.3,0.2 -0.6,0.3 -0.9,0.5 -0.3,0.2 -0.6,0.3 -1,0.4 -0.2,0.1 -0.4,0.2 -0.7,0.2 -0.3,0 -0.5,0.1 -0.7,0.2 -0.3,0.1 -0.5,0.1 -0.7,0.2 -0.3,0.1 -0.7,0.2 -1,0.2 -0.1,0.2 -0.1,0.5 -0.1,0.7 C 14,15.2 14,15 13.8,14.8 c -0.1,-0.1 -0.2,-0.1 -0.2,-0.1 -0.1,0.4 -0.2,0.7 -0.3,1 -0.1,0.3 -0.2,0.6 -0.2,0.9 0,0.2 -0.1,0.3 -0.1,0.4 -0.1,0.2 0,0.4 0,0.6 -0.2,0.6 -0.1,1.2 -0.4,1.8 0,0.3 -0.1,0.5 -0.1,0.8 0.1,0.3 0,0.5 -0.1,0.8 0,0.3 -0.2,0.6 -0.2,0.9 0,-0.1 -0.1,-0.2 -0.1,-0.3 -0.1,0 -0.1,0.1 -0.2,0.1 0,-0.2 -0.1,-0.5 -0.1,-0.7 0,-0.2 0,-0.4 0,-0.7 0.1,0 0.1,0 0.2,0.1 -0.1,-0.1 -0.2,-0.3 -0.2,-0.4 0,-0.2 0,-0.4 0,-0.7 0.1,0.1 0.1,0.1 0.2,0.2 0.1,-0.1 0.4,-0.2 0.5,-0.3 -0.1,0 -0.2,0.1 -0.4,0.2 -0.1,0.1 -0.2,0 -0.3,-0.1 -0.1,-0.1 0,-0.3 0,-0.4 -0.1,-0.2 -0.2,-0.4 -0.2,-0.6 0,-0.2 -0.1,-0.3 -0.1,-0.5 C 11.4,17.6 11.4,17.3 11.4,17.1 11.3,16.6 11.2,16 11,15.5 10.9,15.3 10.9,15.2 10.8,15.1 10.5,15 10.1,14.9 9.8,15 c -0.2,0 -0.3,0.1 -0.4,0.2 0,0.3 0.1,0.5 0.1,0.8 0,0.2 0,0.3 0,0.5 -0.2,0 -0.4,0.2 -0.5,0 C 9,16.4 9,16.2 9,16.1 9,15.8 9.2,15.5 9.1,15.2 9.1,15.1 9,15 9,14.9 8.9,14.9 8.8,15 8.7,15 c -0.1,-0.1 0,-0.1 0,-0.2 -0.1,0 -0.1,0.1 -0.2,0.1 0,0 0,-0.1 0,-0.1 C 8.2,14.9 7.9,14.7 7.7,14.6 7.4,14.2 7.3,14 7.1,14 6.9,13.9 6.7,13.7 6.5,13.7 6.3,13.6 6.1,13.6 5.9,13.5 5.7,13.4 5.5,13.4 5.3,13.2 5.1,13.1 5,13 4.9,12.9 4.9,13 4.8,13 4.8,13 4.9,13.2 5,13.3 5,13.4 5,13.6 5,13.7 5,13.9 4.9,14 4.8,14 4.7,13.9 4.6,13.8 4.5,13.6 4.4,13.5 c 0,0 0.1,0 0.1,0 C 4.4,13.3 4.3,13.1 4.3,12.9 4.3,12.8 4.4,12.8 4.4,12.7 4.3,12.6 4.3,12.5 4.2,12.5 4,12.4 3.9,12.5 3.7,12.4 3.6,12.3 3.5,12.2 3.4,12.1 3.4,12.1 3.3,12 3.2,12 3.1,11.8 3.1,11.7 3,11.5 3.1,11.5 3.1,11.4 3.2,11.4 3.1,11.4 3,11.3 2.9,11.3 2.7,11.1 2.5,11 2.4,10.8 2.5,10.7 2.5,10.6 2.6,10.5 2.7,10.4 2.9,10.4 3,10.3 3.4,9.9 3.8,9.7 4.3,9.4 4.5,9.3 4.6,9.2 4.8,9.1 5.1,9 5.3,8.7 5.6,8.6 5.8,8.5 5.8,8.4 5.8,8.2 5.8,7.8 5.9,7.4 5.9,7 5.9,6.6 6.1,6.2 6.2,5.7 6.3,5.4 6.5,5.1 6.6,4.8 6.7,4.7 6.8,4.6 7,4.5 6.9,4.5 6.8,4.6 6.8,4.6 6.8,4.3 7.1,4 7.4,3.8 c 0,0.2 0.2,0.4 0.2,0.7 -0.1,0 -0.1,0 -0.2,0 0.1,0.1 0.2,0.3 0.2,0.5 0,0.2 0.1,0.5 0,0.7 0,0 0.1,0.1 0.1,0.1 -0.1,0 -0.1,0.1 -0.2,0.1 0,0.1 0.1,0.3 0.1,0.4 0,0.2 -0.1,0.3 0,0.5 C 7.7,7.1 7.7,7.4 7.7,7.7 8,7.7 8.2,7.6 8.5,7.5 8.9,7.4 9.2,7.4 9.5,7.3 9.7,7.2 9.9,7 10.1,7 10.3,7 10.6,6.9 10.8,7 10.9,6.8 11,6.5 11.1,6.3 11.2,6.1 11.2,6 11.4,5.9 c 0,-0.1 -0.1,-0.2 0,-0.3 0.2,-0.7 0.3,-1.3 0.6,-2 0.1,-0.4 0.1,-0.9 0.3,-1.3 z m 0.3,1.6 c 0.1,0 0.1,0 0.2,-0.1 -0.1,0 -0.1,0 -0.2,0.1 z m -0.3,0 c 0,0.1 0.1,0.2 0,0 0.2,0.1 0.1,0 0,0 z m -0.8,1.8 c 0,0.1 0,0.1 0,0 0.1,0 0,0 0,0 z M 6.2,6.1 c 0,0.1 0.1,0.1 0.1,0.1 0,-0.1 0,-0.1 0.1,-0.2 0,0.1 -0.1,0.1 -0.2,0.1 z m 7.5,1.3 c -0.1,0 0,0.2 0.1,0.1 0,-0.1 -0.1,-0.2 -0.1,-0.1 z m 1.1,0.2 c -0.1,0 0,0.2 0,0.3 C 14.9,7.8 14.9,7.8 15,7.8 15,7.7 14.9,7.5 14.8,7.6 Z m 3.1,-0.1 c 0,0.1 0,0.1 0,0.2 0.1,0 0.1,0 0.2,0 -0.1,0 -0.2,-0.1 -0.2,-0.2 z m -2.3,0.2 c 0,0 0,0.1 0,0.1 0.1,0 0.1,0 0.2,0 C 15.7,7.7 15.6,7.7 15.6,7.7 Z m 1.8,0 c -0.1,0.1 0,0.2 0,0 0.1,0.1 0,0 0,0 z m 0.5,0.4 c -0.1,0 0,0.1 0,0.1 0.1,0 0.1,-0.1 0,-0.1 z M 8.6,8.4 c 0,0.1 0,0.1 0,0.2 C 8.7,8.5 8.8,8.4 8.9,8.3 8.7,8.3 8.6,8.3 8.6,8.4 Z M 6.9,8.5 c 0,0 0,0.1 0,0.1 0.1,0 0.2,0 0.2,0 0,0 -0.1,-0.1 -0.2,-0.1 z m 0.9,0.2 c 0,0 0,0.1 0,0.1 0.1,0 0.2,0 0.2,0 C 8,8.7 7.9,8.7 7.8,8.7 Z m 6.3,0.1 c 0,0.1 0.1,0.3 0.2,0.4 0.1,-0.1 0.1,-0.2 0.2,-0.2 0,0.2 0,0.3 0,0.5 0.1,-0.1 0.2,-0.1 0.3,-0.2 0,0.1 0.1,0.1 0.1,0.2 0,0.1 0,0.2 -0.1,0.1 0,-0.1 -0.1,-0.1 -0.1,-0.2 0,0.1 0,0.2 0,0.3 0.1,0 0.1,0 0.2,0 -0.1,0.1 -0.1,0.1 -0.2,0.2 0.1,0.1 0.1,0.2 0.2,0.3 -0.1,0 -0.2,-0.1 -0.3,-0.1 0,0 0,0.1 0,0.1 0.1,0 0.3,0 0.4,0.1 0.1,0 0.1,0 0.2,0 -0.1,0.1 -0.2,0.2 -0.3,0.3 0,-0.1 0,-0.2 -0.1,-0.2 -0.1,0.1 -0.1,0.3 0,0.4 0.1,0 0.2,0 0.2,0 0,0.1 0,0.2 0,0.3 0,0.1 -0.1,0.1 -0.1,0.2 0,0 0.1,0.1 0.1,0.1 -0.2,0.1 -0.3,0.1 -0.4,0.3 0.1,0.1 0.1,0.2 0.1,0.3 -0.1,0 -0.2,0 -0.3,0 0.1,0 0.1,0 0.2,0 -0.1,0.2 -0.1,0.3 -0.2,0.5 -0.1,0 -0.1,0 -0.2,0 0,-0.1 0.1,-0.2 0.2,-0.3 0,0 0,-0.1 -0.1,-0.1 -0.1,0.1 -0.2,0.3 -0.3,0.4 0.2,0 0.4,0 0.6,0 0.4,0 0.8,-0.2 1.2,-0.2 0.2,0 0.4,-0.1 0.7,-0.2 0.4,-0.1 0.7,-0.2 1,-0.5 0.4,-0.2 0.8,-0.5 1,-0.8 0.1,-0.1 -0.1,-0.2 -0.1,-0.2 C 18.1,10.4 17.9,10.2 17.5,10 17.1,9.8 16.7,9.6 16.3,9.4 16,9.3 15.8,9.2 15.5,9.1 c 0,0.2 0,0.3 -0.1,0.5 -0.2,0 -0.3,0.1 -0.5,0.1 0,0 0.1,-0.1 0.1,-0.1 C 14.9,9.5 15,9.3 14.9,9.1 14.8,8.9 14.6,8.8 14.4,8.8 c 0,0 0,0.1 0,0.1 -0.1,-0.1 -0.2,-0.1 -0.3,-0.2 0,0.1 0.1,0.2 0.1,0.3 0.1,0 0,-0.1 -0.1,-0.2 0.1,0 0,0 0,0 z m -4,0 c 0,0.1 0.1,0.1 0.1,0.2 0,-0.1 0,-0.1 -0.1,-0.2 0.1,0 0,0 0,0 z M 9.1,9 C 8.7,9.1 8.4,9.4 8,9.5 7.6,9.7 7.2,9.9 6.8,10.2 6.5,10.4 6.3,10.6 6,10.9 c 0.2,0.1 0.4,0.2 0.5,0.4 0.3,0.2 0.6,0.4 0.8,0.5 0.2,0.1 0.4,0.2 0.7,0.3 0.4,0.2 0.8,0.2 1.2,0.4 0.2,0.1 0.4,0.1 0.6,0.2 0,-0.1 0,-0.2 0,-0.3 -0.1,0 -0.1,0 -0.2,0 0,-0.1 -0.1,-0.1 -0.1,-0.2 -0.1,0 -0.1,0 -0.2,0 -0.1,-0.1 0,-0.2 0,-0.3 0.1,0 0.2,0.1 0.3,0.1 0,0 0,-0.1 0,-0.1 0.1,0 0.1,0 0.2,0.1 -0.1,-0.1 -0.1,-0.1 -0.2,-0.2 0,0 -0.1,0.1 -0.1,0.2 -0.1,-0.1 -0.1,-0.3 -0.1,-0.5 0.1,0.1 0.2,0.2 0.3,0.2 -0.1,-0.2 -0.3,-0.4 -0.6,-0.4 0,0 0.1,-0.1 0.1,-0.1 0,-0.1 0,-0.2 0.1,-0.3 0.1,0 0.2,0.1 0.3,0.1 0,0 0,0.1 0.1,0.1 0,0 0,-0.1 0,-0.1 -0.1,-0.1 -0.1,-0.1 -0.2,-0.2 0.1,-0.1 0.1,-0.2 0.1,-0.3 -0.1,0 -0.2,0 -0.3,0 0,-0.1 0.1,-0.2 0.1,-0.2 0,0 -0.1,-0.1 -0.1,-0.1 0,0.1 -0.1,0.1 -0.1,0.2 0.1,-0.2 0,-0.4 0,-0.5 0.1,-0.1 0.2,-0.2 0.2,-0.3 0,0.2 0.1,0.4 0.2,0.6 0,0 0.1,0 0.1,0 0,-0.1 -0.1,-0.1 -0.1,-0.2 0,-0.1 0,-0.2 0,-0.3 0,0 0.1,0 0.1,-0.1 0,0 0,0.1 0.1,0.1 0.1,0 0.1,-0.1 0.2,-0.1 0,0.1 -0.1,0.1 -0.1,0.2 0.1,0 0.1,0 0.2,-0.1 0,0 0,-0.1 0,-0.1 C 9.9,9.5 9.8,9.4 9.7,9.3 c 0,0 0,-0.1 0,-0.1 0,0 0.1,0 0.1,0 0,-0.1 0,-0.1 0,-0.2 C 10,9 10,9.2 10,9.3 10.1,9.2 9.9,9 9.7,8.9 c 0.1,0 0.2,0 0.2,0 C 9.9,8.9 10,8.8 10,8.8 9.7,8.9 9.4,8.9 9.1,9 Z m 1.1,0.1 c -0.1,0 0,0.1 0,0 0.1,0 0,0 0,0 z m 1.7,0.3 c -0.2,0.2 -0.2,0.4 -0.3,0.6 -0.1,0.3 -0.3,0.5 -0.2,0.8 0.1,0.2 0,0.4 0.2,0.6 0.1,0.2 0.2,0.3 0.3,0.5 0.1,0.2 0.4,0.2 0.5,0.2 0,-0.1 0.1,-0.2 0.1,-0.2 0,0 0,0.1 0.1,0.1 0.2,-0.2 0.3,-0.5 0.4,-0.8 0.1,-0.2 0.1,-0.5 0.1,-0.7 0,-0.1 0.1,-0.2 0,-0.2 C 12.9,10 12.8,9.6 12.6,9.3 12.5,9.2 12.4,9.1 12.3,9.1 12.2,9.2 12.1,9.3 11.9,9.4 Z m 1.8,-0.1 c -0.1,0.1 0,0.2 0,0 0.2,0.1 0.1,0 0,0 z m 5.7,0 c 0,0.1 -0.1,0.2 0,0.3 0.1,0.1 0.1,-0.1 0.2,-0.2 -0.1,0 -0.2,0 -0.2,-0.1 z m -5.1,0.3 c 0,0.1 0.1,0.1 0.1,0.1 0.1,-0.2 0,-0.2 -0.1,-0.1 z m 5.1,0.2 c 0,0.1 0,0.1 0,0 0.1,0 0.1,0 0,0 z m -0.2,0 c 0,0.1 -0.1,0.2 -0.1,0.3 0.1,0 0.2,0.1 0.3,0.1 0,-0.1 0,-0.2 0,-0.2 C 19.3,9.9 19.2,9.9 19.2,9.8 Z m -9.4,0.3 c -0.1,0.1 0,0.2 0,0 0.1,0.1 0,0 0,0 z m 4.1,0.3 c 0.1,0.1 0.2,0.1 0.4,0.1 0,-0.1 -0.1,-0.1 -0.1,-0.2 -0.2,0 -0.3,0.1 -0.3,0.1 z m 0.5,0.3 c 0.1,0.1 0.1,0.1 0.2,0.2 0,-0.1 -0.1,-0.2 -0.1,-0.3 0,0.1 0,0.1 -0.1,0.1 z m 5.6,0.2 c 0,0.1 0.2,0.1 0.2,0 -0.1,0 -0.2,0 -0.2,0 z m -5.5,0 c 0,0 0,0.1 0.1,0.1 0.1,0 0.1,0 0.2,0 -0.1,0 -0.2,0 -0.3,-0.1 z m 5.9,0.1 c 0,0 -0.1,0 0,0 0.1,0.1 0.2,0.2 0.3,0.3 C 20.6,11.1 20.5,11.1 20.4,11 Z M 9.7,11.1 c 0,0.1 -0.1,0.1 -0.1,0.2 0.1,0 0.2,0.1 0.3,0.1 C 9.8,11.3 9.7,11.2 9.7,11.1 Z m 4.8,0 c 0,0.1 0,0.2 0,0.3 0,0 0.1,-0.1 0.1,-0.1 -0.1,-0.1 -0.1,-0.1 -0.1,-0.2 z m 0.1,0.2 c 0.1,0.1 0.2,0.1 0.3,0.1 -0.2,-0.1 -0.2,-0.1 -0.3,-0.1 z m -10,0.2 c 0,0.1 0,0.1 0,0.2 0,-0.1 0.1,-0.1 0.1,-0.2 0,0 -0.1,0 -0.1,0 z m 8.2,0.4 c 0,0.1 0,0.1 -0.1,0.2 0.1,0 0.1,0 0.2,-0.1 0,-0.1 0,-0.1 0,-0.2 0,0.1 0,0.1 -0.1,0.1 z m -5,0.3 c 0,0 0.1,0.1 0.1,0.1 0,0 0,-0.1 0,-0.1 0,0 -0.1,0 -0.1,0 z m 3.3,0.1 c 0,0 -0.1,0.1 0,0.1 0.1,0.1 0.2,-0.1 0,-0.1 z m -4,0.3 c 0,0.1 0.1,0.1 0.2,0.1 0,-0.1 -0.1,-0.1 -0.2,-0.1 z m 0.8,0.2 c 0,0.2 0.1,0.4 0.2,0.5 0,-0.2 0,-0.4 0,-0.7 -0.1,0.1 -0.2,0.2 -0.2,0.2 z m 5.9,0.1 c 0.1,0 0.1,0 0.2,0 0,0 0,-0.1 0.1,-0.1 -0.1,0 -0.1,-0.1 -0.2,-0.1 -0.1,0 -0.1,0.1 -0.1,0.2 z m -4.7,0.2 c 0.1,0 0.1,0 0.2,0 0,-0.1 0,-0.2 0,-0.3 -0.1,0.1 -0.2,0.2 -0.2,0.3 z m 5.1,0.7 c 0,0.1 0,0.1 0,0 0.1,0 0.1,0 0,0 z m -6,0.1 c 0,0.1 0.1,0.3 0.1,0.4 0,-0.1 0.1,-0.2 0,-0.3 0,0 -0.1,0 -0.1,-0.1 z m -0.7,0.3 c 0.1,0 0.2,0 0.3,0.1 0,-0.1 -0.1,-0.1 -0.1,-0.2 0,0 0,0 -0.2,0.1 0.1,-0.1 0.1,-0.2 0.1,-0.2 0,0.1 0,0.1 -0.1,0.2 z m 7.8,0.2 c 0,-0.1 0.1,-0.2 0.1,-0.2 -0.1,0 -0.1,0.1 -0.1,0.2 z m -3,1.1 c -0.1,0.1 0,0.2 0,0 0.1,0.1 0,0 0,0 z m -0.8,1.8 c -0.1,0 -0.1,0.1 -0.1,0.1 0.1,0 0.2,-0.1 0.1,-0.1 z m 0.4,1.6 c 0,0 0,0.1 0,0.1 0.1,0 0.1,0 0.2,-0.1 0,0 0,-0.1 0,-0.1 -0.1,0.1 -0.1,0.1 -0.2,0.1 z"
     id="path747"
     style="display:inline"
     inkscape:label="impor" /></svg>
