<svg viewBox="0 0 24 24" data-v-5831562a=""><g><g><path d="M11.7,2c1.1,0,2.1,0.1,3.1,0.4c1.1,0.3,2.1,0.8,3,1.5c1.7,1.2,3,3,3.6,4.9c0.7,2.1,0.7,4.4,0,6.4     c-0.6,1.6-1.6,3.1-2.8,4.3c-1.3,1.2-2.9,2-4.6,2.3c-1.1,0.2-2.3,0.3-3.4,0.1c-1.2-0.2-2.3-0.6-3.3-1.1c-1.9-1-3.5-2.7-4.3-4.7     c-0.8-1.9-1.1-4-0.7-6c0.3-1.7,1.1-3.3,2.3-4.7c1.1-1.3,2.6-2.3,4.2-2.9C9.7,2.2,10.7,2,11.7,2z M8.5,3.2c-1,0.4-1.9,0.9-2.7,1.6     C4.5,6,3.4,7.5,2.9,9.2c-0.3,1-0.4,2-0.4,3c0,0.1,0,0.2,0,0.3c0.1,0,0.1-0.1,0.1-0.1c0-0.1,0.1-0.1,0.1-0.2c0-0.1,0-0.3,0-0.4     c0-0.1,0.2-0.1,0.2-0.1c0.1,0.1,0.2,0.3,0.3,0.5c0,0.1,0.1,0.1,0.1,0.1c0-0.1,0-0.2,0-0.3c0-0.1-0.1-0.2,0-0.3     c0.1-0.1,0.2-0.1,0.2,0c0.1,0.1,0.2,0.2,0.2,0.3C3.9,12,4,12,4,12c0.1,0,0-0.1,0-0.1c-0.1-0.2-0.2-0.3-0.2-0.5c0,0,0-0.1,0-0.2     c0.1-0.1,0.2,0,0.2,0c0.1,0.1,0.2,0.2,0.2,0.3c0.1-0.1,0.3-0.3,0.2-0.5c0-0.2-0.2-0.4-0.2-0.6c0.1-0.1,0.2-0.2,0.3-0.1     c0.2,0,0.2,0.2,0.3,0.3c0,0,0.1-0.1,0.1-0.1c0-0.2-0.2-0.4-0.3-0.5c0-0.1-0.1-0.2,0-0.2c0,0,0.1,0,0.1,0c0.2,0,0.3,0.1,0.4,0.2     c0,0,0.1,0.1,0.2,0C5.5,9.8,5.4,9.7,5.3,9.5c0-0.1-0.1-0.1-0.1-0.2c0-0.1,0.1-0.1,0.2-0.1c0.1,0,0.2,0.2,0.4,0.2     c0-0.1-0.1-0.1-0.2-0.2c0-0.1,0-0.2-0.1-0.2C5.4,8.8,5.3,8.7,5.2,8.6C5.2,8.4,5.3,8.3,5.5,8.3c0.2,0,0.3,0.1,0.5,0.2     c0.1,0,0.2,0.1,0.3,0.1c0.1,0,0.1-0.1,0.1-0.2C6.2,8.2,6.2,8,6.1,7.9C6.1,7.7,5.8,7.6,5.7,7.4c0-0.1,0.1-0.2,0.2-0.2     c0.1,0,0.2,0,0.3,0c0.2,0,0.3,0.2,0.5,0.3c0.1,0,0.2,0,0.3,0.1c0.1,0,0.2,0.1,0.3,0c0.1,0,0.1-0.1,0.1-0.2     c-0.1,0-0.2-0.1-0.2-0.2c0-0.1,0-0.1,0-0.2C7,6.9,6.9,6.8,6.7,6.7c-0.1-0.1-0.1-0.2,0-0.3C6.8,6.4,7,6.3,7.1,6.3     c0.1-0.1,0.2,0,0.3,0c0.1,0.1,0.3,0.2,0.4,0.3C7.9,6.7,8,6.7,8.2,6.8c0,0,0.1,0,0.1,0C8.2,6.7,8.1,6.6,8.1,6.5     c0-0.1,0-0.3-0.1-0.3C7.9,6,7.8,5.9,7.7,5.8c0-0.1,0.1-0.2,0.2-0.2c0.1,0,0.2,0.1,0.3,0.2c0.2,0.1,0.3,0.1,0.5,0.1     c0.1,0,0.1,0.1,0.2,0.1c0.1,0,0.2,0,0.3-0.1c0.2,0,0.3-0.2,0.5-0.2c0.2-0.1,0.3,0,0.5,0c0.1,0,0.2-0.1,0.3-0.1     c0.1-0.1,0.3-0.1,0.5-0.2c0.1,0,0.2,0,0.3,0c0.1,0,0.2-0.1,0.2-0.1C11.7,5,12,4.9,12.2,4.9c0.1,0,0.2,0.1,0.2,0.1     c0.1,0.1,0.2,0.1,0.2,0.2c0,0,0.1,0.1,0.2,0.1c0.1,0,0.3,0,0.4,0c0.1,0,0.2,0.1,0.3,0.2c0.1,0.1,0,0.2,0.1,0.2     c0,0,0.1,0.1,0.1,0.1c0,0.1,0,0.1,0,0.2c0.1,0,0.2,0,0.3,0c0.2,0,0.3,0.2,0.4,0.4c0,0.1,0.2,0.2,0.3,0.3C14.8,6.9,14.8,7,15,7.1     c0.1,0.1,0.2,0.1,0.3,0.1c0.2,0.1,0.3,0.4,0.5,0.5c0.2,0.2,0.5,0.3,0.8,0.4c0.3,0.2,0.6,0.3,0.8,0.5c0.2,0.1,0.3,0.2,0.5,0.4     c0.1,0.1,0.2,0.1,0.3,0.1c0.2,0.1,0.3,0.1,0.4,0.2c0.3,0.2,0.6,0.3,0.9,0.5c0.1,0.1,0.2,0.2,0.3,0.3c0.1,0.1,0.2,0.2,0.2,0.4     c0.2,0.1,0.3,0.3,0.4,0.5c0.1,0.2,0.3,0.4,0.3,0.7c0,0.1,0,0.2,0,0.2c-0.1,0.2-0.3,0.5-0.4,0.7c-0.1,0.2-0.2,0.4-0.4,0.4     c-0.1,0-0.2-0.1-0.3-0.1c-0.1-0.1,0-0.3-0.1-0.3c-0.1,0-0.1-0.1-0.2-0.2c-0.1,0-0.2,0.1-0.3,0.1c-0.1,0-0.1-0.1-0.1-0.2     c0,0.1,0,0.1-0.1,0.2c-0.1,0-0.1,0-0.2,0c-0.1,0-0.1-0.1-0.1-0.1c-0.1,0.1-0.2,0.1-0.3,0c-0.1,0-0.1-0.1-0.1-0.2     c-0.1,0.1-0.2,0.1-0.3,0.1c-0.2,0-0.5,0-0.7-0.1c-0.1,0-0.2-0.1-0.4-0.1c-0.2-0.1-0.5-0.1-0.8-0.2c-0.1,0-0.3-0.1-0.4-0.2     c-0.2-0.1-0.4-0.2-0.6-0.3c-0.1-0.1-0.2-0.1-0.4-0.1c-0.3,0-0.3-0.4-0.6-0.5c-0.2,0-0.3,0.1-0.4,0.1c-0.3,0-0.6-0.2-0.8-0.2     c-0.2,0-0.4,0.2-0.6,0.3c0.2,0.1,0.4,0.2,0.5,0.4c0.1,0.1,0.2,0.2,0.3,0.3c0.1,0.1,0.1,0.3,0.1,0.4c0.1,0.2,0.1,0.3,0.1,0.5     c0,0.1-0.2,0.1-0.2,0.1c-0.1,0-0.2-0.2-0.2-0.2c0,0.1-0.1,0.1-0.1,0.2c0,0.1,0.1,0.1,0.1,0.2c0.1,0.1,0,0.3,0.1,0.4     c0,0.1,0,0.2,0.1,0.3c0.1,0.2,0.2,0.3,0.3,0.5c0.1,0.1,0.2,0.2,0.4,0.4c0.3,0.2,0.5,0.5,0.8,0.8c0.2,0.2,0.3,0.3,0.5,0.5     c0.2,0.1,0.5,0.2,0.7,0.4c0.1,0.1,0.2,0.1,0.3,0.1c0.2,0.1,0.5,0.2,0.6,0.3c0.1,0.1,0.1,0.2,0.1,0.3c0,0.1-0.1,0.1-0.2,0.2     c-0.1,0-0.2,0.1-0.3,0.1c-0.2,0-0.3,0-0.5,0c-0.2,0.1-0.4,0-0.6,0c-0.4,0-0.7-0.1-1-0.4c-0.2-0.2-0.3-0.3-0.5-0.5     c-0.1-0.1-0.2-0.2-0.3-0.2c-0.1-0.1-0.2-0.2-0.3-0.4c-0.2-0.2-0.4-0.3-0.6-0.5c-0.3-0.2-0.7-0.3-1-0.5c-0.2-0.1-0.3-0.2-0.5-0.3     c-0.3-0.2-0.7-0.3-1-0.6c-0.1-0.1-0.2-0.2-0.3-0.3C9,13.3,9,13.1,8.9,12.9c-0.1-0.2-0.1-0.3-0.2-0.5c0,0.2,0,0.4-0.1,0.6     c0,0.1,0,0.2-0.1,0.3c-0.1,0.2-0.2,0.5-0.3,0.7c0-0.5,0.1-1,0.1-1.5c0,0.1-0.1,0.3-0.1,0.4c0-0.2,0-0.4-0.1-0.7     c0,0.2,0,0.3-0.1,0.5c0,0.2-0.1,0.4-0.1,0.7c0,0.1,0,0.1,0,0.2c-0.1,0.3-0.2,0.5-0.3,0.8c0-0.5,0-1,0-1.5l0,0     c-0.2,0.3-0.3,0.6-0.4,1c-0.1,0.1-0.1,0.3-0.2,0.4c-0.1,0.2-0.3,0.5-0.4,0.8c0-0.3,0.1-0.5,0.1-0.8C6.9,14,7,13.8,7,13.7     c-0.1,0-0.1,0.1-0.1,0.2c-0.1,0.2-0.1,0.3-0.2,0.5c0,0.2,0,0.3,0,0.5c0-0.1-0.1-0.1-0.1-0.2c0,0,0,0,0,0c-0.2,0.3-0.4,0.6-0.6,1     c-0.1,0.2-0.1,0.4-0.2,0.5c0-0.2,0-0.5,0.1-0.7c0.1-0.2,0.2-0.5,0.3-0.7c0.1-0.2,0.2-0.3,0.3-0.5c0-0.1,0-0.2-0.1-0.3     c-0.1-0.1-0.1-0.3-0.2-0.4c-0.1,0.4-0.1,0.8-0.2,1.2c0,0.1-0.2,0.2-0.2,0.3c-0.1,0.2-0.2,0.4-0.3,0.6c-0.1,0.2-0.1,0.4-0.2,0.6     c0-0.4,0-0.8,0.1-1.2c0-0.1,0.1-0.2,0.1-0.3c0-0.2,0-0.5-0.1-0.7c0-0.1,0-0.2-0.1-0.1c0,0.2,0,0.4,0,0.6c0,0.1-0.2,0.1-0.3,0.2     c-0.1,0-0.2,0.1-0.3,0.3c0,0.1-0.1,0.3-0.1,0.4c0,0.1,0.1,0.1,0.1,0.1C4.9,15.5,5,15.7,5,15.9c-0.2-0.1-0.3-0.2-0.5-0.3     c0,0.2-0.1,0.5,0,0.7c0,0.1,0,0.2,0.1,0.3c0,0.1,0.1,0,0.2,0.1C4.8,16.8,4.9,16.9,5,17c0.1-0.2,0.2-0.4,0.4-0.6     c0.1-0.1,0.2-0.1,0.2,0c0.1,0,0.1,0.1,0.1,0.2c0.1,0,0.2,0.1,0.4,0.1c0.1,0,0.3,0,0.4,0c0.1,0,0.1-0.2,0.2-0.2     c0.1,0,0.2,0,0.3-0.1c0.1,0,0.1-0.1,0.2-0.1c0.1,0,0.2-0.1,0.3-0.2c0,0,0.1,0,0.1-0.1c0-0.1-0.1-0.2-0.1-0.3     c0-0.1,0.1-0.2,0.1-0.3c0,0-0.1,0-0.1-0.1c0-0.2,0-0.3,0-0.5c0-0.1,0.1-0.2,0.3-0.2c0,0,0-0.1,0-0.1c0.2-0.1,0.3-0.2,0.5-0.2     c0.4-0.1,0.9,0.1,1.1,0.4c-0.2,0-0.3-0.1-0.5,0c-0.2,0-0.4,0-0.5,0.1C8.3,15,8.2,15,8.1,15c0,0.1,0,0.2,0,0.3c0,0,0.1,0,0.1,0     c0-0.1,0.1-0.2,0.2-0.2C8.7,14.9,9,15,9.3,15c0.3,0.1,0.6,0.4,0.7,0.7c-0.2-0.1-0.3-0.2-0.5-0.3c-0.2-0.1-0.5-0.1-0.7-0.1     c-0.1,0.1-0.2,0.2-0.3,0.3c0,0-0.1,0-0.1,0.1c-0.1,0.1-0.1,0.2-0.2,0.3c-0.1,0-0.1,0-0.2,0c0,0.1,0.1,0.2,0.1,0.3     c0,0.1,0,0.2,0,0.3c0,0.1-0.1,0.1-0.1,0.1C8,16.9,8,16.9,8,17c-0.1,0.1-0.1,0.1-0.2,0.1c-0.1,0-0.1,0-0.2,0c-0.1,0-0.2,0-0.3,0     c-0.1,0.1-0.1,0.1-0.2,0.2c-0.1,0-0.2,0-0.3-0.1c-0.1,0-0.1,0.1-0.2,0.1c-0.1,0-0.2,0-0.3,0c-0.1,0-0.1,0.1-0.1,0.1     C6,17.6,6,17.7,6,17.9c0.1,0,0.2-0.1,0.3-0.1c0.1,0,0.2,0.1,0.3,0.1c0.1,0,0.1-0.1,0.2-0.1c0.1,0,0.2,0,0.3,0     c0.1,0,0.1-0.1,0.2-0.2c0-0.1,0-0.2,0.1-0.2c0.1-0.1,0.2-0.1,0.2-0.1c0.1-0.1,0.3,0,0.5-0.1c0.1-0.2,0.3-0.4,0.5-0.5     c0,0-0.1-0.1-0.1-0.2c0-0.1,0.1-0.2,0.2-0.3c0.3-0.1,0.6-0.1,0.9,0c0.2,0.1,0.4,0.1,0.6,0.3c0.2,0.1,0.3,0.3,0.4,0.5     c-0.2-0.1-0.5-0.3-0.7-0.3c-0.2,0-0.4-0.1-0.6,0c0,0.1,0.1,0.1,0.1,0.2c-0.1,0.1-0.2,0.1-0.2,0.2c0.1,0,0.2-0.1,0.3-0.1     c0.2-0.2,0.4-0.2,0.7-0.1c0.2,0.1,0.3,0.3,0.5,0.4c0.1,0.1,0.1,0.2,0.2,0.4c0,0.2,0,0.3,0,0.5c0,0.1-0.1,0.1-0.1,0.1     c0-0.1,0-0.3-0.1-0.4c-0.1-0.2-0.2-0.3-0.3-0.4c-0.1-0.1-0.3,0-0.5-0.1c-0.1,0.1-0.2,0.1-0.4,0.2c-0.1,0.1-0.1,0.2-0.3,0.2     c-0.2,0.1-0.4,0-0.6-0.1c0,0.1,0,0.1-0.1,0.2C8.3,18,8.1,18.1,8,18.1c-0.1,0.1-0.2,0.2-0.3,0.2c-0.1,0-0.1,0-0.2,0     c-0.1,0.1-0.3,0.2-0.4,0.2C7,18.5,7,18.7,6.8,18.7c-0.1,0.1-0.3,0-0.4-0.1c-0.3,0.1-0.6,0.2-1,0.2c1.3,1.3,3,2.1,4.7,2.4     c1.7,0.3,3.5,0.2,5.1-0.4c1.6-0.6,2.9-1.6,4-2.9c1.2-1.4,1.9-3.2,2.1-5.1c0.2-1.8-0.2-3.6-1-5.2c-0.9-1.8-2.5-3.3-4.3-4.2     c-1.4-0.7-3-1-4.6-1C10.5,2.6,9.4,2.8,8.5,3.2z M13,6.6c-0.1,0-0.3,0.1-0.3,0.2c-0.1,0.1-0.1,0.3-0.1,0.5     c0.1,0.2,0.2,0.4,0.3,0.6c0,0,0,0.1,0,0.1c-0.1,0.1-0.3,0.2-0.4,0.3c-0.1,0.1-0.2,0.2-0.2,0.4c0,0.1,0,0.1,0,0.2     c0.1,0.2,0.3,0.4,0.6,0.4c0.1,0,0.3-0.1,0.4-0.2c0.1-0.1,0.2-0.3,0.3-0.4c0.1-0.1,0.2-0.2,0.3-0.4c0.1-0.2,0.1-0.4,0-0.7     c-0.1-0.3-0.2-0.6-0.3-0.8C13.4,6.7,13.2,6.6,13,6.6z M14.3,7.9c0,0.2,0.1,0.3,0.1,0.5c0,0.1,0,0.3,0.1,0.4     c0.1,0.1,0.2,0.2,0.1,0.3c-0.1,0.2-0.3,0.2-0.3,0.4c0,0.1-0.1,0.1,0,0.2c0.1,0.1,0.2,0.2,0.3,0.3c0,0,0,0.1,0,0.2     c0.1,0,0.1,0.1,0.2,0.1c0.1,0.1,0.1,0.2,0.2,0.3c0.1,0,0.2,0.1,0.3,0.1c0.1,0,0.2,0,0.3-0.1c0.2-0.1,0.3-0.3,0.5-0.4     c0.1-0.1,0.2-0.2,0.2-0.4c0-0.2,0-0.4-0.1-0.5c-0.2-0.2-0.5-0.4-0.7-0.6c-0.1-0.1-0.2-0.3-0.3-0.4C15.1,8,15,7.9,14.8,7.8     c-0.1-0.1-0.2-0.1-0.3-0.1C14.4,7.7,14.3,7.8,14.3,7.9z M16.5,10.1c-0.2,0-0.4,0.1-0.5,0.2c-0.1,0.1-0.1,0.2,0,0.3     c0.1,0.1,0.2,0.1,0.3,0.2c0.2,0.1,0.4,0.1,0.7,0.1c0.1,0,0.3,0,0.4-0.1c0.1-0.1,0-0.2-0.1-0.3c-0.1-0.2-0.3-0.3-0.5-0.3     C16.7,10.1,16.6,10.1,16.5,10.1z M6.6,13c-0.1,0.1-0.1,0.2-0.1,0.3c0,0.2-0.1,0.3,0,0.5c0,0.1,0.1,0.1,0.1,0.1     c0.1-0.1,0.1-0.2,0.1-0.3c0.1-0.1,0-0.2,0-0.3c0-0.1,0.1-0.2,0-0.3C6.8,12.9,6.7,13,6.6,13z M4,13.8c-0.1,0.1-0.1,0.2-0.1,0.3     c0,0.2,0,0.4,0,0.6c0,0.1,0,0.1,0.1,0.1c0.1,0,0.1-0.1,0.1-0.1c0.1-0.2,0.1-0.4,0.1-0.6C4.2,13.9,4.1,13.8,4,13.8z M3.4,14.1     c0.1,0.1,0.2,0.3,0.3,0.4c0.1,0,0.1-0.2,0.1-0.3c0-0.1-0.1-0.2-0.2-0.2C3.5,14,3.4,14,3.4,14.1z M3.2,14.7     c0.1,0.2,0.1,0.3,0.2,0.4C3.3,15.1,3.3,15,3.2,15c0,0,0,0,0,0c0,0.1,0,0.2,0.1,0.3c0.1,0.1,0.1,0.1,0.2,0.2     c0.1,0.1,0.1,0.1,0.2,0.2C3.7,15.8,3.9,15.9,4,16c0-0.3,0-0.5,0-0.8c0-0.1-0.1-0.2-0.2-0.1c-0.1-0.2-0.3-0.3-0.4-0.5     c0-0.1-0.1-0.1-0.2-0.1C3.2,14.5,3.2,14.6,3.2,14.7z"></path></g><path d="M14.4,11.4C14.4,11.4,14.5,11.4,14.4,11.4c0.1,0,0.1,0.1,0,0.1C14.4,11.5,14.4,11.4,14.4,11.4z"></path><path d="M14.5,11.7c0-0.1,0.1-0.2,0.1-0.3c0,0,0.1,0,0.1,0C14.7,11.6,14.6,11.7,14.5,11.7z"></path><path d="M14.8,11.6c0,0,0.1,0,0.1,0c0,0.1,0,0.1,0,0.2c-0.1,0.1-0.2,0.2-0.3,0.2C14.7,11.8,14.7,11.7,14.8,11.6z"></path><path d="M15.1,11.7c0,0,0.1,0,0.1,0c0.1,0.2-0.2,0.4-0.4,0.5c0-0.1,0.1-0.2,0.1-0.3C15,11.8,15,11.8,15.1,11.7z"></path><path d="M15.3,11.9c0-0.1,0.1,0,0.1,0c0.1,0,0,0.1,0,0.2c0,0.1-0.1,0.3-0.2,0.4c-0.1,0.1-0.2,0.2-0.3,0.2    c0-0.1,0.1-0.2,0.2-0.3C15.2,12.2,15.2,12,15.3,11.9z"></path><path d="M15.6,12.1c0-0.1,0.1-0.2,0.1-0.2c0.1,0,0.2,0.1,0.1,0.2c-0.1,0.3-0.2,0.5-0.4,0.7c-0.1,0.1-0.2,0.2-0.3,0.3    C15.3,12.8,15.5,12.5,15.6,12.1z"></path><path d="M16.1,12.1c0.1,0,0.2,0,0.3,0.1c0,0.1-0.1,0.2-0.1,0.3c-0.1,0.1-0.2,0.2-0.3,0.3c-0.1,0.1-0.2,0.2-0.4,0.2    c0.2-0.2,0.3-0.5,0.5-0.8C16,12.3,16,12.2,16.1,12.1z"></path><path d="M16.5,12.3c0.1-0.1,0.2-0.1,0.3,0c0.1,0,0,0.1,0,0.2c-0.1,0.2-0.3,0.4-0.5,0.6c-0.1,0.1-0.2,0.2-0.3,0.2    c0.1-0.2,0.3-0.4,0.4-0.7C16.4,12.5,16.5,12.4,16.5,12.3z"></path><path d="M16.9,12.4c0.1-0.1,0.2-0.1,0.3,0c0,0.1,0,0.1-0.1,0.2c-0.2,0.2-0.3,0.3-0.4,0.5c-0.1,0.1-0.1,0.1-0.2,0.2    c0.1-0.2,0.1-0.3,0.2-0.5C16.8,12.7,16.8,12.5,16.9,12.4z"></path><path d="M17.5,12.5c0-0.1,0.2-0.1,0.2,0c0.1,0.1,0,0.2,0,0.2c-0.1,0.2-0.1,0.4-0.2,0.5c-0.1,0.1-0.2,0.2-0.4,0.3    c0.1-0.1,0.2-0.3,0.2-0.4C17.5,12.9,17.4,12.7,17.5,12.5z"></path><path d="M17.3,12.6c0-0.1,0.1,0,0.1,0c0,0.2-0.1,0.5-0.3,0.6c-0.1,0.1-0.2,0.2-0.3,0.3C17,13.2,17.1,12.9,17.3,12.6z"></path><path d="M17.9,12.6c0,0,0.1,0,0.1,0c0,0.1,0,0.2,0,0.2c-0.1,0.2-0.2,0.3-0.3,0.4c-0.1,0.1-0.1,0.2-0.2,0.2    c0-0.2,0.1-0.3,0.2-0.4C17.8,12.9,17.8,12.7,17.9,12.6z"></path><path d="M18.2,12.7c0.1-0.1,0.3-0.1,0.3,0c0.1,0.1,0,0.2-0.1,0.3c-0.1,0.1-0.2,0.3-0.3,0.3c-0.2,0.1-0.4,0.2-0.6,0.3    c0.1-0.1,0.2-0.3,0.3-0.4C18.1,13,18.1,12.8,18.2,12.7z"></path><path d="M18.7,12.7c0.1-0.1,0.2-0.1,0.2,0c0,0.2-0.1,0.3-0.2,0.4c-0.1,0.1-0.2,0.2-0.4,0.3c0.1-0.1,0.1-0.3,0.2-0.4    C18.6,12.9,18.6,12.8,18.7,12.7z"></path><path d="M12.6,13c0-0.1,0.1-0.2,0.2-0.3c0,0.1,0,0.2-0.1,0.3C12.6,13.1,12.6,13,12.6,13z"></path><path d="M19.1,12.8c0,0,0.1,0,0.1,0c0,0.1-0.1,0.2-0.2,0.3c-0.1,0.1-0.2,0.2-0.4,0.3c0.1-0.1,0.2-0.2,0.2-0.3    C19,12.9,19,12.8,19.1,12.8z"></path><path d="M12.7,13.1c0.2,0,0.2-0.2,0.3-0.3c0,0.2-0.1,0.3-0.2,0.4c0,0-0.1,0-0.1,0C12.7,13.2,12.7,13.2,12.7,13.1z"></path><path d="M19.1,13.2c0.1-0.1,0.1-0.2,0.2-0.2c0.1,0,0.2,0.1,0.2,0.2c-0.1,0.1-0.2,0.2-0.3,0.3    c-0.2,0.1-0.5,0.2-0.7,0.3C18.7,13.6,18.9,13.4,19.1,13.2z"></path><path d="M13.1,13.3c0.1-0.1,0.1-0.2,0.2-0.2c0,0.1-0.1,0.3-0.2,0.4c-0.1,0.1-0.1,0.2-0.2,0.2c-0.1,0-0.1-0.1-0.1-0.1    C12.9,13.4,13,13.3,13.1,13.3z"></path><path d="M13.3,13.6c0.1-0.1,0.1-0.2,0.2-0.2C13.5,13.4,13.4,13.5,13.3,13.6c0,0.1-0.1,0.2-0.1,0.3c0,0.1-0.1,0-0.2,0    c0-0.1,0-0.1,0-0.2C13,13.6,13.2,13.6,13.3,13.6z"></path><path d="M13.5,13.9c0.1-0.1,0.3-0.3,0.4-0.4c0,0.1,0,0.2,0,0.3c-0.1,0.2-0.2,0.3-0.3,0.5c0,0-0.1,0.1-0.2,0.1    c-0.1,0-0.1-0.1-0.2-0.2C13.3,14.1,13.4,14,13.5,13.9z"></path><path d="M13.7,14.4c0.2-0.2,0.4-0.4,0.5-0.6c-0.1,0.2-0.2,0.4-0.3,0.6c0,0.1-0.1,0.2-0.2,0.2c-0.1,0-0.1-0.1-0.1-0.1    C13.6,14.4,13.6,14.4,13.7,14.4z"></path><path d="M15.5,14.5c0.1-0.2,0.1-0.3,0.2-0.5c0,0.2,0,0.5-0.1,0.7c0,0.1-0.1,0.3-0.2,0.4c-0.1,0.1-0.1,0.2-0.2,0.3    c0,0-0.1,0-0.2,0c-0.1-0.1-0.1-0.2,0-0.3C15.2,15,15.4,14.8,15.5,14.5z"></path><path d="M13.9,14.7c0.2-0.2,0.4-0.4,0.5-0.5c0,0.2-0.1,0.5-0.2,0.7c0,0.1-0.1,0.1-0.2,0.1C14,15,13.9,14.9,13.9,14.7    C13.9,14.8,13.9,14.8,13.9,14.7z"></path><path d="M14.6,14.8c0.1-0.1,0.2-0.3,0.4-0.4c0,0.2-0.1,0.3-0.2,0.5c-0.1,0.2-0.1,0.3-0.2,0.4c0,0.1-0.1,0.1-0.2,0    c-0.1,0-0.2-0.1-0.1-0.2C14.3,15,14.5,14.9,14.6,14.8z"></path><path d="M15,14.7c0-0.1,0.1-0.1,0.1-0.2c-0.1,0.3-0.1,0.5-0.2,0.8c0,0.1-0.1,0.2-0.2,0.3c-0.1,0-0.1,0-0.2-0.1    c0-0.1,0-0.1,0.1-0.2C14.8,15.1,14.9,14.9,15,14.7z"></path><path d="M15.6,15.7c0.3-0.3,0.5-0.6,0.7-1c0,0.3-0.1,0.7-0.3,1c-0.1,0.1-0.1,0.3-0.3,0.3c-0.1,0.1-0.2,0.1-0.3,0    C15.5,15.8,15.6,15.7,15.6,15.7z"></path><path d="M15,15.6c0.2-0.1,0.5-0.2,0.7-0.4c0,0.2-0.1,0.3-0.2,0.4c-0.1,0.1-0.1,0.2-0.2,0.2c-0.1,0-0.2,0-0.3-0.1    C14.9,15.7,15,15.7,15,15.6z"></path><path d="M16.1,15.8c0.2-0.2,0.3-0.4,0.4-0.6c0,0.1,0,0.1,0,0.2c-0.1,0.2-0.1,0.4-0.3,0.6c0,0.1-0.1,0.1-0.2,0.1    c-0.1,0-0.1-0.1-0.1-0.1C15.9,16,16,15.9,16.1,15.8z"></path><path d="M16.4,16c0.1-0.2,0.3-0.3,0.4-0.5c0,0.2-0.1,0.4-0.2,0.6c0,0.1-0.1,0.2-0.2,0.3c-0.1,0-0.2,0-0.2-0.1    C16.3,16.2,16.3,16.1,16.4,16z"></path></g></svg>
