<svg viewBox="0 0 24 24"><path d="M 11.699219,2 C 10.69922,2 9.7007804,2.2000003 8.8007812,2.5 7.2007828,3.0999994 5.6996083,4.1003919 4.5996094,5.4003906 3.3996106,6.8003892 2.6007809,8.3996111 2.3007812,10.099609 c -0.3999995,1.999998 -0.1007804,4.100002 0.6992188,6 0.7999992,1.999998 2.4007832,3.701173 4.3007812,4.701172 0.9999991,0.5 2.0988294,0.89961 3.2988278,1.09961 1.099999,0.199999 2.300392,0.10039 3.400391,-0.09961 1.699998,-0.299999 3.299611,-1.100782 4.599609,-2.300781 1.199999,-1.199999 2.200782,-2.700783 2.800782,-4.300781 0.699999,-1.999998 0.699999,-4.29844 0,-6.3984378 -0.6,-1.8999981 -1.899611,-3.7003918 -3.59961,-4.9003906 -0.899999,-0.6999993 -1.900001,-1.2000003 -3,-1.5 C 13.800782,2.1003909 12.799218,2 11.699219,2 Z m -0.298828,0.4003906 c 1.599998,0 3.19961,0.3000007 4.599609,1 1.799998,0.8999991 3.400782,2.3992206 4.300781,4.1992188 0.799999,1.5999984 1.2,3.4011736 1,5.2011716 -0.2,1.899998 -0.901563,3.699611 -2.101562,5.09961 -1.099999,1.299998 -2.400002,2.300391 -4,2.90039 -1.599999,0.6 -3.399611,0.698437 -5.09961,0.398438 -1.6999979,-0.3 -3.3992197,-1.098439 -4.6992184,-2.398438 0.3999996,0 0.7000003,-0.101172 1,-0.201172 0.1,0.1 0.3003908,0.19961 0.4003906,0.09961 0.1999998,0 0.1988283,-0.199219 0.2988282,-0.199219 0.1,0 0.3003907,-0.09922 0.4003906,-0.199219 h 0.1992188 c 0.1,0 0.2007813,-0.101172 0.3007812,-0.201172 0.1,0 0.3000002,-0.09922 0.5,-0.199218 0.1,-0.1 0.099609,-0.101172 0.099609,-0.201172 0.1999998,0.1 0.3996096,0.201562 0.5996094,0.101562 0.1999997,0 0.2007813,-0.101172 0.3007812,-0.201172 0.1999998,-0.1 0.3003907,-0.09922 0.4003906,-0.199218 0.1999998,0.1 0.4000008,-3.91e-4 0.5000008,0.09961 0.1,0.1 0.198828,0.200391 0.298828,0.400391 0.1,0.1 0.101562,0.30039 0.101562,0.40039 0,0 0.09961,-0.0016 0.09961,-0.101562 v -0.5 c -0.1,-0.2 -0.101172,-0.298438 -0.201172,-0.398438 -0.2,-0.1 -0.3,-0.30039 -0.5,-0.40039 C 9.8992191,16.800391 9.6999998,16.8 9.5,17 c -0.1,0 -0.2007813,0.09961 -0.3007812,0.09961 0,-0.1 0.1011719,-0.09922 0.2011718,-0.199218 0,-0.1 -0.099609,-0.101172 -0.099609,-0.201172 0.1999999,-0.1 0.3996096,0 0.5996094,0 0.199999,0 0.499219,0.200781 0.699218,0.300781 -0.1,-0.2 -0.20039,-0.4 -0.40039,-0.5 -0.1999997,-0.2 -0.3996094,-0.200781 -0.5996092,-0.300781 -0.2999997,-0.1 -0.6003909,-0.1 -0.9003906,0 C 8.5992189,16.299219 8.5,16.4 8.5,16.5 c 0,0.1 0.099609,0.199219 0.099609,0.199219 -0.1999998,0.1 -0.4000001,0.3 -0.5,0.5 -0.1999998,0.1 -0.4000001,0.0016 -0.5,0.101562 0,0 -0.099219,-3.9e-4 -0.1992188,0.09961 -0.1,0 -0.099609,0.09922 -0.099609,0.199218 -0.1,0.1 -0.1011719,0.201172 -0.2011718,0.201172 H 6.8007812 c -0.1,0 -0.1011719,0.09961 -0.2011718,0.09961 -0.1,0 -0.1988283,-0.09961 -0.2988282,-0.09961 -0.1,0 -0.2007813,0.09961 -0.3007812,0.09961 0,-0.2 -7.811e-4,-0.300001 0.1992188,-0.5 -10e-8,0 0.00156,-0.09961 0.1015624,-0.09961 h 0.2988282 c 0.1,0 0.101172,-0.101562 0.2011718,-0.101562 0.1,0.1 0.1988283,0.101562 0.2988282,0.101562 L 7.3007812,17.099609 H 7.5996094 7.8007812 C 7.9007812,17.099609 7.9000001,17.1 8,17 v -0.300781 c 0,0 0.099609,3.9e-4 0.099609,-0.09961 V 16.300781 C 8.0996094,16.200781 8,16.1 8,16 h 0.1992188 c 0.1,-0.1 0.1011719,-0.200781 0.2011718,-0.300781 0,-0.1 0.099609,-0.09961 0.099609,-0.09961 l 0.3007812,-0.298828 c 0.1999998,0 0.499219,-3.9e-4 0.6992188,0.09961 0.1999998,0.1 0.3000002,0.198828 0.5,0.298828 -0.1,-0.3 -0.399219,-0.599219 -0.6992188,-0.699219 -0.2999997,0 -0.6003909,-0.10039 -0.9003906,0.09961 -0.1,0 -0.2011718,0.101172 -0.2011718,0.201172 H 8.0996094 V 15 c 0.1,0 0.2007813,7.81e-4 0.3007812,-0.199219 0.1,-0.1 0.3000002,-0.101562 0.5,-0.101562 0.1999998,-0.1 0.3000002,0 0.5,0 -0.1999998,-0.3 -0.6996097,-0.498438 -1.0996094,-0.398438 -0.1999997,0 -0.3000002,0.09922 -0.5,0.199219 v 0.09961 C 7.6007815,14.599609 7.5,14.700781 7.5,14.800781 v 0.5 c 0,0.1 0.099609,0.09961 0.099609,0.09961 0,0.1 -0.099609,0.198828 -0.099609,0.298828 0,0.1 0.099609,0.200781 0.099609,0.300781 0,0.1 -0.099609,0.09961 -0.099609,0.09961 -0.1,0.1 -0.2007814,0.201172 -0.3007812,0.201172 -0.1,0 -0.099219,0.09961 -0.1992188,0.09961 -0.1,0.1 -0.2007814,0.09961 -0.3007812,0.09961 -0.1,0 -0.099219,0.199219 -0.1992188,0.199219 H 6.0996094 c -0.1999998,0 -0.3003908,-0.09961 -0.4003906,-0.09961 -10e-8,-0.1 3.905e-4,-0.199218 -0.099609,-0.199218 0,-0.1 -0.099219,-0.1 -0.1992188,0 C 5.2003908,16.60039 5.0999999,16.8 5,17 4.9,16.9 4.8007812,16.799219 4.8007812,16.699219 c -0.1,-0.1 -0.2011718,3.9e-4 -0.2011718,-0.09961 -0.1,-0.1 -0.099609,-0.198828 -0.099609,-0.298828 -0.1,-0.2 0,-0.501172 0,-0.701172 0.1999998,0.1 0.3000002,0.200782 0.5,0.300782 0,-0.2 -0.1007814,-0.400782 -0.3007812,-0.300782 -1e-7,0 -0.099609,3.91e-4 -0.099609,-0.09961 0,-0.1 0.099609,-0.300391 0.099609,-0.400391 0.1,-0.199999 0.2007813,-0.298828 0.3007812,-0.298828 0.1,-0.1 0.3007812,-0.101172 0.3007812,-0.201172 V 14 c 0.1,-0.1 0.099609,-3.91e-4 0.099609,0.09961 0.1,0.2 0.099609,0.501172 0.099609,0.701172 0,0.1 -0.099609,0.198828 -0.099609,0.298828 -0.1,0.4 -0.099609,0.801173 -0.099609,1.201172 0.1,-0.2 0.099219,-0.401562 0.1992188,-0.601562 L 5.8007816,15.09961 C 5.8007813,14.999609 6,14.900781 6,14.800781 c 0.1,-0.399999 0.099219,-0.801172 0.1992188,-1.201172 0.1,0.1 0.1011719,0.300391 0.2011718,0.400391 0.1,0.1 0.099609,0.200781 0.099609,0.300781 -0.1,0.2 -0.2007814,0.3 -0.3007812,0.5 -0.1,0.2 -0.1988283,0.499219 -0.2988282,0.699219 -0.1,0.2 -0.099609,0.499219 -0.099609,0.699219 0.1,-0.1 0.099219,-0.3 0.1992188,-0.5 0.1999998,-0.4 0.3996096,-0.700001 0.5996094,-1 0,0.03912 0.016524,0.0635 0.035156,0.08398 -0.018573,0.0985 -0.035156,0.199329 -0.035156,0.316406 0.025,-0.075 0.059375,-0.151172 0.09375,-0.224609 0.00194,0.0085 0.00586,0.01498 0.00586,0.02539 v -0.03906 C 6.8011306,14.647024 6.9268116,14.447158 7,14.300781 c 0.1,-0.1 0.099219,-0.30039 0.1992188,-0.40039 0.1,-0.4 0.2003908,-0.700001 0.4003906,-1 v 1.5 c 0.1,-0.3 0.2007813,-0.500782 0.3007812,-0.800782 v -0.199218 c 0,-0.3 0.099609,-0.501172 0.099609,-0.701172 0.1,-0.2 0.099609,-0.3 0.099609,-0.5 0.1,0.299999 0.099609,0.501172 0.099609,0.701172 0,-0.1 0.1015624,-0.300391 0.1015624,-0.400391 0,0.499999 -0.1015624,1.000001 -0.1015624,1.5 0.1,-0.2 0.2007813,-0.499219 0.3007812,-0.699219 0.1,-0.1 0.099609,-0.200781 0.099609,-0.300781 0.1,-0.2 0.099609,-0.39961 0.099609,-0.599609 0.1,0.199999 0.1011719,0.3 0.2011718,0.5 C 9.0003905,13.10039 9.0000005,13.3 9.5,13.5 l 0.3007812,0.300781 c 0.2999998,0.3 0.7000008,0.39961 0.9999998,0.59961 0.2,0.1 0.3,0.198828 0.5,0.298828 0.3,0.2 0.700001,0.3 1,0.5 0.2,0.2 0.39961,0.3 0.59961,0.5 0.1,0.2 0.198828,0.30039 0.298828,0.40039 0.1,0 0.200781,0.101172 0.300781,0.201172 l 0.5,0.5 c 0.3,0.3 0.6,0.398438 1,0.398438 0.2,0 0.39961,0.1 0.599609,0 h 0.5 c 0.1,0 0.200782,-0.09961 0.300782,-0.09961 0.1,-0.1 0.199218,-0.09922 0.199218,-0.199218 0,-0.1 3.91e-4,-0.200782 -0.09961,-0.300782 -0.1,-0.1 -0.39961,-0.198828 -0.599609,-0.298828 -0.1,0 -0.200782,-0.0016 -0.300782,-0.101562 -0.199999,-0.2 -0.499219,-0.298438 -0.699218,-0.398438 l -0.201172,-0.201172 c 0.1,-0.1 0.201172,-0.198828 0.201172,-0.298828 0.09186,-0.275574 0.09766,-0.468633 0.175781,-0.730469 C 15.046631,14.609521 15,14.630469 15,14.699219 c -0.09695,0.193906 -0.194726,0.388125 -0.382812,0.582031 0.08276,-0.09412 0.08984,-0.193361 0.183593,-0.380859 0.1,-0.2 0.199219,-0.300002 0.199219,-0.5 -0.2,0.1 -0.300391,0.30039 -0.400391,0.40039 -0.1,0.1 -0.298828,0.198828 -0.298828,0.298828 -0.01845,0.01845 -0.02904,0.0368 -0.03516,0.05469 -0.05042,-0.05507 -0.10131,-0.108827 -0.148437,-0.162109 0.04798,-0.01002 0.08203,-0.03346 0.08203,-0.0918 0.1,-0.2 0.201172,-0.501172 0.201172,-0.701172 l -0.5,0.5 c 0,0.02362 0.0015,0.04556 0.0039,0.06641 -0.05821,-0.06 -0.120313,-0.115792 -0.183594,-0.167969 0.09244,-0.01283 0.179688,-0.104491 0.179688,-0.197265 l 0.279297,-0.5625 c -0.105103,0.187498 -0.292969,0.375 -0.480469,0.5625 -0.1,0 -0.09961,-3.91e-4 -0.09961,0.09961 l -0.11914,-0.119141 c 0.06682,-0.02879 0.11914,-0.08008 0.11914,-0.08008 0.1,-0.2 0.200782,-0.3 0.300782,-0.5 V 13.5 L 13.5,13.900391 l -0.25,0.25 -0.05078,-0.05078 c -0.03554,-0.07108 -0.06993,-0.122936 -0.105469,-0.177734 0.05964,0.02237 0.105469,0.04564 0.105469,-0.02148 0,-0.1 0.101562,-0.200782 0.101562,-0.300782 -0.0125,0 -0.02793,-1.95e-4 -0.04297,0 C 13.15254,13.600977 13,13.611719 13,13.699219 v 0.06641 c -0.01607,-0.02502 -0.03275,-0.05249 -0.04883,-0.08008 0.05224,-0.02968 0.06965,-0.106763 0.148437,-0.185547 0.1,-0.1 0.201172,-0.300391 0.201172,-0.400391 -0.0031,0 -0.0068,-1.92e-4 -0.0098,0 -0.09101,0.006 -0.09453,0.104297 -0.191407,0.201172 -0.08626,0 -0.17179,0.07408 -0.257812,0.222657 -0.04125,-0.07444 -0.04102,-0.148215 -0.04102,-0.222657 -0.02723,-0.02723 -0.03927,-0.06355 -0.04492,-0.101562 h 0.04492 c 0.1,-0.1 0.199219,-0.198438 0.199219,-0.398438 -0.09066,0.09066 -0.100056,0.263605 -0.25,0.294922 -10e-6,-0.04813 -0.0017,-0.09556 -0.01563,-0.136719 0.06459,-0.08646 0.06641,-0.173468 0.06641,-0.259765 -0.04411,0.04411 -0.08727,0.08853 -0.123047,0.132812 -0.02936,-0.04088 -0.07813,-0.06257 -0.07813,-0.132812 0,-0.1 0.09961,-0.09922 0.09961,-0.199219 0,0 0.101172,0.199219 0.201172,0.199219 0,0 0.199218,3.9e-4 0.199218,-0.09961 0,-0.199999 3.91e-4,-0.3 -0.09961,-0.5 0,-0.1 3.91e-4,-0.30039 -0.09961,-0.40039 L 12.59956,11.400393 c -0.1,-0.2 -0.3,-0.300391 -0.5,-0.400391 0.2,-0.1 0.39961,-0.300781 0.59961,-0.300781 0.2,0 0.500781,0.201172 0.800781,0.201172 0.1,0 0.200391,-0.09961 0.400391,-0.09961 0.299999,0.1 0.299609,0.5 0.599609,0.5 0.2,0 0.300391,-3.9e-4 0.400391,0.09961 L 15.5,11.699219 c 0.1,0.1 0.300391,0.201172 0.400391,0.201172 0.299999,0.1 0.598828,0.09922 0.798828,0.199218 0.2,0 0.30039,0.09961 0.40039,0.09961 0.2,0.1 0.501172,0.101562 0.701172,0.101562 0.1,0 0.198828,-0.0016 0.298828,-0.101562 0,0.1 -3.9e-4,0.201172 0.09961,0.201172 0.1,0.1 0.200781,0.1 0.300781,0 0,0 -3.91e-4,0.09961 0.09961,0.09961 h 0.201172 c 0.1,-0.1 0.09961,-0.09922 0.09961,-0.199219 0,0.1 -3.91e-4,0.199219 0.09961,0.199219 0.1,0 0.200781,-0.09961 0.300781,-0.09961 0.1,0.1 0.09922,0.199218 0.199219,0.199218 0.1,0 -3.91e-4,0.200782 0.09961,0.300782 0.1,0 0.200782,0.09961 0.300782,0.09961 0.199999,0 0.30039,-0.200391 0.40039,-0.400391 0.1,-0.199999 0.298438,-0.499219 0.398438,-0.699218 V 11.699219 C 20.699219,11.399219 20.500391,11.2 20.400391,11 20.300391,10.8 20.2,10.6 20,10.5 20,10.3 19.900781,10.199609 19.800781,10.099609 L 19.5,9.8007812 c -0.3,-0.1999997 -0.600391,-0.3000002 -0.900391,-0.5 -0.1,-0.1 -0.20039,-0.1011719 -0.40039,-0.2011718 -0.1,0 -0.198828,3.905e-4 -0.298828,-0.099609 -0.2,-0.1999998 -0.300001,-0.3003907 -0.5,-0.4003906 -0.2,-0.1999998 -0.500782,-0.3000002 -0.800782,-0.5 -0.299999,-0.1 -0.598828,-0.2003908 -0.798828,-0.4003906 -0.2,-0.1 -0.3,-0.4000002 -0.5,-0.5 -0.1,-1e-7 -0.200781,3.905e-4 -0.300781,-0.099609 -0.2,-0.1 -0.200781,-0.2003908 -0.300781,-0.4003906 -0.1,-0.1 -0.298828,-0.1988283 -0.298828,-0.2988282 C 14.300391,6.2003908 14.2,6 14,6 H 13.699219 V 5.8007812 L 13.599609,5.6992188 C 13.499609,5.6992187 13.6,5.5999999 13.5,5.5 13.4,5.4 13.299219,5.3007812 13.199219,5.3007812 h -0.398438 c -0.1,10e-8 -0.201172,-0.1015624 -0.201172,-0.1015624 0,-0.1 -0.09922,-0.099219 -0.199218,-0.1992188 0,0 -0.101172,-0.099609 -0.201172,-0.099609 -0.2,0 -0.499219,0.100391 -0.699219,0.4003906 0,1e-7 -0.09922,0.099609 -0.199219,0.099609 H 11 c -0.2,0.1 -0.4,0.099219 -0.5,0.1992188 -0.1,0 -0.200781,0.099609 -0.300781,0.099609 -0.2,0 -0.3000005,-0.1 -0.5000002,0 -0.1999998,0 -0.3000003,0.2011718 -0.5,0.2011718 C 9.0992189,6.0003905 9.0003905,6 8.9003906,6 c -0.1,0 -0.1011719,-0.099609 -0.2011718,-0.099609 -0.1999998,0 -0.3000003,3.905e-4 -0.5,-0.099609 -0.1,-0.1 -0.1988283,-0.2011718 -0.2988282,-0.2011718 -0.1,0 -0.2011718,0.101172 -0.2011718,0.2011718 0.1,0.1 0.2007813,0.1984377 0.3007812,0.3984376 0.1,-1e-7 0.099609,0.2007813 0.099609,0.3007812 0,0.1 0.1011719,0.2007814 0.2011718,0.3007812 h -0.101562 c -0.1999999,-0.1 -0.2984376,-0.1011719 -0.3984376,-0.2011718 -0.1,-0.1 -0.3003907,-0.1988283 -0.4003906,-0.2988282 -0.1,0 -0.2007813,-0.1 -0.3007812,0 -0.1,1e-7 -0.3003908,0.099609 -0.4003906,0.099609 -0.1,0.1 -0.1,0.1988283 0,0.2988282 0.1999997,0.1 0.3000002,0.2007813 0.5,0.3007812 v 0.1992188 c 0,0.1 0.1011719,0.2011718 0.2011718,0.2011718 0,0.1 3.905e-4,0.1992188 -0.099609,0.1992188 -0.1,0.1 -0.2007813,0 -0.3007812,0 -0.1,-0.1 -0.2007814,-0.099609 -0.3007812,-0.099609 -0.1999998,-0.1 -0.3000002,-0.3007812 -0.5,-0.3007812 H 5.9003906 c -0.1,0 -0.2011718,0.1011719 -0.2011718,0.2011718 0.1,0.1999998 0.4003906,0.3000002 0.4003906,0.5 0.1,0.1 0.1007814,0.3000002 0.3007812,0.5 0,0.1 3.905e-4,0.1992188 -0.099609,0.1992188 C 6.2007813,8.5996094 6.0999999,8.5 6,8.5 5.8000002,8.4 5.6999998,8.3007812 5.5,8.3007812 c -0.1999998,0 -0.3007812,0.098828 -0.3007812,0.2988282 0.1,0.1 0.2007813,0.2003908 0.3007812,0.4003906 0.1,0 0.099609,0.099219 0.099609,0.1992188 0.1,0.1 0.2011718,0.1011719 0.2011718,0.2011718 -0.1999997,0 -0.3003907,-0.2011718 -0.4003906,-0.2011718 -0.1,0 -0.2011718,0.00156 -0.2011718,0.1015624 -1e-7,0.1 0.1015624,0.099219 0.1015624,0.1992188 0.1,0.1999998 0.1999999,0.3000002 0,0.5 -0.1,0.1 -0.2011718,0 -0.2011718,0 -0.1,-0.1 -0.2003908,-0.1992188 -0.4003906,-0.1992188 h -0.099609 c -0.1,0 0,0.099219 0,0.1992188 0.1,0.1 0.3007812,0.3 0.3007812,0.5 l -0.099609,0.09961 c -0.1,-0.1 -0.1007814,-0.298828 -0.3007812,-0.298828 -0.1,-0.1 -0.2007814,-3.9e-4 -0.3007812,0.09961 C 4.1992187,10.60039 4.4003906,10.8 4.4003906,11 c 0.1,0.2 -0.101172,0.4 -0.2011718,0.5 C 4.1992187,11.4 4.0999999,11.299219 4,11.199219 c 0,0 -0.099219,-0.1 -0.1992188,0 v 0.201172 c 0,0.199999 0.099219,0.3 0.1992188,0.5 0,0 0.1,0.09961 0,0.09961 H 3.6992188 c 0,-0.1 -0.099219,-0.200781 -0.1992188,-0.300781 0,-0.1 -0.099219,-0.1 -0.1992188,0 -0.1,0.1 0,0.200781 0,0.300781 v 0.300781 c 1e-7,0 -0.1015624,-0.0016 -0.1015624,-0.101562 -0.1,-0.2 -0.1988283,-0.4 -0.2988282,-0.5 0,0 -0.2011718,0.0016 -0.2011718,0.101562 v 0.398438 c -1e-7,0.1 -0.099609,0.101172 -0.099609,0.201172 0,0 3.905e-4,0.09961 -0.099609,0.09961 V 12.199219 C 2.5,11.19922 2.6003909,10.199218 2.9003906,9.1992188 3.4003901,7.4992205 4.5007826,6.00078 5.8007812,4.8007812 6.6007805,4.100782 7.500001,3.5992184 8.5,3.1992188 9.3999991,2.7992191 10.500392,2.6003904 11.400391,2.4003906 Z M 13,6.5996094 c 0.2,0 0.39961,0.101172 0.599609,0.2011718 0.1,0.1999999 0.200782,0.4988285 0.300782,0.7988282 0.1,0.2999997 0.1,0.5011721 0,0.7011718 -0.1,0.1999999 -0.200782,0.2984376 -0.300782,0.3984376 -0.1,0.1 -0.198828,0.3003907 -0.298828,0.4003906 -0.1,0.1 -0.30039,0.2011718 -0.40039,0.2011718 -0.3,0 -0.49961,-0.2003908 -0.59961,-0.4003906 V 8.6992188 C 12.300781,8.499219 12.4,8.4007812 12.5,8.3007812 12.6,8.2007813 12.800391,8.0999999 12.900391,8 V 7.9003906 L 12.599609,7.3007812 c 0,-0.1999997 -3.9e-4,-0.4000001 0.09961,-0.5 0,-0.1 0.200781,-0.2011718 0.300781,-0.2011718 z m 1.5,1.0996094 c 0.1,-10e-8 0.200781,0.00156 0.300781,0.1015624 0.2,0.1 0.298438,0.2000003 0.398438,0.5 0.1,0.1 0.200781,0.2984376 0.300781,0.3984376 0.2,0.1999998 0.499219,0.4015627 0.699219,0.6015624 0.1,0.1 0.101562,0.3000003 0.101562,0.5 0,0.1999998 -0.101172,0.2984378 -0.201172,0.3984378 -0.199999,0.1 -0.3,0.30039 -0.5,0.40039 -0.1,0.1 -0.198828,0.09961 -0.298828,0.09961 -0.1,0 -0.200781,-0.09961 -0.300781,-0.09961 -0.1,-0.1 -0.09922,-0.198828 -0.199219,-0.298828 -0.1,0 -0.101172,-0.101562 -0.201172,-0.101562 V 10 L 14.300781,9.6992188 c -0.1,-0.1 0,-0.099219 0,-0.1992188 0,-0.1999998 0.198828,-0.2003908 0.298828,-0.4003906 0.1,-0.1 3.91e-4,-0.1988282 -0.09961,-0.2988282 -0.1,-0.1 -0.09961,-0.3003907 -0.09961,-0.4003906 0,-0.1999998 -0.09961,-0.3000002 -0.09961,-0.5 0,-0.1 0.09922,-0.2011718 0.199219,-0.2011718 z m 2,2.4003902 c 0.1,0 0.200781,-3.9e-4 0.300781,0.09961 0.2,0 0.4,0.100781 0.5,0.300781 0.1,0.1 0.19961,0.200781 0.09961,0.300781 -0.1,0.1 -0.300391,0.09961 -0.400391,0.09961 -0.3,0 -0.499219,3.9e-4 -0.699219,-0.09961 -0.1,-0.1 -0.200781,-0.101172 -0.300781,-0.201172 -0.1,-0.1 -0.1,-0.198828 0,-0.298828 0.1,-0.1 0.3,-0.201172 0.5,-0.201172 z m -2.099609,1.300782 V 11.5 c 0.09375,0 0.09961,-0.08862 0.01758,-0.09961 z m 0.199218,0 c 0,0.1 -0.09961,0.198828 -0.09961,0.298828 0.1,0 0.199219,-0.09883 0.199219,-0.298828 z m 0.201172,0.199218 c -0.1,0.1 -0.101172,0.200391 -0.201172,0.400391 0.1,0 0.200782,-0.09922 0.300782,-0.199219 v -0.201172 z m 0.298828,0.09961 -0.199218,0.201172 c 0,0.1 -0.09961,0.198828 -0.09961,0.298828 0.2,-0.1 0.498438,-0.3 0.398438,-0.5 z m 0.222657,0.15625 c -0.01343,0.0013 -0.02149,0.01367 -0.02149,0.04492 -0.1,0.1 -0.101172,0.3 -0.201172,0.5 -0.1,0.1 -0.199218,0.198828 -0.199218,0.298828 0.1,0 0.198828,-0.09922 0.298828,-0.199219 0.1,-0.1 0.201172,-0.300391 0.201172,-0.400391 0,-0.1 0.1,-0.199218 0,-0.199218 0,0 -0.04858,-0.04788 -0.07813,-0.04492 z m 0.376953,0.04492 c 0,0 -0.09961,0.09922 -0.09961,0.199218 -0.1,0.4 -0.3,0.700002 -0.5,1 l 0.300782,-0.298828 c 0.199998,-0.2 0.30039,-0.401172 0.40039,-0.701172 0.1,-0.1 -0.0016,-0.199218 -0.101562,-0.199218 z m 0.40039,0.199218 c -0.1,0.1 -0.1,0.19961 0,0.09961 -0.199998,0.299998 -0.3,0.600781 -0.5,0.800781 C 15.799609,13 15.9,12.900781 16,12.800781 L 16.300781,12.5 c 0,-0.1 0.09961,-0.200781 0.09961,-0.300781 -0.1,-0.1 -0.200782,-0.09961 -0.300782,-0.09961 z m 0.550782,0.125 c -0.05,0 -0.100391,0.02617 -0.150391,0.07617 0,0.1 -0.09961,0.198828 -0.09961,0.298828 -0.1,0.3 -0.300391,0.501172 -0.400391,0.701172 0.1,0 0.200781,-0.101172 0.300781,-0.201172 0.2,-0.199998 0.4,-0.399609 0.5,-0.599609 0,-0.1 0.1,-0.199219 0,-0.199219 -0.05,-0.05 -0.10039,-0.07617 -0.15039,-0.07617 z m 0.40039,0.09961 c -0.05,0 -0.10039,0.02617 -0.15039,0.07617 -0.1,0.1 -0.101172,0.30039 -0.201172,0.40039 -0.1,0.2 -0.09922,0.3 -0.199219,0.5 l 0.199219,-0.201172 c 0.1,-0.199998 0.200392,-0.3 0.40039,-0.5 0.1,-0.1 0.09961,-0.09922 0.09961,-0.199218 -0.05,-0.05 -0.09844,-0.07617 -0.148438,-0.07617 z m 0.53125,0.101562 C 17.538965,12.43125 17.5,12.45625 17.5,12.5 c -0.1,0.2 7.81e-4,0.399611 -0.199219,0.599609 0,0.1 -0.101172,0.300391 -0.201172,0.400391 0.2,-0.1 0.300391,-0.200781 0.400391,-0.300781 0.1,-0.1 0.09922,-0.3 0.199219,-0.5 0,0 0.1,-0.09922 0,-0.199219 0,-0.05625 -0.06182,-0.08125 -0.117188,-0.07422 z m -0.259765,0.13086 c -0.01343,0.0013 -0.02148,0.01172 -0.02148,0.04297 -0.2,0.3 -0.3,0.600391 -0.5,0.900391 l 0.298828,-0.300781 c 0.2,-0.1 0.300782,-0.39961 0.300782,-0.59961 0,0 -0.04858,-0.04592 -0.07813,-0.04297 z m 0.578125,0.04297 c -0.1,0.1 -0.101172,0.300391 -0.201172,0.400391 -0.1,0.1 -0.199219,0.200391 -0.199219,0.400391 0.1,0 0.09922,-0.101172 0.199219,-0.201172 0.1,-0.1 0.200781,-0.198438 0.300781,-0.398438 v -0.201172 z m 0.486328,0.02539 c -0.0625,0 -0.1375,0.02422 -0.1875,0.07422 -0.1,0.1 -0.09844,0.3 -0.398438,0.5 -0.1,0.1 -0.200781,0.30039 -0.300781,0.40039 l 0.599609,-0.298828 c 0.1,0 0.200782,-0.200781 0.300782,-0.300781 0.1,-0.1 0.199609,-0.200781 0.09961,-0.300781 0,-0.05 -0.05078,-0.07422 -0.113281,-0.07422 z m 0.443359,0 c -0.03657,0.0029 -0.08398,0.02734 -0.130859,0.07422 C 18.599219,12.799219 18.6,12.9 18.5,13 c -0.1,0.1 -0.09922,0.300391 -0.199219,0.400391 0.2,-0.1 0.298438,-0.200782 0.398438,-0.300782 0.1,-0.1 0.201172,-0.20039 0.201172,-0.40039 0,-0.05312 -0.02886,-0.07754 -0.07031,-0.07422 z m 0.251953,0.175781 c -0.08313,0.01172 -0.09375,0.11133 -0.28125,0.298828 0,0.1 -0.101172,0.200782 -0.201172,0.300782 0.2,-0.1 0.300391,-0.200782 0.400391,-0.300782 0.1,-0.1 0.199219,-0.198828 0.199219,-0.298828 h -0.09961 c -0.0063,0 -0.01204,-7.81e-4 -0.01758,0 z M 6.7402344,12.95703 C 6.7371044,12.96173 6.7242184,12.975 6.6992184,13 c 0.1,0.1 0,0.200781 0,0.300781 0,0.1 0.1,0.198828 0,0.298828 -1e-7,0.1 3.905e-4,0.200782 -0.099609,0.300782 0,0 -0.099609,3.9e-4 -0.099609,-0.09961 -0.1,-0.2 0,-0.3 0,-0.5 0,-0.1 -3.905e-4,-0.200781 0.099609,-0.300781 0.075,0 0.15,-0.05703 0.140625,-0.04297 z M 19.300781,13 c -0.1,0 -0.101172,0.09922 -0.201172,0.199219 L 18.5,13.800781 C 18.7,13.700781 18.999219,13.6 19.199219,13.5 L 19.5,13.199219 C 19.5,13.099219 19.400781,13 19.300781,13 Z m -5.818359,0.400391 c -0.07725,0.01059 -0.08682,0.09448 -0.164063,0.18164 L 13.5,13.400391 c -0.0062,0 -0.01206,-7.57e-4 -0.01758,0 z M 7,13.699219 c 0,0.0729 -0.071454,0.219259 -0.1777344,0.398437 0.020593,-0.06001 0.038705,-0.118424 0.078125,-0.197265 0,-0.1 -3.905e-4,-0.201172 0.099609,-0.201172 z m -3,0.101562 c 0.1,0 0.1992188,0.09883 0.1992188,0.298828 0,0.2 3.905e-4,0.39961 -0.099609,0.59961 0,0 3.905e-4,0.101562 -0.099609,0.101562 -0.1,0 -0.099609,-0.0016 -0.099609,-0.101562 v -0.59961 c 0,-0.1 -3.905e-4,-0.198828 0.099608,-0.298828 z M 3.5996094,14 c 0.1,0 0.2011718,0.09922 0.2011718,0.199219 1e-7,0.1 -0.00156,0.300781 -0.1015624,0.300781 -0.1,-0.1 -0.1988283,-0.300391 -0.2988282,-0.400391 0,-0.1 0.099219,-0.09961 0.1992188,-0.09961 z m 12.0996096,0 c -0.1,0.2 -0.09922,0.3 -0.199219,0.5 -0.1,0.3 -0.3,0.499609 -0.5,0.599609 -0.1,0.1 -0.1,0.200782 0,0.300782 h 0.199219 c 0.1,-0.1 0.101172,-0.200782 0.201172,-0.300782 0.1,-0.1 0.199218,-0.30039 0.199218,-0.40039 0.1,-0.2 0.09961,-0.499219 0.09961,-0.699219 z M 3.1992188,14.5 c 0.1,0 0.2011718,-3.91e-4 0.2011718,0.09961 0.1,0.2 0.3003907,0.300001 0.4003906,0.5 C 3.9007812,14.99961 4,15.09922 4,15.19922 V 16 C 3.9,15.9 3.6992187,15.799219 3.6992188,15.699219 L 3.5,15.5 3.3007812,15.300781 C 3.2007814,15.200781 3.1992188,15.1 3.1992188,15 c 0.1,0 0.1011719,0.09961 0.2011718,0.09961 -0.1,-0.1 -0.1011719,-0.20039 -0.2011718,-0.40039 z m 11.9003902,0 c -0.0077,0.02296 -0.01491,0.04453 -0.02148,0.06641 0.01216,-0.01717 0.02148,-0.03708 0.02148,-0.06641 z m 1.201172,0.199219 c -0.2,0.399998 -0.401172,0.7 -0.701172,1 0,0 -0.09922,0.100781 -0.199218,0.300781 0.1,0.1 0.198828,0.1 0.298828,0 0.2,0 0.200781,-0.200781 0.300781,-0.300781 0.2,-0.3 0.300781,-0.700002 0.300781,-1 z m -0.601562,0.5 c -0.2,0.2 -0.499219,0.30039 -0.699219,0.40039 0,0.1 -0.1,0.09961 0,0.09961 0.1,0.1 0.200781,0.101562 0.300781,0.101562 0.1,0 0.09922,-0.101172 0.199219,-0.201172 0.1,-0.1 0.199219,-0.20039 0.199219,-0.40039 z m 0.800781,0 c -0.1,0.2 -0.200391,0.401562 -0.400391,0.601562 L 15.900391,16 c 0,0 -3.91e-4,0.09961 0.09961,0.09961 0.1,0 0.199219,3.91e-4 0.199219,-0.09961 0.2,-0.2 0.200781,-0.399611 0.300781,-0.599609 z m -2.099609,0.101562 c 0.04737,0.04737 0.09412,0.07173 0.130859,0.07422 -0.01025,0.01282 -0.01685,0.02355 -0.02148,0.03516 z M 16.800781,15.5 c -0.1,0.2 -0.30039,0.3 -0.40039,0.5 -0.1,0.1 -0.101172,0.200781 -0.201172,0.300781 0,0.1 0.101172,0.09961 0.201172,0.09961 0.1,-0.1 0.199218,-0.200782 0.199218,-0.300782 0.1,-0.199998 0.201172,-0.399609 0.201172,-0.599609 z" /></svg>
