<svg viewBox="0 0 24 24" data-v-5831562a=""><g><g><path class="st1" d="M12.4,5.1c0.5-1,1-2.1,1.4-3.1c0.9,0,1.8,0,2.7,0c0,1.4,0,2.7,0,4c0,0.1-0.1,0.3,0.1,0.5     c1.4,0.8,2.4,2.1,3.1,3.6c0.7,1.6,1,3.5,0.5,5.3c-0.5,2.1-1.8,4-3.6,5.2c-1.7,1.2-3.9,1.6-5.9,1.4c-1-0.1-2-0.5-2.9-1     c-0.2,0.4-0.3,0.7-0.5,1.1c-0.9,0-1.8,0-2.7,0c0.4-0.8,0.8-1.7,1.2-2.6c-1.2-1.2-2-2.8-2.2-4.4C3.2,12.9,3.8,10.6,5,8.9     C6.6,6.3,9.5,4.9,12.4,5.1z M6.7,9.1c-1,1.2-1.6,2.8-1.6,4.4C5,15,5.6,16.6,6.6,17.9c1.7-3.8,3.5-7.4,5.2-11.2     C9.8,6.7,7.9,7.6,6.7,9.1z M14.3,7c-0.1,0.1-0.1,0.3-0.1,0.4c-1,2-1.9,4.1-2.9,6.1c0.8,0,1.5,0,2.3,0c0-0.5,0-1,0-1.6     c1,0.9,2.1,1.8,3.1,2.7c-1,0.9-2,1.7-3.1,2.7c0-0.5,0-1,0-1.6c-1.1,0-2.2,0-3.3,0c-0.5,1.2-1.1,2.5-1.7,3.7     c1.1,0.6,2.5,1,3.8,0.9c1.7-0.1,3.3-0.8,4.6-1.9c1.3-1.3,2.2-3.2,2.1-5c0-1.5-0.5-3-1.5-4.1c-0.3-0.3-0.5-0.6-0.8-0.9     c-0.1,1.7,0,3.6,0,5.3c-0.8-0.6-1.5-1.4-2.3-2c0-1.4,0-2.8,0-4.2C14.3,7.3,14.3,7.2,14.3,7z"></path></g><path class="st1" d="M14.3,17.7c0.8-0.6,1.6-1.4,2.3-2c0,0.8,0,1.6,0,2.4c-0.8,0-1.6,0-2.3,0C14.3,18,14.3,17.9,14.3,17.7z"></path></g></svg>
