<svg viewBox="0 0 24 24" ><path d="M13.6,2.6L13.6,2.6c-0.1,0.2,0,0.4-0.1,0.5c-0.1,0.3-0.2,0.6-0.2,0.9c0.1,0,0.2,0,0.4,0    c-0.1,0.3-0.3,0.6-0.4,0.9c0.2,0.1,0.3,0.1,0.5,0.1c0.2-0.4,0.2-0.9,0.6-1.1c0,0.2,0.1,0.4,0.1,0.6c0.3-0.4,0.6-0.9,1-1.2    c0,0.3,0,0.6,0,0.9c0.5-0.3,1-0.6,1.4-1.1c0.1,0,0.1,0,0.1,0c-0.1,0.4-0.3,0.7-0.5,1.1C16.2,4.4,16.1,4.7,16,5    c0.2,0,0.4-0.1,0.6-0.1c-0.1,0.2-0.2,0.4-0.3,0.6C16,5.7,15.9,6,15.6,6.2c0.1,0.1,0.2,0.3,0.4,0.2c0.4-0.3,0.9-0.7,1.2-1    c0,0.2,0,0.4,0.1,0.6c0.5-0.3,0.9-0.6,1.4-0.9c0,0.2-0.1,0.4-0.2,0.6c0.3-0.1,0.7-0.1,1-0.1c0.6-0.2,1.1-0.4,1.7-0.6    c-0.2,0.2-0.4,0.5-0.6,0.7c-0.4,0.4-0.9,0.7-1.4,1.1C19.5,7,19.8,7,20.2,7v0.1c-0.6,0.4-1.2,0.6-1.9,0.8c0,0,0,0.1,0,0.1    c0.2,0,0.3,0.1,0.5,0.1c0,0,0,0.1,0,0.1c-0.3,0.2-0.6,0.3-0.9,0.4c0.1,0.2,0.2,0.4,0.3,0.6c0.4-0.1,0.9-0.2,1.3-0.4    c0.1,0,0.1,0,0.1-0.1c-0.1,0.2-0.1,0.4-0.2,0.6c0.5-0.2,0.9-0.3,1.4-0.4c0,0.1,0,0.1,0,0.1c-0.2,0.1-0.4,0.3-0.6,0.5    c0.6,0.1,1.1,0.1,1.7,0.1c0,0.1,0,0.2,0,0.4c-0.5,0.2-1,0.4-1.5,0.5v0.1c0.2,0.1,0.5,0.2,0.7,0.4c-0.5,0.1-1,0.1-1.5,0.1    c0,0,0,0.1,0,0.1c0.1,0.1,0.2,0.2,0.4,0.3c-0.4,0.1-0.7,0.1-1.1,0.2c0,0.2,0,0.4-0.1,0.6c0.3,0,0.6,0.1,1,0.1    c-0.1,0.1-0.2,0.2-0.3,0.2c0.3,0.2,0.7,0.2,1.1,0.3c0,0.2-0.4,0.2-0.6,0.4c0.4,0.3,0.8,0.6,1.2,0.9c-0.4,0.1-0.7-0.1-1.1-0.1    c-0.2-0.1-0.5,0-0.7-0.1c0.1,0.1,0.1,0.2,0.2,0.4c0,0,0,0.1,0,0.1c-0.3-0.2-0.7-0.3-1-0.4l-0.1,0.1c-0.1,0.2-0.1,0.4-0.2,0.7    c0.2,0.1,0.4,0.3,0.7,0.4v0.1c-0.1,0-0.3,0.1-0.4,0.1c0.2,0.5,0.6,0.8,0.9,1.2c-0.4,0-0.6-0.3-1-0.4c0.1,0.1,0.1,0.3,0.1,0.4    c-0.2-0.1-0.5-0.3-0.7-0.6c0,0.1-0.1,0.1-0.1,0.1c-0.1-0.1-0.1-0.1-0.2-0.2c-0.1,0.2-0.3,0.4-0.4,0.7c0.2,0.2,0.4,0.4,0.6,0.7    c-0.1,0-0.3,0-0.4,0c0,0.4,0,0.8-0.1,1.2c-0.2-0.2-0.4-0.4-0.6-0.6c0,0-0.1,0-0.1,0c-0.1,0.1-0.1,0.2-0.1,0.3    c-0.1-0.1-0.2-0.3-0.3-0.4c-0.2,0.1-0.4,0.2-0.6,0.4c0.1,0.2,0.2,0.4,0.3,0.5c0,0,0,0.1,0,0.1c-0.1,0-0.3-0.1-0.4-0.1    c-0.1,0.4-0.1,0.7-0.1,1.1c-0.3-0.1-0.4-0.5-0.6-0.7c-0.1,0.1-0.2,0.2-0.2,0.2c-0.1-0.1-0.1-0.2-0.1-0.4c-0.2,0.1-0.3,0.1-0.5,0.2    c0,0.2,0,0.4,0,0.6c-0.1-0.1-0.2-0.2-0.3-0.2c-0.2,0.3-0.4,0.6-0.6,0.9h-0.1c-0.1-0.2-0.1-0.4-0.2-0.6c-0.1,0-0.2,0.1-0.4,0.1    c0-0.1,0-0.2,0-0.4c-0.2,0-0.3,0-0.5,0c-0.1,0.2-0.2,0.4-0.2,0.6c-0.1-0.1-0.2-0.1-0.2-0.2c-0.3,0.2-0.6,0.5-0.8,0.9h-0.1    c0.1-0.2,0.1-0.5,0.2-0.7c-0.1,0-0.3,0-0.4,0c0.1-0.1,0.1-0.2,0.2-0.4c-0.2,0-0.4,0-0.6,0c-0.1,0.2-0.2,0.3-0.3,0.5    c-0.1-0.1-0.1-0.2-0.2-0.2c-0.3,0.1-0.6,0.3-0.9,0.4c0.1-0.2,0.1-0.3,0.1-0.5c-0.1,0-0.2,0-0.2,0c0-0.1,0-0.1,0-0.1    c0.1-0.1,0.1-0.1,0.2-0.2c-0.2-0.1-0.4-0.1-0.6-0.2c-0.1,0.1-0.2,0.2-0.4,0.3c-0.1-0.1-0.1-0.2-0.1-0.2c-0.3,0.1-0.6,0.1-0.9,0.2    c0.1-0.1,0.1-0.3,0.2-0.4c-0.1,0-0.2-0.1-0.4-0.1c0.1-0.1,0.1-0.1,0.2-0.2c-0.1-0.1-0.2-0.1-0.2-0.2c-0.2,0-0.4,0.1-0.6,0.1    c0-0.1,0-0.2,0-0.2c-0.4-0.1-0.7-0.1-1.1-0.2c0.1-0.1,0.2-0.2,0.4-0.3C5,18.6,5,18.5,5,18.4c0.1-0.1,0.1-0.1,0.1-0.2    C5,18.2,4.9,18.1,4.8,18c-0.2,0-0.4,0.1-0.6,0.1c0-0.1,0-0.2,0-0.3c-0.3-0.1-0.6-0.1-0.9-0.2c0.1-0.1,0.2-0.2,0.4-0.2    c-0.1-0.1-0.1-0.1-0.1-0.2C3.7,17,3.8,17,3.9,17c-0.1-0.1-0.2-0.2-0.2-0.3c-0.2-0.1-0.4-0.1-0.6-0.1c0,0,0.1-0.1,0.1-0.1    c0-0.1-0.1-0.2-0.1-0.2c-0.2-0.2-0.6-0.3-0.7-0.5c0.2-0.1,0.3-0.1,0.5-0.1c-0.1-0.1-0.1-0.1-0.1-0.2c0.1,0,0.2,0,0.3,0    c-0.1-0.2-0.1-0.4-0.2-0.5c-0.2-0.1-0.3-0.2-0.5-0.3c0.1-0.1,0.1-0.1,0.2-0.1C2.2,14.2,1.9,14,2,13.6c0.1,0,0.2,0,0.2,0    c0-0.1,0-0.2,0-0.2c0.1,0,0.2,0.1,0.2,0.1c0-0.1,0-0.2-0.1-0.4c-0.1-0.3-0.2-0.4-0.4-0.4c0-0.1-0.1-0.1-0.1-0.1    c0.1,0,0.1-0.1,0.2-0.1c-0.2-0.2-0.1-0.5-0.1-0.8c0-0.1,0.1-0.1,0.1-0.2c0.1,0,0.1,0.1,0.1,0.1c0.1-0.2,0.1-0.5,0.1-0.7    C2.2,10.6,2,10.5,2,10.5c0.1-0.1,0.1-0.1,0.1-0.2C2,10,1.9,9.8,1.9,9.5C2,9.6,2.1,9.6,2.2,9.6c0-0.1,0.1-0.2,0.1-0.2    c0.1,0,0.1,0.1,0.1,0.1h0.1c0-0.1,0.1-0.2,0.1-0.4C2.5,9,2.4,8.8,2.4,8.7c0.1,0,0.1,0,0.2,0c0-0.2-0.1-0.5-0.1-0.7    C2.7,8.1,2.8,8.2,3,8.3C3.2,8.1,3,7.8,3,7.6c0.2-0.2,0.1-0.4,0.2-0.7C3.3,7,3.4,7.1,3.5,7.2C3.6,7.2,3.6,7.1,3.6,7    C3.5,6.8,3.5,6.5,3.6,6.2h0.1c0.1,0.1,0.2,0.2,0.2,0.3c0,0,0.1,0,0.1,0c0.1-0.1,0.1-0.1,0.1-0.2C4.1,6.2,4.1,6,4,5.9    c0-0.1,0.1-0.2,0.1-0.3c0.1,0.1,0.2,0.2,0.3,0.3c0.1,0.1,0.2,0,0.2-0.1c-0.1-0.2-0.1-0.5,0-0.7c0.1,0.1,0.2,0.2,0.2,0.3    c0.1,0,0.1,0,0.1,0c0.1-0.2,0-0.6,0.1-0.8c0,0,0.1,0,0.1,0.1c0.1,0.1,0.1,0.2,0.2,0.4C5.4,5,5.6,4.9,5.6,4.8c0-0.2,0-0.4,0-0.6    c0.1,0,0.1,0.1,0.1,0.1c0,0.1,0.1,0.1,0.1,0.1c0.1,0,0.1,0,0.1,0C6.1,4.3,6.1,4.1,6,3.9c0,0,0.1-0.1,0.1-0.1    C6.3,3.9,6.3,3.9,6.4,4c0.2-0.2,0.1-0.4,0.1-0.6c0.1,0.1,0.1,0.1,0.2,0.1c0.1-0.1,0-0.2,0-0.4c0.1,0,0.1,0,0.2,0    C6.9,3.1,7,3,7,2.9c0,0,0.1,0,0.1-0.1c0,0.7-0.3,1.2-0.6,1.8C6.1,5.5,5.6,6.2,5.1,7C4.8,7.5,4.6,8.1,4.5,8.7    c-0.1,0.5-0.2,1-0.2,1.6c-0.1,0.3-0.1,0.6,0,0.9c0.1,0.5,0.1,1,0.2,1.5c0.2,0.6,0.3,1.1,0.7,1.6c0.2,0.3,0.4,0.6,0.7,0.9    c0.4,0.4,0.8,0.7,1.2,1.1c0.6,0.4,1.3,0.6,1.9,0.7c0.3,0.1,0.7,0,1,0c0.6-0.1,1.2-0.2,1.8-0.5c-0.2-0.8-0.4-1.7-0.1-2.4    c0.3-0.6,0.9-1.1,1.3-1.6c-0.2-0.3-0.1-0.7-0.1-1c-0.6,0.2-1.2,0.3-1.8,0.6c-0.3,0.3-0.6,0.7-0.7,1.1c-0.1,0.2-0.2,0.4-0.4,0.4    c0-0.4,0.1-0.7,0.1-1c-0.2,0.2-0.4,0.4-0.6,0.6c-0.1,0.1-0.3,0.3-0.5,0.3c0.1-0.4,0.3-0.7,0.6-1.1c0-0.1,0-0.1,0-0.1l-0.1,0.1    c-0.2,0.1-0.2,0.2-0.4,0.2c-0.2,0-0.3,0.2-0.4,0.4c-0.1-0.1-0.2-0.3-0.1-0.5c0.2-0.4,0.6-0.6,0.9-0.9c-0.1,0-0.2,0-0.2,0    c0-0.1-0.1-0.1-0.1-0.1c-0.1,0-0.2,0.1-0.4,0.1c0-0.1,0.1-0.2,0.1-0.2C9,11.1,9.2,11,9.4,11c0.4,0,0.8,0,1.2,0    c0.4-0.2,0.7-0.4,1.1-0.7c0-0.1,0-0.1,0-0.2c-0.2-0.2-0.4-0.5-0.6-0.8C11,9.1,11,8.8,11,8.6c-0.4-0.4-1-0.5-1.6-0.5    C9.2,8.3,8.9,8.5,8.7,8.8C8.6,9.1,8.6,9.5,8.6,9.8C8.5,10,8.2,10,8.1,10c0-0.1,0-0.2,0-0.4C8,9.6,8,9.6,7.9,9.6    C8,9.5,8,9.3,8.1,9.2c0,0-0.1-0.1-0.1-0.1C8,9.1,8.1,9,8.2,9C8.1,8.9,8,8.9,7.9,8.8C8,8.8,8,8.7,8.1,8.7C8,8.7,8,8.7,7.9,8.6    c0.1,0,0.1,0,0.1,0c0-0.2-0.2-0.2-0.4-0.2c0,0.1,0,0.1,0,0.2c-0.2,0-0.1,0.2,0,0.2c-0.1,0-0.2,0.1-0.2,0.1C7.5,8.9,7.6,9,7.6,9    C7.5,9,7.4,9,7.3,9c0.1,0.1,0.1,0.1,0.1,0.1C7.4,9.2,7.3,9.2,7.2,9.3c0.1,0.1,0.2,0.1,0.3,0.2c-0.1,0-0.2,0.1-0.4,0.1    c0,0.1,0,0.2-0.1,0.2C6.8,10,6.4,10,6.2,9.6c0-0.3,0-0.6,0.1-0.9C6.2,8.7,6.1,8.6,6.1,8.5c0-0.4,0.1-0.9,0.1-1.3    c0.2-0.1-0.1-0.4,0.2-0.4c0-0.1,0-0.2-0.1-0.3c0.1,0,0.2,0,0.2,0c0-0.1-0.1-0.3-0.1-0.4c0.1,0,0.2,0,0.3,0.1c0-0.2,0-0.4,0.1-0.7    C6.9,5.5,7,5.6,7.1,5.7c0.1,0,0.1,0,0.1,0c0-0.1,0-0.3,0-0.4c0.1,0,0.1,0,0.2-0.1C7.4,5,7.5,4.8,7.6,4.7C7.6,4.9,7.7,5,7.7,5.2    C8,5.2,8,4.9,8,4.7c0.1,0,0.1,0.1,0.2,0.1c0.2-0.2,0.2-0.5,0.4-0.7c0.1,0.1,0.1,0.2,0.1,0.4c0.1,0,0.1,0,0.2,0    c0,0.1-0.1,0.2-0.1,0.4c0.1,0,0.2-0.1,0.3-0.1c0-0.1,0-0.2,0-0.2c0.3-0.2,0.4-0.5,0.7-0.7c0,0,0.1,0,0.1,0c0,0.1,0,0.3,0,0.4    c0.1,0,0.1,0,0.2,0c0,0.2,0,0.4,0,0.5c0.1,0,0.2,0,0.2,0c0-0.2,0.1-0.5,0.1-0.8c0.1-0.1,0.1-0.1,0.1-0.1c0,0.1,0.1,0.1,0.1,0.2    c0.1,0,0.1,0,0.1,0c0.2-0.2,0.4-0.6,0.6-0.8c0,0.3-0.1,0.6-0.1,0.9C11.4,4,11.5,4,11.6,3.9c0,0.2-0.1,0.5-0.2,0.7    c0.1,0,0.2,0,0.4,0c0.1-0.2,0.1-0.4,0.2-0.7C12,4,12.1,4.1,12.1,4.2c0.1-0.2,0.2-0.6,0.3-0.8c0,0,0.1,0.1,0.1,0.1    c0,0.1,0,0.2,0.1,0.2C12.9,3.4,13.2,2.9,13.6,2.6z"></path></svg>
