<svg viewBox="0 0 24 24"><path d="m 12,2 -0.599609,1.5996094 c -1.8999985,0.1 -3.6000018,0.9000011 -5.0000004,2 L 4.9003906,5 5.5,6.4003906 C 4.3000012,7.7003893 3.6003904,9.500783 3.4003906,11.300781 L 2,12 3.4003906,12.599609 c 0.1999998,1.899998 0.99922,3.600002 2.1992188,5 l -0.5,1.300782 1.3007812,-0.5 c 1.2999987,1.099999 2.99883,1.8 4.7988284,2 l 0.701172,1.699218 0.699218,-1.699218 c 1.899998,-0.1 3.600392,-0.900001 4.900391,-2 l 1.300781,0.5 -0.5,-1.300782 C 19.50078,16.299611 20.3,14.499607 20.5,12.599609 L 22,12 20.5,11.400391 C 20.4,9.4003926 19.60078,7.7007799 18.300781,6.3007812 l 0.5,-1.2011718 -1.201172,0.5 c -1.299998,-1.0999989 -3.000392,-1.9000001 -4.90039,-2 z m 0,1.4003906 V 3.5996094 H 11.90039 11.80078 Z M 11.199219,4 10.900391,4.8007812 C 10.800391,4.6007814 10.60039,4.5 10.400391,4.5 c -0.3,0 -0.5000004,0.2000003 -0.5000004,0.5 0,0.2999997 0.2000004,0.5 0.5000004,0.5 -0.2,0 -0.300001,0.099609 -0.5000004,0.099609 L 9.3007812,4.4003906 C 9.9007806,4.2003908 10.499219,4.0999999 11.199219,4 Z m 0.5,0 h 0.201172 0.298828 l 0.601562,1.4003906 C 12.500782,5.4003906 12.2,5.3007813 12,5.3007812 h -0.800781 z m 1.101562,0 c 0.6,0.1 1.198829,0.2003908 1.798828,0.4003906 L 14,5.6992188 c -0.1,0 -0.3,-0.099609 -0.5,-0.099609 0.3,0 0.5,-0.3000002 0.5,-0.5 0,-0.2999997 -0.2,-0.5 -0.5,-0.5 -0.2,0 -0.4,0.1007814 -0.5,0.3007812 z M 8.5,4.6992188 9,6 C 8.8000002,6.1999998 8.600781,6.3003907 8.3007812,6.4003906 l -1.5,-0.5996094 C 7.3007808,5.4007817 7.9000006,4.9992184 8.5,4.6992188 Z m 6.900391,0 C 16.00039,4.9992184 16.5,5.2992191 17,5.6992188 l -1.599609,0.6015624 c -0.2,-0.1 -0.401173,-0.3003907 -0.701172,-0.4003906 z M 12,5.9257812 c 0.4,0 0.799219,0.024219 1.199219,0.074219 l 0.5,0.099609 c 0.2,0 0.3,0.1011719 0.5,0.2011718 l -0.6875,1.671875 C 13.039459,7.797014 12.529094,7.6992188 12,7.6992188 c -1.699998,0 -3.2003913,1.000392 -3.9003906,2.4003902 L 6.3007812,9.4003906 C 6.4007812,9.3003907 6.5,9.0999999 6.5,9 L 6.8007812,8.5996094 C 7.2007809,7.8996101 7.8000007,7.4003901 8.5,6.9003906 L 8.9003906,6.5996094 c 0.1,0 0.3000002,-0.099219 0.5,-0.1992188 L 10.099609,8 10.5,7.8007812 10.099609,7 9.8007812,6.1992188 C 10.000781,6.0992189 10.100781,6.0999999 10.300781,6 h 0.5 C 11.200781,5.95 11.6,5.9257812 12,5.9257812 Z m 5.5,0.1738282 0.199219,0.2011718 -0.59961,1.3984376 C 16.79961,7.2992191 16.4,6.9992184 16,6.6992188 Z m -11.0996094,0.099609 1.5,0.6015624 C 7.4003911,7.1007809 6.9992185,7.500391 6.6992188,7.9003906 L 6.0996094,6.5 Z M 14.5,6.3007812 C 14.7,6.4007811 14.8,6.5 15,6.5 l 0.400391,0.3007812 C 16.00039,7.3007808 16.5,7.8003912 17,8.4003906 l 0.300781,0.4003906 0.298828,0.5996094 -1.699218,0.6992184 C 15.428909,9.156647 14.594082,8.3966948 13.580078,8 h 0.220703 z m 3.599609,0.5 c 0.4,0.3999996 0.79961,0.99961 1.09961,1.5996094 L 17.900391,9 C 17.800391,8.7000003 17.6,8.500781 17.5,8.3007812 Z m -12.4003902,0.099609 0.6015624,1.5 L 6,9 4.5996094,8.5 C 4.8996091,7.9000006 5.2992191,7.4003901 5.6992188,6.9003902 Z m 6.4003902,1 c 2.199998,0 4,1.8000022 4,4.0000008 0,0.399999 3.91e-4,0.7 -0.09961,1 -0.1,-0.2 -0.19961,-0.6 -0.599609,-0.5 C 14.800391,12.60039 15,14 15,14 c 0,0 7.82e-4,0.2 0.300781,0 l 0.298828,-0.199219 c 0,0 0.101172,-0.201172 0.201172,-0.201172 -0.299999,0.6 -0.800391,1.19961 -1.40039,1.59961 V 14.5 14.099609 c 0,-0.199999 0.09961,-0.499219 0.09961,-0.699218 v -0.09961 C 14.4,13.100781 14.199219,13.3 14.199219,13.5 c 0,0.799999 0.0012,1.399219 -0.298828,1.699219 C 13.400391,15.599218 13.1,15.9 13,16 c 0,0.1 -0.09922,0.09961 -0.199219,0.09961 -0.2,0 -0.4,7.81e-4 -0.5,-0.199218 l -0.101562,-0.09961 c 0,0 -0.09961,-3.9e-4 -0.09961,0.09961 -0.1,0.199999 -0.4,0.199218 -0.5,0.199218 -0.1,0 -0.09922,3.91e-4 -0.199218,-0.09961 -0.0791,-0.0791 -0.287849,-0.28655 -0.617188,-0.566406 0.03886,-0.01846 0.07833,-0.0332 0.117188,-0.0332 V 15 c -0.1,0 -0.300391,-3.91e-4 -0.400391,0.09961 0,0.02739 -1.02e-4,0.06328 0.002,0.101563 -7.81e-4,-6.25e-4 -0.0012,-0.0013 -0.002,-0.002 -0.113964,-0.151953 -0.169763,-0.317987 -0.201172,-0.509766 -0.0027,-0.01631 -0.0055,-0.0341 -0.0078,-0.05078 0.0038,0.01892 0.0069,0.03525 0.0078,0.05078 1.86e-4,0.0033 0.002,0.0066 0.002,0.0098 0.1,0 0.198828,0.1 0.298828,0 0.1,-0.1 0.1,-0.298438 0,-0.398438 h -0.298828 c -0.01672,0.01672 -0.02822,0.03527 -0.03516,0.05664 -0.016,-0.245506 -0.02427,-0.520369 -0.06641,-0.857422 -0.2,-0.2 -0.4000003,-0.299609 -0.5000002,-0.09961 V 13.5 c 0,0.3 0.1015624,0.599219 0.1015624,0.699219 v 0.40039 c 0,0.2 -0.1,0.401173 0,0.701172 -0.5999993,-0.399999 -1.0007815,-0.9 -1.3007812,-1.5 L 8.8007812,14 c 0.2999998,0.2 0.2988282,0 0.2988282,0 0,0 0.1996087,-1.39961 -0.4003906,-1.599609 -0.2999998,-0.1 -0.4000002,-7.81e-4 -0.5,0.199218 0,-0.199999 -0.099609,-0.399219 -0.099609,-0.699218 0,-2.1999982 1.8000022,-4.0000004 3.9999992,-4.0000008 z m 0,0.2988282 c -3.8999957,0.4 -3.1992184,2.7011726 -3.1992184,2.7011726 0,0 0.1999998,0.498828 0,0.798828 C 8.7003908,11.999218 8.6992188,12.200781 8.6992188,12.300781 9.399218,12.500781 9.4003906,13 9.4003906,13 c 0,0 -0.00117,0.199609 0.2988282,0.09961 0.3999992,-0.299999 0.7011722,0.500782 0.7011722,0.800782 L 11,13.800781 H 11.199219 12 12.699219 12.900391 L 13.5,13.900391 h 0.09961 c 0.1,-0.2 0.300392,-1.000781 0.900391,-0.800782 0.3,0 0.300781,-0.09961 0.300781,-0.09961 0,0 -7.8e-4,-0.499219 0.699219,-0.699219 0,-0.1 7.81e-4,-0.301563 -0.199219,-0.601562 -0.1,-0.3 0,-0.798828 0,-0.798828 0,0 0.598825,-2.3011726 -3.201172,-2.7011722 z m 7.59961,0.9003906 C 19.799219,9.8996086 20,10.499219 20,11.199219 l -0.800781,-0.298828 c 0.2,-0.1 0.300781,-0.300001 0.300781,-0.5 0,-0.3 -0.2,-0.5000004 -0.5,-0.5000004 -0.2,0 -0.4,0.098828 -0.5,0.2988284 0,-0.2 -0.09961,-0.3000005 -0.09961,-0.5000002 z m -15.3984378,0.2011718 1.2988282,0.5 c 0,0.1 -0.099609,0.2984382 -0.099609,0.3984382 -0.1,-0.2000005 -0.3000002,-0.3984382 -0.5,-0.3984382 -0.2999997,0 -0.5,0.2000012 -0.5,0.5000002 0,0.2 0.1007815,0.4 0.3007812,0.5 L 3.900391,11.199219 c 0,-0.7 0.2003909,-1.2984388 0.4003902,-1.8984382 z m 13.3984378,0.398438 c 0.1,0.1999997 0.101172,0.4015622 0.201172,0.6015622 l 0.09961,0.5 c 0.1,0.4 0.09961,0.79961 0.09961,1.09961 0,0.399999 3.91e-4,0.799219 -0.09961,1.199218 l -0.09961,0.5 c 0,0.2 -0.101172,0.300001 -0.201172,0.5 L 16,13.400391 c 0.2,-0.5 0.300781,-1.000001 0.300781,-1.5 0,-0.5 -0.100781,-1.000001 -0.300781,-1.5 z M 6.0996094,9.8007812 7.8007812,10.5 c -0.1,0.499999 -0.2011718,1.000001 -0.2011718,1.5 0,0.499999 0.1007814,1.000391 0.3007812,1.400391 L 6.1992188,14.099609 C 6.0992189,13.89961 6,13.799609 6,13.599609 l -0.099609,-0.5 c -0.1,-0.399999 -0.099609,-0.799219 -0.099609,-1.199218 0,-0.4 -3.905e-4,-0.79961 0.099609,-1.09961 L 6,10.300781 c 0,-0.1 0.099609,-0.3 0.099609,-0.4999998 z M 11.5,10.099609 h 0.09961 c 0.1,0.2 0.300782,0.201172 0.300782,0.201172 0,0 0.198828,-0.0012 0.298828,-0.201172 h 0.101562 c 0,0.1 -0.1,0.400391 -0.5,0.400391 -0.2,0 -0.300781,-0.300391 -0.300782,-0.400391 z m 2.099609,0 H 14 c 0.1,0 0.199219,0.09961 0.199219,0.09961 L 14.5,10.5 c 0,0.2 3.91e-4,0.3 -0.09961,0.5 0,0.2 0.199218,0.39961 0.199218,0.599609 0,0.1 -0.09922,0.101172 -0.199218,0.201172 -0.2,0.1 -0.4,0.09922 -0.5,0.199219 -0.1,0.1 -0.200391,0.199609 -0.400391,0.09961 L 13.199219,11.800781 12.900391,11.5 c -0.1,-0.1 0,-0.200781 0,-0.300781 -0.2,0 -0.100391,-0.29961 0.09961,-0.59961 0.1,-0.199999 0.39961,-0.4 0.599608,-0.5 z m -3.6582028,0.201172 c 0.015625,-0.0016 0.033594,0 0.058594,0 h 0.400391 c 0.199999,0.1 0.499609,0.200001 0.599609,0.5 0.1,0.2 0.199219,0.498829 0.199219,0.798828 v 0.300782 L 10.900391,12.199219 10.599609,12.5 c -0.1,0.1 -0.30039,-0.09961 -0.40039,-0.09961 C 9.8992191,12.100391 9.7996092,12 9.5996094,12 c -0.1,0 -0.1992188,-0.09922 -0.1992188,-0.199219 0,-0.2 0.099219,-0.401562 0.1992188,-0.601562 0,-0.2 -0.099609,-0.3 -0.099609,-0.5 l 0.3007812,-0.298828 c 0.075,-0.075 0.09375,-0.09492 0.1406246,-0.09961 z m -4.640625,0.898438 V 12 c 0,0.3 -3.905e-4,0.600781 0.099609,0.800781 l -1.5,-0.601562 V 12 c -0.1,-0.1 -0.099609,-0.199219 -0.099609,-0.199219 z m 13.3984378,0 1.5,0.601562 c -0.1,0 -0.09961,0.09922 -0.09961,0.199219 v 0.300781 l -1.5,0.59961 c 0,-0.3 0.09961,-0.600391 0.09961,-0.900391 z m -7.039063,0.78125 c 0.03713,-0.0048 0.08437,7.81e-4 0.140625,0.01953 0,0 0.299218,1.900781 -0.800781,1.300781 0,0 7.82e-4,-0.301172 0.300781,-0.701172 0.1,-0.1 0.199219,-0.40039 0.199219,-0.40039 0,0 -7.57e-4,-0.19812 0.160156,-0.218749 z M 12.099609,12 c 0.3,0 0.300782,0.199219 0.300782,0.199219 0,0 0.09922,0.30039 0.199218,0.40039 0.3,0.5 0.300782,0.701172 0.300782,0.701172 C 11.800392,13.900781 12.099609,12 12.099609,12 Z M 20.5,12 20.699219,12.099609 20.5,12.199219 Z m -12,0.5 c 0.1,0 0.1992188,0.200391 0.1992188,0.400391 -1e-7,0.199999 -0.1988283,0.298828 -0.2988282,0.298828 -0.1,0 -0.2011718,-0.09883 -0.2011718,-0.298828 C 8.1992188,12.700391 8.4000001,12.5 8.5,12.5 Z m 6.800781,0.09961 c 0.2,0 0.298828,0.200391 0.298828,0.400391 0,0.2 -0.09922,0.300781 -0.199218,0.300781 -0.1,0 -0.300782,-0.100781 -0.300782,-0.300781 0,-0.2 0.0012,-0.400391 0.201172,-0.400391 z M 3.9003906,12.800781 4.6992188,13.099609 C 4.5992189,13.199609 4.5,13.4 4.5,13.5 4.5,13.8 4.7000003,14 5,14 5.1999998,14 5.4000001,13.799609 5.5,13.599609 5.5,13.699609 5.5996094,13.9 5.5996094,14 L 4.3007812,14.599609 C 4.1007814,13.99961 3.9003906,13.400781 3.9003906,12.800781 Z M 20,13 c 0,0.5 -0.200391,1.099219 -0.400391,1.699219 l -1.298828,-0.5 c 0,-0.1 0.09961,-0.298438 0.09961,-0.398438 0.1,0.2 0.3,0.398438 0.5,0.398438 0.299999,0 0.5,-0.200001 0.5,-0.5 0,-0.2 -0.101172,-0.298438 -0.201172,-0.398438 z M 8,13.800781 c 0.3999996,0.799999 1.000782,1.498438 1.8007812,1.898438 0,0.1 0.099609,0.101172 0.099609,0.201172 L 9.1992188,17.5 c -0.1,0 -0.1988283,-0.09922 -0.2988282,-0.199219 L 8.5,17 C 7.9000006,16.6 7.3003902,16.00039 6.9003906,15.400391 L 6.5996094,15 6.3007812,14.400391 Z m 7.800781,0.09961 L 17.5,14.599609 17.199219,15.199219 17,15.5 c -0.4,0.599999 -0.99961,1.1 -1.599609,1.5 l -0.5,0.300781 -0.59961,0.298828 L 13.599609,16 c 0.1,0 0.200782,-0.09922 0.300782,-0.199219 0.699999,-0.299999 1.199609,-0.9 1.599609,-1.5 0.1,-0.1 0.200781,-0.30039 0.300781,-0.40039 z M 11,14.199219 c -0.1,0.1 -0.09961,0.3 -0.09961,0.5 0.1,0.1 0.198828,0.101562 0.298828,0.101562 v -0.5 c 0,-0.1 -0.09922,-0.101562 -0.199218,-0.101562 z m 0.599609,0 c -0.1,0.2 -0.09961,0.401562 -0.09961,0.601562 0.1,0 0.300391,0.1 0.400391,0 -0.1,-0.2 -0.09961,-0.401562 -0.09961,-0.601562 z m 0.5,0 v 0.40039 c 0,0.1 -3.9e-4,0.101172 0.09961,0.201172 0.1,0 0.201172,-0.0016 0.201172,-0.101562 -0.1,-0.1 -0.09961,-0.198438 -0.09961,-0.398438 -0.1,-0.1 -0.201172,-0.101562 -0.201172,-0.101562 z m 1.300782,0 c -0.1,0.1 -0.200782,0.0016 -0.300782,0.101562 v 0.5 c 0.1,0 0.200782,-0.0016 0.300782,-0.101562 0.1,-0.2 0,-0.4 0,-0.5 z m -0.800782,0.101562 v 0.59961 h 0.300782 v -0.59961 z M 6,14.900391 c 0.1,0.299999 0.3003907,0.499219 0.4003906,0.699218 l -0.5996094,1.5 C 5.3007817,16.59961 4.8996091,16.00039 4.5996094,15.400391 Z m 12,0 1.300781,0.5 c -0.399999,0.699999 -0.801172,1.298828 -1.201172,1.798828 l -0.599609,-1.5 c 0.2,-0.2 0.3,-0.498829 0.5,-0.798828 z M 11.699219,15 v 0.03711 0.66211 H 12 c 0,-0.2 0.1,-0.39961 0,-0.59961 C 11.9,14.999609 11.799219,15 11.699219,15 Z m -0.59961,0.09961 v 0.09961 c 0,0.2 -3.9e-4,0.4 0.09961,0.5 C 11.299219,15.699219 11.4,15.6 11.5,15.5 v -0.400391 z m 1.201172,0 v 0.59961 c 0.1,0 0.198828,3.9e-4 0.298828,-0.09961 v -0.5 z m 0.398438,0 c 0.1,0.2 0.101562,0.39961 0.101562,0.59961 H 13 c 0.1,-0.1 0.09961,-0.3 0.09961,-0.5 -0.1,0 -0.20039,-0.09961 -0.40039,-0.09961 z M 10.300781,16 c 0.4,0.2 0.698828,0.600781 0.798828,0.800781 0.1,0.1 0.200782,0.09961 0.300782,0.09961 h 0.5 0.5 c 0.1,0 0.198828,3.9e-4 0.298828,-0.09961 0.1,-0.2 0.401172,-0.501172 0.701172,-0.701172 L 13.800781,17 c -0.499999,0.3 -1.101172,0.400391 -1.701172,0.400391 -0.699999,0 -1.4,-0.200001 -2,-0.5 L 9.9003906,17 Z m -3.4999998,0.199219 c 0.2999997,0.399999 0.6996098,0.801563 1.0996094,1.101562 l -1.5,0.5 -0.2011718,-0.201172 z m 10.2988278,0 0.59961,1.40039 L 17.5,17.800781 16,17.199219 c 0.4,-0.3 0.79961,-0.600001 1.099609,-1 z m -7.2988278,0.90039 c 0.5999998,0.3 1.3996098,0.5 2.0996098,0.5 0.599999,0 1.300391,-0.100391 1.90039,-0.40039 l 0.199219,0.5 c -0.1,0 -0.300391,0.101562 -0.400391,0.101562 l -0.5,0.09961 c -0.799999,0.1 -1.7,0.1 -2.5,0 l -0.5,-0.09961 c -0.1999994,-0.1 -0.3999997,-0.101172 -0.4999996,-0.201172 z M 15.5,17.5 l 1.599609,0.599609 c -0.599999,0.5 -1.198828,0.89961 -1.798828,1.09961 l -0.5,-1.298828 C 15.100781,17.800391 15.3,17.7 15.5,17.5 Z m -7.0996094,0.09961 c 0.1999998,0.1 0.3000002,0.200782 0.5,0.300782 l -0.5996094,1.199218 -1.5,-0.90039 z m 1.2988282,0.59961 c 0.1999997,0.1 0.4015622,0.101172 0.6015622,0.201172 h -0.101562 c -0.3,0 -0.5000002,0.2 -0.5000002,0.5 0,0.299999 0.2000002,0.5 0.5000002,0.5 0.2,0 0.4,-0.100782 0.5,-0.300782 L 11,19.900391 C 10.400001,19.800391 9.6996088,19.7 9.0996094,19.5 Z m 4.2011722,0.101562 0.5,1.298828 c -0.5,0.1 -1.101173,0.300782 -1.701172,0.300782 L 13,19.199219 c 0.1,0.1 0.200391,0.201172 0.400391,0.201172 0.299999,0 0.5,-0.200001 0.5,-0.5 0,-0.2 -0.200391,-0.5 -0.400391,-0.5 0.1,0 0.300391,-0.09961 0.400391,-0.09961 z M 11,18.5 c 0.599999,0.1 1.199219,0.1 1.699219,0 l -0.5,1.5 H 12 11.699219 Z m 0.800781,1.800781 H 12 l -0.09961,0.298828 z" /></svg>