<svg viewBox="0 0 24 24" data-v-5831562a=""><g><path d="M12.8,15.7c0.1,0,0.2,0,0.2,0c0.1-0.1,0.1-0.3,0.1-0.5c-0.1,0-0.2-0.1-0.4-0.1C12.8,15.3,12.8,15.5,12.8,15.7    z"></path><path d="M10.4,13.9C10.4,13.9,10.5,13.9,10.4,13.9l0.6-0.1c0.1,0,0.1,0,0.2,0H12h0.7c0.1,0,0.1,0,0.2,0l0.6,0.1    c0,0,0.1,0,0.1,0c0.1-0.2,0.3-1,0.9-0.8c0.3,0,0.3-0.1,0.3-0.1s0-0.5,0.7-0.7c0,0,0,0,0,0c0-0.1,0-0.3-0.2-0.6    c-0.1-0.3,0-0.8,0-0.8s0.6-2.3-3.2-2.7c-3.9,0.4-3.2,2.7-3.2,2.7s0.2,0.5,0,0.8c-0.2,0.3-0.2,0.5-0.2,0.6c0,0,0,0,0,0    c0.7,0.2,0.7,0.7,0.7,0.7s0,0.2,0.3,0.1C10.1,12.8,10.4,13.6,10.4,13.9z M13,10.6c0.1-0.2,0.4-0.4,0.6-0.5c0.1,0,0.3,0,0.4,0    c0.1,0,0.2,0.1,0.2,0.1c0.1,0.1,0.2,0.2,0.3,0.3c0,0.2,0,0.3-0.1,0.5c0,0.2,0.2,0.4,0.2,0.6c0,0.1-0.1,0.1-0.2,0.2    c-0.2,0.1-0.4,0.1-0.5,0.2c-0.1,0.1-0.2,0.2-0.4,0.1c-0.1-0.1-0.2-0.2-0.3-0.3c-0.1-0.1-0.2-0.2-0.3-0.3c-0.1-0.1,0-0.2,0-0.3    C12.7,11.2,12.8,10.9,13,10.6z M12.6,12.6c0.3,0.5,0.3,0.7,0.3,0.7c-1.1,0.6-0.8-1.3-0.8-1.3c0.3,0,0.3,0.2,0.3,0.2    S12.5,12.5,12.6,12.6z M11.5,10.1L11.5,10.1c0.1,0,0.1,0,0.1,0c0.1,0.2,0.3,0.2,0.3,0.2s0.2,0,0.3-0.2c0,0,0,0,0,0h0.1    c0,0,0,0,0,0c0,0.1-0.1,0.4-0.5,0.4C11.6,10.5,11.5,10.2,11.5,10.1C11.5,10.1,11.5,10.1,11.5,10.1z M11.5,12.2c0,0,0-0.3,0.3-0.2    c0,0,0.3,1.9-0.8,1.3c0,0,0-0.3,0.3-0.7C11.4,12.5,11.5,12.2,11.5,12.2z M9.6,12c-0.1,0-0.2-0.1-0.2-0.2c0-0.2,0.1-0.4,0.2-0.6    c0-0.2-0.1-0.3-0.1-0.5c0.1-0.1,0.2-0.2,0.3-0.3c0.1-0.1,0.1-0.1,0.2-0.1c0.1,0,0.3,0,0.4,0c0.2,0.1,0.5,0.2,0.6,0.5    c0.1,0.2,0.2,0.5,0.2,0.8c0,0.1,0,0.2,0,0.3c-0.1,0.1-0.2,0.2-0.3,0.3c-0.1,0.1-0.2,0.2-0.3,0.3c-0.1,0.1-0.3-0.1-0.4-0.1    C9.9,12.1,9.8,12,9.6,12z"></path><path d="M13.1,14.3c0,0.2,0,0.4,0,0.5c0.1,0,0.2,0,0.3-0.1c0.1-0.2,0-0.4,0-0.5C13.3,14.3,13.2,14.2,13.1,14.3z"></path><path d="M11.2,14.3c0-0.1-0.1-0.1-0.2-0.1c-0.1,0.1-0.1,0.3-0.1,0.5c0.1,0.1,0.2,0.1,0.3,0.1    C11.2,14.6,11.2,14.4,11.2,14.3z"></path><path d="M10.6,14.3c-0.1,0-0.2,0-0.3,0c-0.1,0.1,0,0.3,0,0.4c0.1,0,0.2,0.1,0.3,0C10.7,14.6,10.7,14.4,10.6,14.3z"></path><path d="M11.8,14.2c-0.1,0-0.2,0-0.2,0c-0.1,0.2-0.1,0.4-0.1,0.6c0.1,0,0.3,0.1,0.4,0C11.8,14.6,11.8,14.4,11.8,14.2z    "></path><path d="M11.5,15.1c-0.1,0-0.2,0-0.4,0l0,0.1c0,0.2,0,0.4,0.1,0.5c0.1,0,0.2-0.1,0.3-0.2    C11.5,15.4,11.5,15.2,11.5,15.1z"></path><path d="M10.5,15.1c0,0.1,0,0.3,0.1,0.4c0.1,0,0.2-0.1,0.3-0.1c0-0.1,0-0.3,0-0.4C10.8,15,10.6,15,10.5,15.1z"></path><path d="M11.7,15C11.7,15,11.7,15.1,11.7,15c0,0.3,0,0.5,0,0.7c0.1,0,0.2,0,0.3,0c0-0.2,0.1-0.4,0-0.6    C11.9,15,11.8,15,11.7,15z"></path><path d="M12.9,14.3c-0.1,0-0.2,0-0.3,0c0,0.2,0,0.4,0,0.6c0.1,0,0.2,0,0.3,0C12.9,14.7,12.9,14.5,12.9,14.3z"></path><path d="M12.3,15.1c0,0.2,0,0.4,0,0.6c0.1,0,0.2,0,0.3-0.1c0-0.2,0-0.3,0-0.5C12.5,15.1,12.4,15.1,12.3,15.1z"></path><path d="M12.3,14.3c-0.1-0.1-0.2-0.1-0.2-0.1c0,0.1,0,0.3,0,0.4c0,0.1,0,0.1,0.1,0.2c0.1,0,0.2,0,0.2-0.1    C12.3,14.6,12.3,14.5,12.3,14.3z"></path><path d="M5.6,17.6l-0.5,1.3l1.3-0.5c1.3,1.1,3,1.8,4.8,2l0.7,1.7l0.7-1.7c1.9-0.1,3.6-0.9,4.9-2l1.3,0.5l-0.5-1.3    c1.2-1.3,2-3.1,2.2-5L22,12l-1.5-0.6c-0.1-2-0.9-3.7-2.2-5.1l0.5-1.2l-1.2,0.5c-1.3-1.1-3-1.9-4.9-2L12,2l-0.6,1.6    c-1.9,0.1-3.6,0.9-5,2L4.9,5l0.6,1.4c-1.2,1.3-1.9,3.1-2.1,4.9L2,12l1.4,0.6C3.6,14.5,4.4,16.2,5.6,17.6z M20.5,12l0.2,0.1    l-0.2,0.1C20.5,12,20.5,12,20.5,12z M3.9,12.8l0.8,0.3c-0.1,0.1-0.2,0.3-0.2,0.4c0,0.3,0.2,0.5,0.5,0.5c0.2,0,0.4-0.2,0.5-0.4    c0,0.1,0.1,0.3,0.1,0.4l-1.3,0.6C4.1,14,3.9,13.4,3.9,12.8z M4.6,15.4L6,14.9c0.1,0.3,0.3,0.5,0.4,0.7l-0.6,1.5    C5.3,16.6,4.9,16,4.6,15.4z M6,10.3C6,10.2,6.1,10,6.1,9.8l1.7,0.7C7.7,11,7.6,11.5,7.6,12c0,0.5,0.1,1,0.3,1.4l-1.7,0.7    C6.1,13.9,6,13.8,6,13.6l0,0l-0.1-0.5c-0.1-0.4-0.1-0.8-0.1-1.2c0-0.4,0-0.8,0.1-1.1L6,10.3L6,10.3z M8.9,6.6    C9,6.6,9.2,6.5,9.4,6.4L10.1,8l0.4-0.2L10.1,7c0,0,0,0,0,0c0,0,0,0,0,0L9.8,6.2c0.2-0.1,0.3-0.1,0.5-0.2l0,0L10.8,6    c0.8-0.1,1.6-0.1,2.4,0l0.5,0.1l0,0c0.2,0,0.3,0.1,0.5,0.2l-0.7,1.7L13.8,8l0.7-1.7c0.2,0.1,0.3,0.2,0.5,0.2l0,0l0.4,0.3    C16,7.3,16.5,7.8,17,8.4l0.3,0.4l0,0c0.1,0.2,0.2,0.4,0.3,0.6l-1.7,0.7c-0.7-1.4-2.2-2.4-3.9-2.4c-1.7,0-3.2,1-3.9,2.4L6.3,9.4    C6.4,9.3,6.5,9.1,6.5,9l0.3-0.4c0.4-0.7,1-1.2,1.7-1.7L8.9,6.6L8.9,6.6z M18,10.8c0.1,0.4,0.1,0.8,0.1,1.1c0,0.4,0,0.8-0.1,1.2    l-0.1,0.5l0,0c0,0.2-0.1,0.3-0.2,0.5L16,13.4c0.2-0.5,0.3-1,0.3-1.5c0-0.5-0.1-1-0.3-1.5l1.7-0.7c0.1,0.2,0.1,0.4,0.2,0.6l0,0    L18,10.8z M14.9,17.3c-0.2,0.1-0.4,0.2-0.6,0.3l-0.7-1.6c0,0,0,0,0,0c0.1,0,0.2-0.1,0.3-0.2c0.7-0.3,1.2-0.9,1.6-1.5    c0.1-0.1,0.2-0.3,0.3-0.4l1.7,0.7c-0.1,0.2-0.2,0.4-0.3,0.6l0,0L17,15.5c-0.4,0.6-1,1.1-1.6,1.5L14.9,17.3L14.9,17.3z M13.1,17.9    c-0.8,0.1-1.7,0.1-2.5,0l-0.5-0.1l0,0c-0.2-0.1-0.4-0.1-0.5-0.2l0.2-0.5c0.6,0.3,1.4,0.5,2.1,0.5c0.6,0,1.3-0.1,1.9-0.4l0.2,0.5    c-0.1,0-0.3,0.1-0.4,0.1l0,0L13.1,17.9z M9.7,13.4c0,0,0,0.1,0,0.1c0,0.3,0.1,0.6,0.1,0.7c0,0.1,0,0.2,0,0.4c0,0.2-0.1,0.4,0,0.7    c-0.6-0.4-1-0.9-1.3-1.5c0,0,0,0,0,0s0,0,0.3,0.2c0.3,0.2,0.3,0,0.3,0s0.2-1.4-0.4-1.6c-0.3-0.1-0.4,0-0.5,0.2    c0-0.2-0.1-0.4-0.1-0.7c0-2.2,1.8-4,4-4s4,1.8,4,4c0,0.4,0,0.7-0.1,1c-0.1-0.2-0.2-0.6-0.6-0.5c-0.6,0.2-0.4,1.6-0.4,1.6    s0,0.2,0.3,0c0.3-0.2,0.3-0.2,0.3-0.2s0.1-0.2,0.2-0.2c-0.3,0.6-0.8,1.2-1.4,1.6c0-0.3,0-0.5,0-0.7c0-0.1,0-0.2,0-0.4    c0-0.2,0.1-0.5,0.1-0.7c0,0,0-0.1,0-0.1c-0.1-0.2-0.3,0-0.3,0.2c0,0.8,0,1.4-0.3,1.7c-0.5,0.4-0.8,0.7-0.9,0.8    c0,0.1-0.1,0.1-0.2,0.1c-0.2,0-0.4,0-0.5-0.2c0,0-0.1-0.1-0.1-0.1c0,0-0.1,0-0.1,0.1c-0.1,0.2-0.4,0.2-0.5,0.2    c-0.1,0-0.1,0-0.2-0.1c-0.1-0.1-0.4-0.4-0.9-0.8c-0.3-0.4-0.2-0.9-0.3-1.7C10,13.3,9.8,13.2,9.7,13.4z M8.4,13.2    c-0.1,0-0.2-0.1-0.2-0.3c0-0.2,0.2-0.4,0.3-0.4s0.2,0.2,0.2,0.4C8.7,13.1,8.5,13.2,8.4,13.2z M15.6,13c0,0.2-0.1,0.3-0.2,0.3    c-0.1,0-0.3-0.1-0.3-0.3c0-0.2,0-0.4,0.2-0.4S15.6,12.8,15.6,13z M10.3,16c0.4,0.2,0.7,0.6,0.8,0.8c0.1,0.1,0.2,0.1,0.3,0.1h0.5    h0.5c0.1,0,0.2,0,0.3-0.1c0.1-0.2,0.4-0.5,0.7-0.7l0.4,0.9c-0.5,0.3-1.1,0.4-1.7,0.4c-0.7,0-1.4-0.2-2-0.5L9.9,17L10.3,16z     M6.4,17.8c-0.1-0.1-0.2-0.2-0.2-0.2l0.6-1.4c0.3,0.4,0.7,0.8,1.1,1.1L6.4,17.8z M8.3,19.1c-0.5-0.3-1-0.6-1.5-0.9l1.6-0.6    c0.2,0.1,0.3,0.2,0.5,0.3L8.3,19.1z M8.5,17c-0.6-0.4-1.2-1-1.6-1.6l-0.3-0.4l0,0c-0.1-0.2-0.2-0.4-0.3-0.6L8,13.8    c0.4,0.8,1,1.5,1.8,1.9c0,0.1,0.1,0.1,0.1,0.2l-0.7,1.6c-0.1,0-0.2-0.1-0.3-0.2l0,0L8.5,17z M9.1,19.5l0.6-1.3    c0.2,0.1,0.4,0.1,0.6,0.2c0,0,0,0-0.1,0c-0.3,0-0.5,0.2-0.5,0.5s0.2,0.5,0.5,0.5c0.2,0,0.4-0.1,0.5-0.3l0.3,0.8    C10.4,19.8,9.7,19.7,9.1,19.5z M11.9,20.6l-0.1-0.3c0.1,0,0.1,0,0.2,0c0,0,0,0,0,0L11.9,20.6z M12.2,20c-0.1,0-0.1,0-0.2,0    c-0.1,0-0.2,0-0.3,0L11,18.5c0.6,0.1,1.2,0.1,1.7,0L12.2,20z M12.7,19.9l0.3-0.7c0.1,0.1,0.2,0.2,0.4,0.2c0.3,0,0.5-0.2,0.5-0.5    c0-0.2-0.2-0.5-0.4-0.5c0.1,0,0.3-0.1,0.4-0.1l0.5,1.3C13.9,19.7,13.3,19.9,12.7,19.9z M15.3,19.2l-0.5-1.3    c0.3-0.1,0.5-0.2,0.7-0.4l1.6,0.6C16.5,18.6,15.9,19,15.3,19.2z M17.5,17.8L16,17.2c0.4-0.3,0.8-0.6,1.1-1l0.6,1.4    C17.6,17.7,17.6,17.7,17.5,17.8z M18.1,17.2l-0.6-1.5c0.2-0.2,0.3-0.5,0.5-0.8l1.3,0.5C18.9,16.1,18.5,16.7,18.1,17.2z M19.6,14.7    l-1.3-0.5c0-0.1,0.1-0.3,0.1-0.4c0.1,0.2,0.3,0.4,0.5,0.4c0.3,0,0.5-0.2,0.5-0.5c0-0.2-0.1-0.3-0.2-0.4l0.8-0.3    C20,13.5,19.8,14.1,19.6,14.7z M20.1,12c0,0.1,0,0.2,0,0.3l-1.5,0.6c0-0.3,0.1-0.6,0.1-0.9c0-0.3,0-0.5,0-0.8l1.5,0.6    C20.1,11.8,20.1,11.9,20.1,12z M20,11.2l-0.8-0.3c0.2-0.1,0.3-0.3,0.3-0.5c0-0.3-0.2-0.5-0.5-0.5c-0.2,0-0.4,0.1-0.5,0.3    c0-0.2-0.1-0.3-0.1-0.5l1.3-0.6C19.8,9.9,20,10.5,20,11.2z M19.2,8.4L17.9,9c-0.1-0.3-0.3-0.5-0.4-0.7l0.6-1.5    C18.5,7.2,18.9,7.8,19.2,8.4z M17.5,6.1c0.1,0.1,0.1,0.1,0.2,0.2l-0.6,1.4c-0.3-0.4-0.7-0.7-1.1-1L17.5,6.1z M15.4,4.7    c0.6,0.3,1.1,0.6,1.6,1l-1.6,0.6c-0.2-0.1-0.4-0.3-0.7-0.4L15.4,4.7z M14.6,4.4l-0.6,1.3c-0.1,0-0.3-0.1-0.5-0.1    c0.3,0,0.5-0.3,0.5-0.5c0-0.3-0.2-0.5-0.5-0.5c-0.2,0-0.4,0.1-0.5,0.3L12.8,4C13.4,4.1,14,4.2,14.6,4.4z M12,3.4L12,3.6    c0,0-0.1,0-0.1,0c0,0,0,0-0.1,0L12,3.4z M11.7,4c0.1,0,0.1,0,0.2,0c0.1,0,0.2,0,0.3,0l0.6,1.4c-0.3,0-0.6-0.1-0.8-0.1    c-0.3,0-0.5,0-0.8,0L11.7,4z M11.2,4l-0.3,0.8c-0.1-0.2-0.3-0.3-0.5-0.3c-0.3,0-0.5,0.2-0.5,0.5c0,0.3,0.2,0.5,0.5,0.5    c-0.2,0-0.3,0.1-0.5,0.1L9.3,4.4C9.9,4.2,10.5,4.1,11.2,4z M8.5,4.7L9,6C8.8,6.2,8.6,6.3,8.3,6.4L6.8,5.8C7.3,5.4,7.9,5,8.5,4.7z     M6.4,6.2l1.5,0.6C7.4,7.1,7,7.5,6.7,7.9L6.1,6.5C6.2,6.4,6.3,6.3,6.4,6.2z M5.9,6C5.9,6,5.9,6,5.9,6L5.9,6L5.9,6z M5.7,6.9    l0.6,1.5C6.2,8.6,6.1,8.8,6,9L4.6,8.5C4.9,7.9,5.3,7.4,5.7,6.9z M4.3,9.3l1.3,0.5c0,0.1-0.1,0.3-0.1,0.4C5.4,10,5.2,9.8,5,9.8    c-0.3,0-0.5,0.2-0.5,0.5c0,0.2,0.1,0.4,0.3,0.5l-0.9,0.4C3.9,10.5,4.1,9.9,4.3,9.3z M3.8,11.8l1.5-0.6c0,0.3,0,0.5,0,0.8    c0,0.3,0,0.6,0.1,0.8l-1.5-0.6c0-0.1,0-0.1,0-0.2C3.8,11.9,3.8,11.8,3.8,11.8z M3.3,12L3.3,12C3.4,12,3.4,12,3.3,12    C3.4,12,3.4,12,3.3,12L3.3,12z"></path></g></svg>
