<svg viewBox="0 0 24 24" data-v-5831562a=""><path d="M17.2,13.22v.46a.12.12,0,0,1-.12.12H15.79a.18.18,0,0,1-.18-.18V12.51A3.87,3.87,0,1,0,11,7.83a3.86,3.86,0,1,0-4.72,4.65V13.6a.2.2,0,0,1-.2.2H4.15a.14.14,0,0,0-.14.14V15a.15.15,0,0,0,.15.15H6.1a.18.18,0,0,1,.18.18V18a.13.13,0,0,0,.14.13h9.06a.13.13,0,0,0,.13-.13V15.33a.16.16,0,0,1,.17-.16h1.3a.12.12,0,0,1,.12.12v.46a.14.14,0,0,0,.1.13l3.16.84a.13.13,0,0,0,.16-.12V12.37a.13.13,0,0,0-.16-.12l-3.16.85A.12.12,0,0,0,17.2,13.22Zm-2.44-5.5a1,1,0,1,1-1,1A1,1,0,0,1,14.76,7.72ZM11,9.66a3.91,3.91,0,0,0,2.62,2.78H8.39A3.88,3.88,0,0,0,11,9.66ZM7.25,7.72a1,1,0,1,1-1,1A1,1,0,0,1,7.25,7.72Z" transform="translate(0 0)"></path></svg>
