<svg viewBox="0 0 24 24"><path d="M11.1,2.1c0.6-0.1,1.1-0.1,1.7,0c0,1.2,0,2.4,0,3.6c0.5-0.5,1-1,1.5-1.5c0.4,0.4,0.8,0.8,1.3,1.1v0.1    c-0.4,0.4-0.8,0.7-1.3,1.1c-0.5,0.6-1,1.2-1.3,2c-0.3,0.6-0.4,1.4-0.1,2.1c0.3,0.8,1,1.4,1.7,1.8c0.3,0.1,0.6,0.4,0.9,0.4    c0.5,0.1,1.1-0.1,1.5-0.4c0.6-0.4,1.2-1,1.5-1.7c0.4-0.7,0.6-1.5,0.6-2.4c0-1.1-0.2-2.2-0.6-3.2c-0.1-0.4-0.3-0.7-0.4-1.1    c1.1,0.9,2,2,2.7,3.2c0.6,1.2,1,2.5,1.1,3.9c0.1,1.7-0.2,3.4-0.9,4.9c-0.6,1.3-1.5,2.5-2.7,3.5c-1.1,0.9-2.5,1.6-3.9,2    s-2.9,0.4-4.4,0.1c-1.5-0.3-2.9-1-4.2-1.9c-2.2-1.7-3.7-4.4-3.9-7.1l0,0c0-0.6,0-1.3,0.1-2c0.3-2.3,1.4-4.6,3.2-6.2    c0.1-0.1,0.4-0.3,0.6-0.5C5.5,4.9,5.2,5.6,5,6.3l0,0c-0.2,1-0.3,2-0.1,3C5.1,10.1,5.4,11,6,11.6c0.5,0.6,1.1,1,1.8,1.1    c0.2,0,0.4,0,0.6,0c0.3-0.1,0.6-0.2,0.8-0.4c0.7-0.4,1.3-1,1.7-1.7c0.3-0.6,0.3-1.3,0.1-1.9c-0.2-0.8-0.7-1.5-1.3-2.2    C9.4,6.1,8.9,5.6,8.4,5.2c0.4-0.4,0.8-0.8,1.3-1.1c0.5,0.5,1,1,1.5,1.5C11.1,4.4,11.1,3.2,11.1,2.1z"></path></svg>
