<svg viewBox="0 0 24 24" data-v-5831562a=""><g><g><path class="st1" d="M18.2,5.4c0.2-0.2,0.4-0.4,0.7-0.6c0,0.4-0.3,0.7-0.5,1.1c0.2-0.2,0.3-0.5,0.6-0.6c-0.1,0.2-0.2,0.4-0.2,0.6     C18.9,5.7,19,5.5,19,5.3c0,0.1,0.1,0.2,0.2,0.3c0.1-0.2,0.3-0.6,0.5-0.3c-0.1,0-0.2,0-0.2,0c-0.1,0.2-0.2,0.4-0.3,0.6     c0.1,0,0.3-0.1,0.3-0.2c-0.1,0.3-0.2,0.5-0.4,0.7c-0.2,0.4-0.6,0.7-0.4,1.1c0,0.3,0,0.5,0,0.8c0.3,0.3,0.8,0.5,1.1,0.9     c-0.1,0-0.2,0.1-0.2,0.1c0.2,0,0.3,0.1,0.4,0.2c0,0.1,0.1,0.2,0.1,0.3l-0.1,0c0,0.2,0.1,0.4-0.1,0.6c0.1,0,0.2,0,0.3,0     c-0.1,0-0.2,0.1-0.2,0.1l0,0.1c-0.2,0-0.3,0-0.5,0.1c0.1,0,0.3,0,0.3,0.1c0,0.1,0,0.2-0.1,0.3c-0.1,0-0.2,0-0.3,0     c0,0.1,0,0.2,0,0.2c-0.2-0.2-0.4-0.4-0.7-0.7c-0.2-0.1-0.5-0.2-0.7-0.3c0,0,0.1-0.1,0.2-0.2c0,0-0.1,0.1-0.2,0.1     c-0.3-0.4-0.7-0.7-1.1-0.9l0,0.2l-0.1,0c0,0.1-0.1,0.2-0.1,0.3c0,0-0.1,0.1-0.1,0.1l-0.1,0c0,0,0,0.1,0,0.2l-0.1,0l0,0.1l-0.1,0     l0,0.1l-0.1,0c0,0.1-0.1,0.2-0.1,0.3l-0.1,0l0,0.1l-0.1,0l0,0.2c-0.1,0-0.2,0-0.2,0c0,0.1,0,0.2,0.1,0.2l-0.2,0l0-0.1     c-0.1,0-0.4-0.1-0.5-0.1c0.1,0,0.4-0.1,0.5-0.1c-0.2,0-0.4,0-0.7,0c0.1-0.2,0.1-0.4,0.1-0.5c-0.2,0.2-0.4,0.3-0.5,0.5     c0.2-0.4,0.5-0.8,0.7-1.2l0,0c0.2-0.3,0.4-0.7,0.6-1c0-0.1,0-0.3,0.1-0.4c-0.6-0.4-1.1-1-1.6-1.5c0.1,0,0.2,0.1,0.3,0.1l-0.1-0.2     c0.1,0,0.3,0,0.4,0l0,0.1c0.1,0,0.2,0,0.2,0c0-0.1,0-0.2,0-0.2c-0.1,0-0.3,0-0.4,0.1c0.1-0.1,0.2-0.2,0.3-0.2     c-0.1-0.2-0.3-0.3-0.4-0.5c0.1,0.1,0.3,0.1,0.4,0.2c0.2,0.1,0.3,0.2,0.5,0.3C15.4,6,15.2,5.7,15,5.4c0.4,0.2,0.7,0.5,1.1,0.8     c0.3,0.3,0.7,0.5,1,0.7c0-0.1,0-0.2,0-0.3c0.2,0,0.3-0.1,0.4-0.3c0.1-0.1,0.2-0.2,0.3-0.3C18,5.9,18.1,5.7,18.2,5.4z M18.3,7.9      M18.5,8"></path></g><path d="M8.2,6.1C8.3,6,8.4,5.8,8.4,5.7c0,0.1,0,0.3,0,0.4C8.5,6.1,8.7,6,8.8,6L8.6,6.2l0.2,0    C8.7,5.9,8.6,5.6,9.1,5.7c0,0.2,0,0.5,0,0.7c0-0.1,0.1-0.2,0.1-0.3C9.4,6.1,9.7,6,9.8,5.9C9.6,6.2,9.5,6.4,9.3,6.7    c0,0.1,0,0.3,0,0.4C9.2,7.2,9.2,7.3,9.1,7.4l0.2-0.1C9.3,7.5,9.2,7.6,9.2,7.8c0,0-0.1,0.1-0.1,0.1C9,7.9,9,8.1,9,8.1l0,0l0,0.1    l-0.1,0l0.1,0.1L8.7,8.3l0,0.1l-0.1,0c0,0.1,0,0.3,0,0.4c0,0.1-0.1,0.2-0.2,0.3c0.4,0.4,0.9,0.8,1.2,1.3l-0.3-0.1    c0.2,0.2,0.4,0.5,0.6,0.7c0.1,0,0.2,0.1,0.3,0.1c-0.1,0-0.2,0.1-0.3,0.1c-0.1-0.1-0.3-0.3-0.5-0.4c0.1,0.1,0.2,0.4,0.2,0.5    C9.3,11,9,10.7,8.6,10.5c0.1,0.1,0.2,0.2,0.2,0.3l-0.1,0c-0.1-0.1-0.4-0.3-0.6-0.4c0.2,0.3,0.5,0.5,0.7,0.8    c-0.5-0.3-0.9-0.8-1.5-1.1l0,0.2c-0.1,0-0.3,0-0.3,0l0.1,0.2l-0.2-0.1L7,10.5c-0.1,0-0.2,0-0.3,0c0,0.1,0,0.2,0,0.2l-0.1,0l0,0.1    c-0.1,0-0.2,0-0.2,0c0,0.1,0,0.2,0,0.2l-0.1,0c0,0-0.1,0.1-0.1,0.1l0,0c-0.3,0.2-0.5,0.4-0.7,0.6c0-0.1,0.1-0.3,0.1-0.4    c0,0.1-0.1,0.2-0.1,0.2c0-0.2-0.2-0.3-0.3-0.4c-0.1,0-0.3,0.1-0.4,0.2c0-0.3,0.1-0.5,0.3-0.6c-0.2,0.2-0.5,0.4-0.7,0.5    c0.2-0.3,0.3-0.5,0.5-0.8c0.1-0.1,0.3-0.3,0.4-0.5c0,0-0.1-0.1-0.2-0.2c0.1,0,0.2,0.1,0.3,0.1l0-0.1c0.3-0.3,0.5-0.6,0.7-1    c-0.3-0.3-0.7-0.6-0.9-1c0,0-0.1,0-0.2-0.1l0-0.1L4.9,7.6C4.8,7.5,4.7,7.3,4.7,7.2c0.1,0,0.2,0,0.3,0c0.2,0,0.4,0,0.6,0    C5.4,7,5.3,6.9,5.1,6.8c0.1-0.1,0.3-0.1,0.4-0.2c0,0,0.1,0,0.2,0C5.8,6.6,5.9,6.7,6,6.7c0.3,0.3,0.7,0.5,1,0.9C7,7.5,7,7.3,7,7.2    c0,0.1,0,0.4,0,0.5c0.2-0.2,0.3-0.4,0.5-0.5c0,0,0.1-0.1,0.1-0.1l0-0.1l0.1,0c0-0.1,0-0.3,0-0.4c0.1,0,0.2,0,0.3,0    c0-0.1-0.1-0.2-0.2-0.2l0.2,0c0-0.1,0-0.3-0.1-0.3C8.1,6.1,8.2,6.1,8.2,6.1z"></path><path d="M8.8,10.8C8.8,10.8,8.9,10.8,8.8,10.8C8.9,10.8,8.8,10.8,8.8,10.8z"></path><path d="M8.9,10.8L8.9,10.8c0.2,0,0.3,0.2,0.3,0.3C9.1,11.1,8.9,11,8.9,10.8z"></path><path d="M20.3,12.8c0,0,0.1,0,0.2,0c-0.1,0.2-0.2,0.4-0.3,0.7c0.1-0.1,0.3-0.2,0.4-0.2c-0.1,0.3-0.3,0.5-0.5,0.8    c0.1-0.1,0.4-0.4,0.6-0.6c-0.2,0.2-0.2,0.5-0.2,0.8c-0.1,0.2-0.3,0.5-0.4,0.7c-0.1,0-0.2,0-0.2,0c0,0.2,0,0.3,0,0.5    c-0.1,0-0.3,0-0.4,0l0,0.1c0.1,0,0.2,0,0.3,0c0,0.1,0,0.3,0,0.3c-0.1,0-0.2,0-0.3-0.1l0-0.1l0-0.1c-0.1,0.1,0,0.4-0.3,0.4    c0.1,0,0.2,0,0.3,0c-0.2,0.3,0.3,0.3,0.4,0.5c0,0.2-0.1,0.3-0.1,0.5c-0.3-0.1-0.6-0.3-0.9-0.4l0.1,0.3c0.3,0-0.1,0.1-0.1,0.2    c0-0.1,0-0.2,0-0.2c-0.1,0-0.2,0-0.3-0.1l0.3,0c-0.1-0.1-0.2-0.3-0.3-0.4c0,0.1,0,0.3,0,0.3l0,0l0-0.2c-0.1,0-0.2,0-0.3,0.1    c0.1,0.5,0.1,1,0.2,1.4c-0.1,0-0.2,0.1-0.2,0.2c-0.6-0.1-0.4-0.8-0.5-1.2c-0.3,0.1-0.5,0.3-0.8,0.4c-0.3,0.1-0.5,0.2-0.8,0.3    c0,0.1,0.1,0.1,0.1,0.2c0.1,0,0.2,0,0.3,0c0,0-0.1,0.1-0.2,0.1c0.1,0.1,0.1,0.2,0.2,0.3c-0.1,0.1-0.2,0.3-0.3,0.4    c-0.3-0.2-0.4-0.6-0.8-0.6l0.1-0.2c-0.1,0.1-0.2,0.1-0.3,0.2c-0.1,0-0.3,0-0.4,0l0,0.1c-0.2,0-0.4,0-0.6,0l0.1,0.1    c-0.3,0-0.6,0-0.9,0l0,0.1c-0.4,0-0.9,0-1.3,0c0,0,0-0.1,0-0.1l-0.2,0c-0.1,0-0.2,0.1-0.3,0.1c0.1,0.2,0.3,0.3,0.2,0.5    c-0.1,0.1-0.3,0.1-0.4,0.2c-0.1-0.3-0.2-0.5-0.4-0.8c-0.2,0-0.3,0-0.5,0c-0.1,0.1-0.2,0.3-0.2,0.4c-0.1-0.1-0.2-0.2-0.3-0.3    c0-0.1,0.1-0.2,0.1-0.3c-0.3,0-0.5,0-0.8-0.1c-0.5-0.1-1-0.2-1.5-0.4c0,0.3,0.1,0.5,0.2,0.8c-0.2,0.1-0.5,0.1-0.8,0.1    c-0.1-0.4-0.1-0.9-0.2-1.3c-0.3,0.3-0.5,0.5-0.7,0.9c-0.1-0.1-0.3-0.2-0.4-0.3c0.2-0.3,0.3-0.5,0.5-0.7c-0.2-0.2-0.5-0.4-0.8-0.5    c-0.2-0.1-0.4-0.2-0.5-0.4c-0.4-0.3-0.8-0.6-1.1-1c-0.3-0.3-0.5-0.6-0.8-0.9c0,0-0.1,0-0.1,0l0-0.2c0.1,0.3,0.3,0.3,0.5,0.3    c0-0.3-0.1-0.5-0.2-0.7C4,13.8,4.2,14,4.4,14.2c-0.2-0.3-0.4-0.5-0.5-0.8c0.4,0.3,0.7,0.7,1.1,1c0.1,0.1,0.2,0.1,0.3,0.2v0.1    c0,0,0.1,0,0.1,0c0.1,0.1,0.2,0.2,0.3,0.2l0,0C5.9,15,6,15,6.1,15.1l0,0.1c0.1,0,0.2,0,0.2,0c0-0.1,0-0.2,0-0.3    c0.2,0.2,0.4,0.4,0.6,0.2c-0.1,0.1-0.2,0.3-0.2,0.3c0.1-0.2,0.2-0.2,0.4-0.1c0-0.2,0-0.5,0-0.7c0.2-0.1,0.3-0.1,0.5-0.2    c0.1,0.5,0.1,0.9,0.2,1.3c0.3-0.3,0.6-0.6,0.8-1c0.1,0,0.2,0,0.2-0.1c0,0.1,0,0.2,0,0.2c0.1,0,0.2,0,0.3,0c-0.3,0.5-0.7,0.8-1,1.2    c0.1,0,0.3,0,0.4,0c0,0,0.1-0.1,0.1-0.2c0.1,0,0.2-0.1,0.3-0.1c-0.1,0-0.2,0.1-0.2,0.1c0,0.2,0.2,0.1,0.3,0.2    c-0.1,0-0.3,0.1-0.4,0.1c0.7,0.3,1.5,0.5,2.2,0.5c-0.1-0.3-0.3-0.7-0.4-1c0.1-0.1,0.2-0.3,0.4-0.2c0.2,0.4,0.3,0.8,0.5,1.2    c0.2-0.3,0.4-0.6,0.6-0.9c0.1,0.1,0.3,0.1,0.4,0.2c-0.2,0.3-0.4,0.6-0.5,0.9c0.1-0.1,0.2-0.1,0.3-0.3c0.1,0,0.4,0,0.3,0.2    c0.2-0.2,0.6-0.1,0.9-0.1l-0.1-0.1c0.1,0,0.3,0,0.3,0c0.3-0.1,0.5-0.1,0.8-0.1c-0.2-0.2-0.3-0.3-0.5-0.5c0.2-0.2,0.3-0.3,0.5-0.5    c0.2,0.2,0.5,0.5,0.8,0.7c0.1-0.3,0.1-0.6,0.2-0.9c0.4,0,0.6,0.4,0.5,0.7c0.5-0.2,0.9-0.4,1.3-0.6c-0.3-0.2-0.6-0.3-0.9-0.4    c0.1-0.2,0.2-0.4,0.3-0.6c0.4,0.2,0.8,0.4,1.2,0.6c-0.1-0.6-0.1-1.1-0.1-1.7c0.1,0,0.4,0,0.5,0c0,0.3,0.1,0.6,0.1,0.9    c0.1,0,0.2-0.1,0.3-0.2c0.1,0,0.3,0,0.4,0l-0.1,0.1c0.2-0.1,0.3-0.3,0.5-0.4c-0.1-0.1-0.2-0.1-0.3-0.2c0.1,0,0.3-0.1,0.4-0.1    c0,0,0.1,0.1,0.1,0.1c0-0.1,0.1-0.2,0.2-0.3l0.1,0c0,0,0-0.1,0.1-0.2c0,0.1,0,0.3,0,0.4C19.8,13.5,20.2,13.2,20.3,12.8z"></path><path d="M18,14"></path><path d="M5.7,16.9c0.1-0.1,0.2-0.1,0.4-0.2c0,0.1,0,0.2,0.1,0.3c0.1,0,0.2,0,0.3,0.1c-0.2,0-0.3,0.1-0.4,0.2    C6,17.1,5.9,17,5.7,16.9z"></path><path d="M14.7,18.3c0.2,0,0.3,0,0.5,0c-0.1,0.2-0.2,0.4-0.2,0.7c0-0.1-0.1-0.3-0.1-0.4c-0.1,0.1-0.1,0.3-0.2,0.4    l-0.1-0.2c0-0.1,0-0.3-0.1-0.4c0,0,0.1,0,0.2,0.1L14.7,18.3z"></path></g></svg>
