<svg viewBox="0 0 24 24">
   <path d="m 18.900391,4.8007812 c -0.3,0.1999996 -0.501172,0.39961 -0.701172,0.5996094 C 18.099219,5.7003897 18.000781,5.9000003 17.800781,6 L 17.5,6.3007812 c -0.1,0.1999996 -0.200391,0.2988282 -0.400391,0.2988282 v 0.3007812 c -0.299997,-0.1999994 -0.7,-0.4011728 -1,-0.7011718 C 15.699612,5.8992195 15.4,5.60039 15,5.4003906 c 0.2,0.2999991 0.4,0.6000012 0.5,1 -0.2,-0.1 -0.3,-0.2007815 -0.5,-0.3007812 -0.1,-0.1 -0.300391,-0.099219 -0.400391,-0.1992188 0.1,0.1999994 0.300391,0.3000006 0.400391,0.5 -0.1,0 -0.200781,0.099219 -0.300781,0.1992188 0.1,-0.1 0.30039,-0.099609 0.40039,-0.099609 V 6.6992188 H 14.900391 V 6.5996094 H 14.699219 14.5 l 0.09961,0.2011718 c -0.1,10e-8 -0.198828,-0.1015624 -0.298828,-0.1015624 0.5,0.4999985 0.99961,1.1000009 1.59961,1.5 -0.1,0.1 -0.09961,0.3003909 -0.09961,0.4003906 -0.2,0.2999991 -0.401562,0.7000009 -0.601562,1 C 14.999219,9.9996082 14.7,10.400784 14.5,10.800781 c 0.1,-0.2 0.3,-0.3 0.5,-0.5 0,0.1 3.91e-4,0.3 -0.09961,0.5 h 0.699218 c -0.1,0 -0.4,0.09961 -0.5,0.09961 0.1,0 0.4,0.09961 0.5,0.09961 v 0.09961 h 0.201172 c -0.1,0 -0.101562,-0.09922 -0.101562,-0.199218 H 15.90039 V 10.699219 H 16 v -0.09961 h 0.09961 c 0,-0.1 0.09961,-0.198828 0.09961,-0.298828 h 0.101562 v -0.101562 h 0.09961 v -0.09961 H 16.5 V 9.9003906 h 0.09961 l 0.09961,-0.099609 c 0,-0.1 0.101562,-0.2007815 0.101562,-0.3007812 h 0.09961 V 9.3007812 C 17.300388,9.5007809 17.7,9.7992193 18,10.199219 c 0.075,0 0.150781,-0.05586 0.183594,-0.08399 L 18,10.300781 c 0.2,0.1 0.499219,0.198828 0.699219,0.298828 l 0.701172,0.701172 v -0.201172 h 0.298828 c 0.1,-0.1 0.101562,-0.198828 0.101562,-0.298828 0,-0.1 -0.200781,-0.101562 -0.300781,-0.101562 0.2,-0.1 0.3,-0.09961 0.5,-0.09961 V 10.5 c 0,0 0.09922,-0.09961 0.199219,-0.09961 H 19.900391 C 20.100388,10.200391 20,10.000781 20,9.8007812 h 0.09961 C 20.099609,9.7007815 20,9.5999997 20,9.5 19.9,9.4 19.799609,9.3007812 19.599609,9.3007812 c 0,0 0.101172,-0.1015624 0.201172,-0.1015624 C 19.500784,8.7992198 18.999216,8.6007806 18.699219,8.3007812 V 7.5 c -0.2,-0.3999988 0.200393,-0.6996106 0.40039,-1.0996094 0.186384,-0.1863834 0.285283,-0.3772133 0.378907,-0.6445312 -0.05265,0.078184 -0.198212,0.1445312 -0.279297,0.1445312 L 19.5,5.3007812 h 0.199219 c -0.2,-0.2999991 -0.4,0.098829 -0.5,0.2988282 C 19.099219,5.4996097 19,5.4007811 19,5.3007812 c 0,0.1999996 -0.09922,0.39961 -0.199219,0.5996094 0,-0.1999994 0.09922,-0.3996097 0.199219,-0.5996094 -0.3,0.1 -0.399612,0.39961 -0.599609,0.5996094 0.199997,-0.3999988 0.5,-0.6996103 0.5,-1.0996094 z M 8.9394531,5.6796875 C 8.7033722,5.6755817 8.6952402,5.8232328 8.7421875,6.0078125 8.6356808,6.0308286 8.4838813,6.0996094 8.4003906,6.0996094 V 5.6992188 c 0,0.1 -0.1011721,0.3003909 -0.2011718,0.4003906 H 7.9003906 C 8.0003903,6.0996094 8,6.3003909 8,6.4003906 H 7.8007812 C 7.9007811,6.4003906 8,6.4996097 8,6.5996094 H 7.6992188 V 7 H 7.5996098 V 7.099609 L 7.5,7.1992188 c -0.1999994,0.1 -0.3000006,0.3000003 -0.5,0.5 V 7.5996094 C 6.7000009,7.1996106 6.2999991,6.9992178 6,6.6992188 5.9,6.6992187 5.7992184,6.5996098 5.6992188,6.5996098 H 5.5 c -0.1,0.1 -0.3003909,0.1011722 -0.4003906,0.2011718 0.1999994,0.1 0.3000006,0.1984379 0.5,0.3984376 H 5 4.6992188 c -10e-8,0.1 0.1011721,0.3003909 0.2011718,0.4003906 L 5,7.5 v 0.099609 c 0.1,0.1 0.1992188,0.099609 0.1992188,0.099609 0.1999993,0.3999988 0.6003915,0.7000006 0.9003906,1 -0.1999994,0.3999988 -0.3992197,0.7000006 -0.6992188,1 v 0.1015624 c -0.1,10e-8 -0.2007815,-0.1015624 -0.3007812,-0.1015624 l 0.2011718,0.2011718 c -0.1,0.1999992 -0.3003909,0.4000002 -0.4003906,0.5000002 -0.1999994,0.299997 -0.3000006,0.498828 -0.5,0.798828 0.143981,-0.07199 0.3387053,-0.195651 0.5117188,-0.333985 -0.073866,0.108452 -0.1113282,0.25323 -0.1113282,0.435547 0.1,-0.1 0.2984377,-0.201172 0.3984376,-0.201172 C 5.2992185,11.199609 5.5,11.3 5.5,11.5 c 0,0 0.075246,-0.07358 0.095703,-0.158203 C 5.5765625,11.448437 5.5,11.611719 5.5,11.699219 c 0.1999994,-0.2 0.3992195,-0.39961 0.6992188,-0.59961 L 6.3007812,11 h 0.099609 V 10.800781 H 6.599609 V 10.699219 H 6.699218 V 10.5 H 7 L 6.9003906,10.400391 7.0996094,10.5 7,10.300781 h 0.3007812 v -0.201172 c 0.5999985,0.3 1.0000016,0.79961 1.5,1.09961 -0.1999994,-0.3 -0.5011724,-0.498831 -0.7011718,-0.798828 0.1999994,0.1 0.4996094,0.30039 0.5996094,0.40039 h 0.1015624 c 0,-0.1 -0.1011721,-0.200781 -0.2011718,-0.300781 0.3999988,0.2 0.7000009,0.500784 1,0.800781 0,-0.1 -0.099219,-0.4 -0.1992188,-0.5 0.1999994,0.1 0.4000003,0.298438 0.5,0.398438 0.1000004,0 0.1988284,-0.09961 0.2988284,-0.09961 C 10.099219,11.099609 10.000391,11 9.9003906,11 9.7003912,10.8 9.5007808,10.500781 9.3007812,10.300781 l 0.2988282,0.09961 C 9.2996103,9.9003913 8.8003894,9.4996082 8.4003906,9.0996094 c 0.1,-0.1 0.1992188,-0.1988282 0.1992188,-0.2988282 V 8.4003906 h 0.099609 V 8.3007812 H 9 L 8.9003906,8.1992188 H 9 v -0.099609 c 0,0 -3.903e-4,-0.1992188 0.099609,-0.1992188 L 9.199218,7.800782 c 0,-0.1999993 0.1015625,-0.3000004 0.1015624,-0.5 L 9.0996086,7.400391 c 0.1,-0.1 0.1011721,-0.2007815 0.2011718,-0.3007812 v -0.400391 c 0.1999996,-0.2999994 0.3000006,-0.4988291 0.5,-0.7988282 -0.1,0.1 -0.401563,0.1992188 -0.6015624,0.1992188 -10e-8,0.1 -0.099609,0.2007815 -0.099609,0.3007812 V 5.6992188 c -0.0625,-0.0125 -0.1152344,-0.01875 -0.1601559,-0.019531 z m -0.1875,0.3671875 c 0.014188,0.049798 0.03154,0.1004784 0.048828,0.1523438 H 8.5996094 Z m 0.1484375,4.753906 c 0,0.2 0.1988282,0.298828 0.2988282,0.298828 0,-0.1 -0.098829,-0.298828 -0.2988282,-0.298828 z m 11.4003904,2 c -0.1,0.4 -0.50039,0.7 -0.40039,0.5 v -0.40039 c -0.1,0.1 -0.09961,0.199218 -0.09961,0.199218 h -0.101562 c -0.1,0.1 -0.199219,0.200782 -0.199219,0.300782 l -0.09961,-0.09961 c -0.1,0 -0.300391,0.09961 -0.400391,0.09961 0.1,0.1 0.200781,0.09922 0.300781,0.199218 -0.2,0.1 -0.3,0.300391 -0.5,0.400391 l 0.09961,-0.09961 H 18.5 c -0.1,0.1 -0.200781,0.199218 -0.300781,0.199218 0,-0.299996 -0.09961,-0.600394 -0.09961,-0.90039 h -0.5 c 0,0.599996 -3.9e-4,1.101172 0.09961,1.701172 L 16.5,14.300781 l -0.300781,0.59961 c 0.299996,0.1 0.600394,0.20039 0.90039,0.40039 -0.399996,0.2 -0.798828,0.39961 -1.298828,0.59961 0.1,-0.3 -0.1,-0.701172 -0.5,-0.701172 -0.1,0.299996 -0.101172,0.600394 -0.201172,0.90039 -0.299996,-0.199996 -0.598828,-0.499222 -0.798828,-0.699218 l -0.5,0.5 0.5,0.5 C 14.000785,16.400391 13.8,16.4 13.5,16.5 h -0.300781 l 0.101562,0.09961 c -0.299996,0 -0.700394,-0.10039 -0.90039,0.09961 0.1,-0.2 -0.200782,-0.199219 -0.300782,-0.199219 -0.1,0.2 -0.198828,0.200781 -0.298828,0.300781 0.1,-0.299996 0.3,-0.600394 0.5,-0.90039 -0.1,-0.1 -0.30039,-0.101172 -0.40039,-0.201172 l -0.59961,0.90039 c -0.2,-0.399996 -0.3,-0.799222 -0.5,-1.199218 -0.2,-0.1 -0.30039,0.09922 -0.40039,0.199218 0.1,0.3 0.30039,0.700004 0.40039,1 -0.699996,0 -1.5011744,-0.2 -2.2011716,-0.5 C 8.699609,16.099609 8.9000004,16 9,16 8.9,15.9 8.6992188,16.000781 8.6992188,15.800781 c 0,0 0.055455,-0.0576 0.125,-0.08594 -0.075,0.02813 -0.1496098,0.08594 -0.2246094,0.08594 C 8.5996094,15.900781 8.5,16 8.5,16 H 8.0996094 c 0.2999988,-0.4 0.7000012,-0.699219 1,-1.199219 H 8.8007812 v -0.201172 c 0,0.1 -0.1011722,0.09961 -0.2011718,0.09961 -0.1999992,0.399996 -0.4988291,0.7 -0.7988282,1 -0.1,-0.4 -0.1011722,-0.798832 -0.2011718,-1.298828 -0.1999992,0.1 -0.3000008,0.09922 -0.5,0.199218 v 0.701172 c -0.1749995,-0.0875 -0.2743397,-0.09934 -0.3632813,0.0332 0.035753,-0.06495 0.093461,-0.163773 0.1640625,-0.234375 -0.1999992,0.2 -0.3996098,7.78e-4 -0.5996094,-0.199218 v 0.298828 H 6.0996094 v -0.09961 c -0.1,-0.1 -0.2003914,-0.09922 -0.4003906,-0.199218 -0.1,0 -0.1988286,-0.101172 -0.2988282,-0.201172 h -0.099609 v -0.09961 c -0.1,-0.1 -0.2007816,-0.09922 -0.3007812,-0.199218 -0.3999984,-0.3 -0.699611,-0.700004 -1.0996094,-1 0.1,0.299996 0.3000008,0.498828 0.5,0.798828 -0.1999992,-0.2 -0.4003926,-0.4 -0.9003906,-0.5 0.1,0.2 0.1992187,0.401172 0.1992188,0.701172 -0.1999995,0 -0.4000004,-7.82e-4 -0.5,-0.300782 v 0.201172 h 0.1015624 c 0.2999991,0.3 0.4988294,0.598438 0.7988282,0.898438 0.2999988,0.399996 0.6996106,0.7 1.0996094,1 0.1,0.2 0.3000004,0.30039 0.5,0.40039 0.1050578,0.03502 0.2077055,0.08537 0.3085937,0.140625 -0.1393064,0.05929 -0.2259093,0.07747 -0.3085937,0.160157 0.1999995,0.1 0.3003908,0.20039 0.4003906,0.40039 0.1,-0.1 0.200391,-0.201172 0.4003906,-0.201172 -0.1999992,0.2 -0.3000008,0.401176 -0.5,0.701172 0.1,0.1 0.300391,0.198828 0.4003906,0.298828 0.1999992,-0.399996 0.39922,-0.600394 0.6992188,-0.90039 0.1,0.399996 0.1011723,0.900781 0.2011718,1.300781 0.2999991,0 0.598829,3.91e-4 0.7988282,-0.09961 -0.1,-0.3 -0.1992188,-0.500782 -0.1992188,-0.800782 0.499998,0.2 1.000002,0.300391 1.5,0.400391 0.2999988,0.1 0.4988284,0.09961 0.798828,0.09961 0,0.1 -0.09961,0.200782 -0.09961,0.300782 l 0.300782,0.298828 c 0,-0.1 0.09922,-0.298438 0.199218,-0.398438 h 0.5 c 0.2,0.3 0.300391,0.498832 0.400391,0.798828 0.1,-0.1 0.300391,-0.09922 0.400391,-0.199218 0.1,-0.2 -0.101172,-0.300004 -0.201172,-0.5 0.1,0 0.200781,-0.09961 0.300781,-0.09961 h 0.199219 v 0.09961 H 13.5 v -0.09961 h 0.900391 l -0.09961,-0.101562 h 0.59961 v -0.09961 h 0.40039 c 0.1,-0.1 0.198828,-0.09922 0.298828,-0.199218 L 15.5,18.099609 c 0.4,0 0.500785,0.39961 0.800781,0.59961 0.1,-0.1 0.198828,-0.298438 0.298828,-0.398438 -0.1,-0.1 -0.09922,-0.200781 -0.199218,-0.300781 0.1,0 0.199218,-0.09961 0.199218,-0.09961 h -0.298828 c 0,-0.1 -0.101562,-0.101172 -0.101562,-0.201172 C 16.499215,17.599219 16.7,17.500391 17,17.400391 17.3,17.300391 17.500785,17.1 17.800781,17 c 0.1,0.4 -0.1,1.099219 0.5,1.199219 C 18.300781,18.099219 18.4,18 18.5,18 c -0.1,-0.4 -0.09922,-0.900391 -0.199219,-1.400391 0.1,-0.1 0.198828,-0.09961 0.298828,-0.09961 v -0.09961 c 0.1,0.1 0.200782,0.30039 0.300782,0.40039 h -0.300782 c 0.1,0.1 0.200782,0.09961 0.300782,0.09961 v 0.199218 c 0,-0.1 0.399609,-0.199218 0.09961,-0.199218 l -0.09961,-0.300782 c 0.299996,0.1 0.600394,0.300391 0.90039,0.400391 0,-0.2 0.09961,-0.3 0.09961,-0.5 C 19.800391,16.3 19.3,16.3 19.5,16 H 19.199219 C 19.499215,16 19.4,15.699609 19.5,15.599609 V 15.5 h 0.400391 V 15 h 0.199218 C 20.199609,14.8 20.4,14.500781 20.5,14.300781 20.5,14.000785 20.499219,13.7 20.699219,13.5 l -0.59961,0.599609 c 0.2,-0.299996 0.4,-0.498828 0.5,-0.798828 -0.1,0 -0.30039,0.09922 -0.40039,0.199219 C 20.299219,13.2 20.4,13.000781 20.5,12.800781 Z M 19.5,15.599609 v 0.09961 0.101562 c 0.1,0.1 0.200781,0.09961 0.300781,0.09961 V 15.599609 Z M 6.1035156,16.794922 c 0.1337941,0.08201 0.2560331,0.173805 0.3574219,0.269531 C 6.3740364,16.999257 6.2859638,17 6.1992188,17 6.1312368,16.93202 6.1103688,16.863135 6.1035156,16.794922 Z m 8.5957034,1.505859 V 18.5 C 14.599219,18.4 14.5,18.400391 14.5,18.400391 c 0.1,0.1 0.09961,0.30039 0.09961,0.40039 L 14.699219,19 c 0.1,-0.1 0.101172,-0.300391 0.201172,-0.400391 0,0.09688 0.09374,0.287885 0.09961,0.390625 0.0022,-0.294455 0.100335,-0.491685 0.199219,-0.689453 z" />
</svg>