<svg viewBox="0 0 24 24"><path d="M 12.259766,1.9609375 C 11.406641,1.95625 10.524218,2.0492189 9.6992188,2.1992188 8.39922,2.3992186 7.1007799,2.8007818 5.8007812,3.3007812 6.000781,3.9007807 6.1007814,4.4000006 6.3007812,5 8.2007793,6.3999986 10.100002,7.7000013 12,9 13.899998,7.7000013 15.799611,6.2996082 17.599609,5.0996094 l 0.300782,-1.7988282 c -0.3,-0.1999997 -0.69961,-0.4 -1.09961,-0.5 C 15.600782,2.4007817 14.399608,2.0999999 13.099609,2 12.82461,1.975 12.54414,1.9625 12.259766,1.9609375 Z M 22,2.9003906 c -1.199999,0.1 -2.399611,0.3003908 -3.599609,0.4003906 -0.1,0.5999995 -0.200782,1.2984381 -0.300782,1.8984376 -1.199998,0.8999991 -2.49922,1.7000007 -3.699218,2.5 -0.2,1.4999985 -0.501172,3.0000012 -0.701172,4.5000002 1.399998,-0.3 2.900782,-0.598438 4.300781,-0.898438 0.999999,-0.699999 1.900782,-1.5011723 2.800781,-2.2011716 C 21.200781,6.9996115 21.6,5.0003885 22,2.9003906 Z M 2,3 C 2.3999992,5.0999958 2.8007823,7.0996134 3.3007812,9.0996094 4.2007795,9.799608 5.1000018,10.600783 6,11.300781 c 0,0.1 0.099609,0.09961 0.099609,0.09961 l 4.201172,0.90039 c -0.2,-1.499996 -0.5011724,-3.0000026 -0.701172,-4.4999998 -1.1999976,-0.7999984 -2.3992214,-1.6000016 -3.6992188,-2.5 -0.1,-0.5999988 -0.2007814,-1.3000013 -0.3007812,-2 z m 6.8007812,1.1992188 c 2.0999978,0.1 4.3000018,0.1 6.4999998,0 L 12,6.5996094 C 10.900001,5.7996102 9.8007803,4.999218 8.8007812,4.1992188 Z m -4.9003906,1 c 1.3999972,0.9999979 2.9003936,2.0000018 4.4003906,3 0.1,0 0.1992188,0.00156 0.1992188,0.1015624 v 0.5 C 6.9000032,7.8007833 5.4003876,6.6992167 3.9003906,5.6992188 Z m 16.2988284,0 v 0.5 c -1.599999,0.999999 -3.099611,2.1015635 -4.59961,3.1015624 v -0.5 c 1.499999,-1.0999989 2.999611,-2.1015635 4.59961,-3.1015624 z m -0.5,2.2011718 v 0.5 C 18.09922,8.9003896 16.599608,10.000001 15.099609,11 V 10.5 C 16.599608,9.500001 18.09922,8.5003895 19.699219,7.4003906 Z M 4.4003906,7.5 C 5.9003876,8.499998 7.4000032,9.5996118 9,10.599609 v 0.5 C 7.4000032,10.099611 5.9003876,8.999998 4.4003906,8 Z M 10.199219,8.0996094 C 10.299219,9.1996061 10.5,10.300003 10.5,11.5 c 0.1,0.3 0.09961,0.500784 0.09961,0.800781 v 4.798828 h 2.701172 v -4.798828 c 0,-0.299997 0.09961,-0.500781 0.09961,-0.800781 0.199997,-1.199997 0.3,-2.3003939 0.5,-3.4003906 C 13.300391,8.5996079 12.599997,9.0003918 12,9.4003906 11.400003,9.0003918 10.799216,8.4996082 10.199219,8.0996094 Z M 3.6992188,10 c 0.1999994,2.599991 0.4000001,5.199225 0.5,7.699219 0.999997,0.899997 2.1011751,1.900784 3.2011718,2.800781 v -7 C 7.0003918,13.1 6.4999985,12.8 6,12.5 V 11.699219 C 5.2000024,11.099219 4.4992164,10.599997 3.6992188,10 Z m 16.6015622,0.09961 c -0.799997,0.6 -1.500784,1.101175 -2.300781,1.701172 0,0.2 3.91e-4,0.498831 -0.09961,0.798828 -0.4,0.3 -0.900391,0.700003 -1.400391,1 v 7 c 0.999997,-0.899997 2.099222,-1.898831 3.199219,-2.798828 0.2,-2.499991 0.401562,-5.101178 0.601563,-7.701172 z m -10.201172,2.59961 c -0.7999952,0.399996 -1.6003934,0.701566 -2.4003902,1.101562 v 7 C 8.1992167,21.200781 8.699611,21.6 9.0996094,22 c 0.2999988,-0.899996 0.7000024,-1.699613 0.9999996,-2.599609 0.1,0 0.09961,-0.101172 0.09961,-0.201172 h 3.40039 c 0,0.1 0.09961,0.200781 0.09961,0.300781 0.399996,0.799996 0.7,1.700004 1,2.5 0.499996,-0.4 1.000394,-0.799219 1.40039,-1.199219 v -7 C 15.299613,13.400785 14.499215,13.099215 13.699219,12.699219 13.699219,14.299211 13.7,15.900008 13.5,17.5 h -3.400391 z m 0.5,6.800781 C 10.199613,20.299996 9.8996082,21.200004 9.5996094,22 H 14.5 c -0.3,-0.799996 -0.600391,-1.700004 -0.900391,-2.5 z" /></svg>
