<svg viewBox="0 0 24 24" data-v-5831562a=""><g><g><path d="M9.7,2.2C10.8,2,12,1.9,13.1,2c1.3,0.1,2.5,0.4,3.7,0.8c0.4,0.1,0.8,0.3,1.1,0.5c-0.1,0.6-0.2,1.2-0.3,1.8     C15.8,6.3,13.9,7.7,12,9c-1.9-1.3-3.8-2.6-5.7-4C6.1,4.4,6,3.9,5.8,3.3C7.1,2.8,8.4,2.4,9.7,2.2z M8.8,4.2C9.8,5,10.9,5.8,12,6.6     c1.1-0.8,2.2-1.6,3.3-2.4C13.1,4.3,10.9,4.3,8.8,4.2z"></path></g><g><path d="M18.4,3.3C19.6,3.2,20.8,3,22,2.9c-0.4,2.1-0.8,4.1-1.2,6.2c-0.9,0.7-1.8,1.5-2.8,2.2c-1.4,0.3-2.9,0.6-4.3,0.9     c0.2-1.5,0.5-3,0.7-4.5c1.2-0.8,2.5-1.6,3.7-2.5C18.2,4.6,18.3,3.9,18.4,3.3z M15.6,8.3c0,0.2,0,0.3,0,0.5c1.5-1,3-2.1,4.6-3.1     c0-0.2,0-0.3,0-0.5C18.6,6.2,17.1,7.2,15.6,8.3z M15.1,10.5c0,0.2,0,0.3,0,0.5c1.5-1,3-2.1,4.6-3.1c0-0.2,0-0.3,0-0.5     C18.1,8.5,16.6,9.5,15.1,10.5z"></path></g><g><path d="M2,3c1.2,0.1,2.4,0.2,3.6,0.3c0.1,0.7,0.2,1.4,0.3,2C7.2,6.2,8.4,7,9.6,7.8c0.2,1.5,0.5,3,0.7,4.5     c-1.4-0.3-2.8-0.6-4.2-0.9c0,0-0.1,0-0.1-0.1c-0.9-0.7-1.8-1.5-2.7-2.2C2.8,7.1,2.4,5.1,2,3z M3.9,5.2c0,0.2,0,0.3,0,0.5     c1.5,1,3,2.1,4.6,3.1c0-0.2,0-0.3,0-0.5c0-0.1-0.1-0.1-0.2-0.1C6.8,7.2,5.3,6.2,3.9,5.2z M4.4,7.5c0,0.2,0,0.3,0,0.5     c1.5,1,3,2.1,4.6,3.1c0-0.2,0-0.3,0-0.5C7.4,9.6,5.9,8.5,4.4,7.5z"></path></g><path d="M10.2,8.1c0.6,0.4,1.2,0.9,1.8,1.3c0.6-0.4,1.3-0.8,1.9-1.3c-0.2,1.1-0.3,2.2-0.5,3.4c0,0.3-0.1,0.5-0.1,0.8    c0,1.6,0,3.2,0,4.8c-0.9,0-1.8,0-2.7,0c0-1.6,0-3.2,0-4.8c0-0.3,0-0.5-0.1-0.8C10.5,10.3,10.3,9.2,10.2,8.1z"></path><path d="M3.7,10c0.8,0.6,1.5,1.1,2.3,1.7c0,0.3,0,0.6,0,0.8c0.5,0.3,1,0.6,1.4,1c0,2.3,0,4.7,0,7c-1.1-0.9-2.2-1.9-3.2-2.8    C4.1,15.2,3.9,12.6,3.7,10z"></path><path d="M18,11.8c0.8-0.6,1.5-1.1,2.3-1.7c-0.2,2.6-0.4,5.2-0.6,7.7c-1.1,0.9-2.2,1.9-3.2,2.8c0-2.3,0-4.7,0-7    c0.5-0.3,1-0.7,1.4-1C18,12.3,18,12,18,11.8z"></path><path d="M13.7,12.7c0.8,0.4,1.6,0.7,2.4,1.1c0,2.3,0,4.7,0,7c-0.4,0.4-0.9,0.8-1.4,1.2c-0.3-0.8-0.6-1.7-1-2.5    c0-0.1-0.1-0.2-0.1-0.3c-1.1,0-2.2,0-3.4,0c0,0.1,0,0.2-0.1,0.2c-0.3,0.9-0.7,1.7-1,2.6l0,0c0,0,0,0,0,0c-0.4-0.4-0.9-0.8-1.4-1.2    c0-2.3,0-4.7,0-7c0.8-0.4,1.6-0.7,2.4-1.1c0,1.6,0,3.2,0,4.8c1.1,0,2.2,0,3.4,0C13.7,15.9,13.7,14.3,13.7,12.7z"></path><path d="M10.6,19.5c1,0,2,0,3,0c0.3,0.8,0.6,1.7,0.9,2.5c-1.6,0-3.3,0-4.9,0C9.9,21.2,10.2,20.3,10.6,19.5z"></path></g></svg>
