<svg viewBox="0 0 24 24" data-v-5831562a=""><path d="M11.5,2c2.4-0.1,4.9,0.7,6.8,2.3c1.6,1.3,2.7,3,3.3,5c0.6,2,0.5,4.3-0.3,6.3c-0.7,1.9-2,3.5-3.6,4.7     C16,21.4,14,22,12,22c-2.2,0-4.3-0.8-6-2c-1.8-1.4-3.1-3.3-3.6-5.5C1.8,12.7,1.9,10.7,2.5,9c0.8-2.6,2.7-4.8,5.1-6     C8.8,2.4,10.1,2.1,11.5,2z M9.3,5.2C8.4,5.5,7.7,6,7,6.6c0.5,0,1,0,1.4,0c1.2,1.2,2.3,2.3,3.4,3.5c0,1.3,0,2.6,0,3.9     c-0.3,0.4-0.7,0.8-1.1,1.1c-0.8,0.8-1.6,1.6-2.4,2.4c-0.5,0-1,0-1.4,0c0.5,0.4,1,0.8,1.5,1.1c1.9,1,4.2,1.2,6.2,0.3     c0.8-0.3,1.6-0.8,2.3-1.4c-0.5,0-1,0-1.4,0c-1.2-1.2-2.3-2.3-3.4-3.5c0-1.3,0-2.6,0-4c1.2-1.2,2.3-2.3,3.4-3.4c0.5,0,1,0,1.4,0     c-0.1-0.1-0.2-0.1-0.3-0.2c-1-0.8-2.3-1.4-3.6-1.6C11.8,4.5,10.5,4.7,9.3,5.2z M5.1,9.1c-0.5,1.3-0.7,2.7-0.5,4.1     c0.2,1.4,0.9,2.7,1.9,3.7c0-0.4,0-0.8,0-1.2c0-0.1,0-0.2,0.1-0.3c1.2-1.2,2.3-2.3,3.5-3.5c-1.2-1.2-2.3-2.4-3.6-3.5     c0-0.5,0-1,0-1.4C6,7.6,5.5,8.4,5.1,9.1z M17.3,7c0,0.5,0,1,0,1.4c-1.2,1.2-2.3,2.4-3.6,3.5c1.2,1.2,2.4,2.4,3.6,3.5     c0,0.5,0,0.9,0,1.4c0.3-0.2,0.5-0.5,0.7-0.8c1.2-1.7,1.6-3.9,1-5.9C18.8,9,18.2,7.9,17.3,7z"></path></svg>
