<?xml version="1.0" encoding="UTF-8" standalone="no"?>
<svg
   width="30"
   height="30"
   viewBox="0 0 30 30"
   fill="currentColor"
   version="1.1"
   id="svg1029"
   sodipodi:docname="saga-create.svg"
   inkscape:version="1.2.1 (0f2f062aeb, 2022-09-21, custom)"
   xmlns:inkscape="http://www.inkscape.org/namespaces/inkscape"
   xmlns:sodipodi="http://sodipodi.sourceforge.net/DTD/sodipodi-0.dtd"
   xmlns="http://www.w3.org/2000/svg"
   xmlns:svg="http://www.w3.org/2000/svg">
  <defs
     id="defs1033" />
  <sodipodi:namedview
     id="namedview1031"
     pagecolor="#505050"
     bordercolor="#ffffff"
     borderopacity="1"
     inkscape:showpageshadow="0"
     inkscape:pageopacity="0"
     inkscape:pagecheckerboard="1"
     inkscape:deskcolor="#505050"
     showgrid="false"
     inkscape:zoom="10.38602"
     inkscape:cx="11.746559"
     inkscape:cy="22.482144"
     inkscape:window-width="1366"
     inkscape:window-height="704"
     inkscape:window-x="0"
     inkscape:window-y="0"
     inkscape:window-maximized="1"
     inkscape:current-layer="svg1029" />
  <path
     id="path1023"
     d="m 20.128906,2.5 c -0.246075,0 -0.491937,0.0935 -0.679687,0.28125 L 15,7.2304688 11.833984,4.0644531 c -0.375498,-0.3754992 -0.983875,-0.3754992 -1.359375,0 -0.375498,0.3755192 -0.375498,0.9838758 0,1.359375 l 2.246094,2.2460938 C 10.367531,7.7449468 7.8110307,7.9073521 6.0839844,8.03125 4.4053478,8.1516598 3.0540146,9.4565052 2.890625,11.138672 2.7166454,12.930068 2.5,15.562757 2.5,17.564453 c 0,2.001796 0.2166454,4.634385 0.390625,6.425781 0.1633896,1.682098 1.5147228,2.985069 3.1933594,3.105469 C 8.3955198,27.261503 12.193206,27.5 15,27.5 c 1.213182,0 2.612633,-0.04929 3.996094,-0.113281 -0.03335,-0.617854 0.02033,-1.255917 -0.0068,-1.919922 -1.356674,0.0625 -2.811781,0.109375 -3.989304,0.109375 -2.731094,0 -6.4686015,-0.232738 -8.7792969,-0.398438 C 5.4701647,25.123834 4.8767273,24.546586 4.8046875,23.804688 4.6311479,22.01809 4.4238281,19.465349 4.4238281,17.564453 c 0,-1.900796 0.2073198,-4.453538 0.3808594,-6.240234 0.07204,-0.7418 0.6654772,-1.32118 1.4160156,-1.3750002 C 8.5313985,9.783459 12.268906,9.5507812 15,9.5507812 c 2.731094,1e-7 6.468601,0.2326778 8.779297,0.3984376 0.750498,0.05382 1.344017,0.6332002 1.416015,1.3750002 0.1736,1.786696 0.38086,4.339438 0.38086,6.240234 0,0.275028 -0.01158,0.654423 -0.01953,0.952447 0.647491,0.01862 1.316803,0.113571 1.922402,0.159401 0.0092,-0.330539 0.02096,-0.80557 0.02096,-1.111848 0,-2.001696 -0.216625,-4.634385 -0.390625,-6.425781 C 26.945975,9.4565052 25.594712,8.1516598 23.916016,8.03125 22.189006,7.9073521 19.632477,7.7449468 17.279297,7.6699219 L 20.808594,4.140625 c 0.375498,-0.3754992 0.375498,-0.9838558 0,-1.359375 C 20.620844,2.5935004 20.374981,2.5 20.128906,2.5 Z M 19.05158,20.47267 c 0.01203,-0.155637 0.06799,-0.289485 0.08172,-0.432669 0.05587,-0.40784 0.192251,-0.644021 0.415735,-0.935333 0.514784,-0.220253 0.165025,-0.401099 -0.123257,-0.555833 l -4.636719,-2.179687 4.509766,-1.414063 c 0.5269,-0.1653 0.82145,-0.726908 0.65625,-1.253906 C 19.820772,13.273066 19.424368,12.998996 18.998047,13 c -0.09838,2.32e-4 -0.198063,0.01393 -0.296875,0.04492 l -6.957031,2.183594 c -0.3932,0.1234 -0.671319,0.473567 -0.699219,0.884765 -0.028,0.4111 0.199366,0.797257 0.572266,0.972657 l 4.65039,2.1875 -5.570312,1.773437 c -0.5263,0.1674 -0.8178806,0.729561 -0.650391,1.255859 0.1674,0.5263 0.729561,0.817891 1.255859,0.650391 z"
     sodipodi:nodetypes="sccccccccscssccsccsccsccsccscccccscsccccscccccccccc" />
  <path
     id="path566"
     style="display:inline;fill:#000000;fill-opacity:1;stroke-width:0.516534;stroke-linecap:square"
     d="m 24.284734,18.425599 c -1.173292,0 -2.737629,0.05788 -3.855047,0.174403 -0.391098,0 -0.725989,0.175599 -0.949472,0.466911 -0.223484,0.291312 -0.391876,0.582277 -0.447744,0.990117 -0.111745,1.165253 -0.167243,2.796557 -0.167243,4.020077 0,1.223491 0.111373,2.854795 0.167243,4.020076 0.05587,0.757413 0.615021,1.398762 1.397216,1.457029 1.117418,0.116534 2.681755,0.174402 3.855047,0.174402 1.173265,0 2.737602,-0.116136 3.855047,-0.174402 0.72632,-0.05826 1.341341,-0.641349 1.397216,-1.457029 0.11175,-1.165281 0.167243,-2.796585 0.167243,-4.020076 0,-1.22352 -0.05549,-2.854824 -0.167243,-4.020077 -0.05588,-0.757418 -0.615021,-1.398768 -1.397216,-1.457028 -1.117445,-0.116529 -2.681782,-0.174403 -3.855047,-0.174403 z m 0.03705,3.510116 c 0.118502,0.0022 0.226232,0.0552 0.303789,0.139081 0.07756,0.08388 0.124954,0.198734 0.122786,0.322312 l -0.02116,1.235163 1.184458,0.02318 c 0.237011,0.0045 0.43091,0.213133 0.426574,0.460288 -0.0043,0.247157 -0.205434,0.449357 -0.442451,0.444837 l -1.184458,-0.02208 -0.06033,1.194322 c -0.0043,0.247164 -0.205433,0.449357 -0.442451,0.444836 -0.117789,-0.04345 -0.196625,-0.0453 -0.274151,-0.129146 -0.07756,-0.08389 -0.114723,-0.209017 -0.11326,-0.291405 l 0.02116,-1.235164 -1.184459,-0.02318 c -0.237017,-0.0045 -0.430905,-0.213134 -0.426575,-0.460289 0.0043,-0.247157 0.204384,-0.449357 0.441395,-0.444835 l 1.185517,0.02208 0.02222,-1.235164 c 0.0043,-0.247156 0.204391,-0.449346 0.441393,-0.444836 z"
     sodipodi:nodetypes="scscsccsccsccsssccccccccscccccccs"
     sodipodi:insensitive="true" />
</svg>
