<svg xmlns="http://www.w3.org/2000/svg" width="30" height="30" viewBox="0 0 30 30" fill="currentColor">
<path fill-rule="evenodd" clip-rule="evenodd" d="M10.4122 15.0002C10.4122 14.4692 10.8427 14.0387 11.3737 14.0387L14.0383 14.0386L14.0384 11.374C14.0384 10.8429 14.4689 10.4125 14.9999 10.4125C15.5309 10.4125 15.9614 10.843 15.9614 11.374L15.9615 14.0386L18.6261 14.0387C19.1572 14.0387 19.5876 14.4692 19.5876 15.0002C19.5876 15.5313 19.1572 15.9617 18.6261 15.9617L15.9615 15.9618L15.9614 18.6264C15.9614 19.1575 15.5309 19.5879 14.9999 19.5879C14.4689 19.5879 14.0384 19.1575 14.0384 18.6264L14.0383 15.9618L11.3737 15.9617C10.8427 15.9617 10.4122 15.5313 10.4122 15.0002Z" />
<path fill-rule="evenodd" clip-rule="evenodd" d="M15 4.42307C12.2885 4.42307 8.58269 4.67191 6.26869 4.85119C5.5077 4.91014 4.91014 5.5077 4.85119 6.26869C4.67191 8.58269 4.42307 12.2885 4.42307 15C4.42307 17.7115 4.67191 21.4173 4.85119 23.7313C4.91014 24.4923 5.5077 25.0899 6.26869 25.1489C8.58269 25.3281 12.2885 25.5769 15 25.5769C17.7115 25.5769 21.4173 25.3281 23.7313 25.1489C24.4923 25.0899 25.0899 24.4923 25.1489 23.7313C25.3281 21.4173 25.5769 17.7115 25.5769 15C25.5769 12.2885 25.3281 8.58269 25.1489 6.26869C25.0899 5.5077 24.4923 4.91014 23.7313 4.85119C21.4173 4.67191 17.7115 4.42307 15 4.42307ZM6.12015 2.93385C8.43524 2.7545 12.2068 2.5 15 2.5C17.7931 2.5 21.5648 2.7545 23.8799 2.93385C25.5858 3.06601 26.934 4.41426 27.0661 6.12015C27.2455 8.43524 27.5 12.2068 27.5 15C27.5 17.7931 27.2455 21.5648 27.0661 23.8799C26.934 25.5858 25.5858 26.934 23.8799 27.0661C21.5648 27.2455 17.7931 27.5 15 27.5C12.2068 27.5 8.43524 27.2455 6.12015 27.0661C4.41426 26.934 3.06601 25.5858 2.93385 23.8799C2.7545 21.5648 2.5 17.7931 2.5 15C2.5 12.2068 2.7545 8.43524 2.93385 6.12015C3.06601 4.41426 4.41426 3.06601 6.12015 2.93385Z" />
</svg>
