<?xml version="1.0" encoding="UTF-8" standalone="no"?>
<svg
   width="30"
   height="30"
   viewBox="0 0 30 30"
   fill="currentColor"
   version="1.1"
   id="svg154"
   sodipodi:docname="categories-fill.svg"
   inkscape:version="1.2.1 (2ed6d7ae0b, 2022-08-22, custom)"
   xmlns:inkscape="http://www.inkscape.org/namespaces/inkscape"
   xmlns:sodipodi="http://sodipodi.sourceforge.net/DTD/sodipodi-0.dtd"
   xmlns="http://www.w3.org/2000/svg"
   xmlns:svg="http://www.w3.org/2000/svg">
  <defs
     id="defs158" />
  <sodipodi:namedview
     id="namedview156"
     pagecolor="#505050"
     bordercolor="#ffffff"
     borderopacity="1"
     inkscape:showpageshadow="0"
     inkscape:pageopacity="0"
     inkscape:pagecheckerboard="1"
     inkscape:deskcolor="#505050"
     showgrid="false"
     inkscape:zoom="11.808683"
     inkscape:cx="15.073654"
     inkscape:cy="11.982708"
     inkscape:window-width="1366"
     inkscape:window-height="704"
     inkscape:window-x="0"
     inkscape:window-y="0"
     inkscape:window-maximized="1"
     inkscape:current-layer="svg154" />
  <path
     id="path148"
     d="M 20.128906 2.5 C 19.882831 2.5 19.636969 2.5935002 19.449219 2.78125 L 15 7.2304688 L 11.833984 4.0644531 C 11.458486 3.6889539 10.850109 3.6889539 10.474609 4.0644531 C 10.099111 4.4399723 10.099111 5.0483289 10.474609 5.4238281 L 12.720703 7.6699219 C 10.367531 7.7449468 7.8110307 7.9073521 6.0839844 8.03125 C 4.4053478 8.1516598 3.0540146 9.4565052 2.890625 11.138672 C 2.7166454 12.930068 2.5 15.562757 2.5 17.564453 C 2.5 19.566249 2.7166454 22.198838 2.890625 23.990234 C 3.0540146 25.672332 4.4053478 26.975303 6.0839844 27.095703 C 8.3955198 27.261503 12.193206 27.5 15 27.5 C 17.806694 27.5 21.60452 27.261503 23.916016 27.095703 C 25.594712 26.975303 26.945975 25.672332 27.109375 23.990234 C 27.283375 22.198838 27.5 19.566249 27.5 17.564453 C 27.5 15.562757 27.283375 12.930068 27.109375 11.138672 C 26.945975 9.4565052 25.594712 8.1516598 23.916016 8.03125 C 22.189006 7.9073521 19.632477 7.7449468 17.279297 7.6699219 L 20.808594 4.140625 C 21.184092 3.7651258 21.184092 3.1567692 20.808594 2.78125 C 20.620844 2.5935004 20.374981 2.5 20.128906 2.5 z M 19.085938 13.003906 C 19.405724 13.031838 19.707313 13.211922 19.875 13.513672 C 20.1432 13.996371 19.969128 14.6067 19.486328 14.875 L 13.238281 18.345703 L 19.40625 21.085938 C 19.910949 21.310237 20.138362 21.901651 19.914062 22.40625 C 19.689763 22.910949 19.098449 23.138362 18.59375 22.914062 L 10.59375 19.357422 C 10.24725 19.203422 10.018753 18.866981 10.001953 18.488281 C 9.9851031 18.109482 10.182172 17.754412 10.513672 17.570312 L 18.513672 13.125 C 18.694684 13.024425 18.894065 12.987147 19.085938 13.003906 z " />
</svg>
