<svg xmlns="http://www.w3.org/2000/svg" width="24px" height="24px" viewBox="0 0 24 24" fill="currentColor">
<path fill-rule="evenodd" clip-rule="evenodd" d="M2 17.1282C2 15.5705 3.26279 14.3077 4.82051 14.3077C6.37824 14.3077 7.64103 15.5705 7.64103 17.1282V19.1795C7.64103 20.7372 6.37824 22 4.82051 22C3.26279 22 2 20.7372 2 19.1795V17.1282ZM4.82051 15.8462C4.11246 15.8462 3.53846 16.4201 3.53846 17.1282V19.1795C3.53846 19.8875 4.11246 20.4615 4.82051 20.4615C5.52857 20.4615 6.10256 19.8875 6.10256 19.1795V17.1282C6.10256 16.4201 5.52857 15.8462 4.82051 15.8462Z" />
<path fill-rule="evenodd" clip-rule="evenodd" d="M9.17949 10.9744C9.17949 9.41663 10.4423 8.15385 12 8.15385C13.5577 8.15385 14.8205 9.41663 14.8205 10.9744V19.1795C14.8205 20.7372 13.5577 22 12 22C10.4423 22 9.17949 20.7372 9.17949 19.1795V10.9744ZM12 9.69231C11.2919 9.69231 10.7179 10.2663 10.7179 10.9744V19.1795C10.7179 19.8875 11.2919 20.4615 12 20.4615C12.7081 20.4615 13.2821 19.8875 13.2821 19.1795V10.9744C13.2821 10.2663 12.7081 9.69231 12 9.69231Z" />
<path fill-rule="evenodd" clip-rule="evenodd" d="M16.359 4.82051C16.359 3.26279 17.6218 2 19.1795 2C20.7372 2 22 3.26279 22 4.82051V19.1795C22 20.7372 20.7372 22 19.1795 22C17.6218 22 16.359 20.7372 16.359 19.1795V4.82051ZM19.1795 3.53846C18.4714 3.53846 17.8974 4.11246 17.8974 4.82051V19.1795C17.8974 19.8875 18.4714 20.4615 19.1795 20.4615C19.8875 20.4615 20.4615 19.8875 20.4615 19.1795V4.82051C20.4615 4.11246 19.8875 3.53846 19.1795 3.53846Z" />
</svg>
