<svg width="143" height="142" viewBox="0 0 143 142" fill="none" xmlns="http://www.w3.org/2000/svg">
<path d="M4.9141 17.6921L1.0239 22.5542L27.1649 37.9128L28.1639 36.3826L4.9141 17.6921Z" fill="white"/>
<path d="M14.7763 8.04883L9.52115 11.3891L29.2795 34.3858L30.7201 33.2616L14.7763 8.04883Z" fill="white"/>
<path d="M27.9397 1.90374L21.8645 3.26984L32.6808 31.5938L34.4168 31.023L27.9397 1.90374Z" fill="white"/>
<path fill-rule="evenodd" clip-rule="evenodd" d="M92.4567 64.9771C98.1203 64.0274 102.947 65.2047 106.833 68.4941C110.379 71.4759 111.844 75.1774 111.844 75.2032L111.921 75.3574C111.934 75.3831 111.946 75.4024 111.959 75.4216C111.972 75.4409 111.985 75.4602 111.998 75.4859L112.024 75.5116C112.036 75.5373 112.056 75.5566 112.075 75.5759C112.094 75.5951 112.113 75.6144 112.126 75.6401L112.229 75.7429L112.255 75.7687C112.265 75.7757 112.277 75.7833 112.288 75.7911C112.36 75.8403 112.449 75.9007 112.537 75.9229H112.563C112.589 75.9357 112.615 75.9422 112.64 75.9486C112.666 75.955 112.692 75.9614 112.717 75.9743C112.743 75.9743 112.769 75.9807 112.794 75.9872C112.82 75.9936 112.846 76 112.872 76H113.18C113.206 76 113.225 75.9936 113.244 75.9872C113.263 75.9807 113.283 75.9743 113.308 75.9743H113.334C113.435 75.9472 113.53 75.9038 113.617 75.8458L113.642 75.8201C113.655 75.8072 113.675 75.7944 113.694 75.7815C113.713 75.7687 113.732 75.7558 113.745 75.7429L113.771 75.7172C113.807 75.6993 113.83 75.6689 113.85 75.6434C113.858 75.6323 113.866 75.6222 113.874 75.6144L113.899 75.5887C113.925 75.563 113.951 75.5373 113.976 75.4859L114.002 75.4602C114.015 75.4345 114.028 75.4152 114.041 75.3959C114.054 75.3767 114.066 75.3574 114.079 75.3317C115.91 71.9331 118.091 69.3176 120.602 67.5059L136.75 99.55C137.104 100.261 137.162 101.083 136.913 101.837C136.663 102.591 136.126 103.216 135.418 103.576L119.344 111.676C118.633 112.03 117.811 112.088 117.057 111.839C116.303 111.589 115.678 111.052 115.318 110.344L92.4567 64.9771ZM77 40V40.0129C77 40.0386 77.0064 40.0643 77.0128 40.09C77.0193 40.1157 77.0257 40.1414 77.0257 40.1671V40.1928C77.0257 40.2442 77.0514 40.2956 77.0771 40.3213V40.347L77.1542 40.5013C77.167 40.527 77.1799 40.5462 77.1927 40.5655C77.2056 40.5848 77.2184 40.6041 77.2313 40.6298L77.257 40.6555C77.2698 40.6812 77.2891 40.7005 77.3083 40.7197C77.3276 40.739 77.3469 40.7583 77.3597 40.784C77.3854 40.8097 77.4368 40.8611 77.4882 40.8868L77.5139 40.9125C77.5653 40.9382 77.6167 40.9639 77.6681 41.0154C84.2976 44.5884 87.3555 49.3365 87.8694 55.4286C88.3049 59.8821 87.4418 63.5216 87.3395 63.953C87.3332 63.9798 87.3298 63.9942 87.3298 63.9957V64.0214C87.3041 64.0728 87.2784 64.1242 87.2784 64.1757V64.2014C87.2527 64.2528 87.2527 64.3042 87.2527 64.3556V64.7669C87.2784 64.8697 87.3041 64.9725 87.3555 65.0753C87.3555 65.0753 87.3555 65.101 87.3812 65.101C87.4069 65.1525 87.4325 65.2039 87.4582 65.2296C87.4839 65.281 87.5353 65.3324 87.561 65.3581L87.561 65.3581V65.3838L87.5867 65.4095L87.6381 65.4609L87.6895 65.5123L87.7152 65.538C87.7409 65.5509 87.7602 65.5702 87.7794 65.5894C87.7987 65.6087 87.818 65.628 87.8437 65.6408C87.8437 65.6408 87.8694 65.6409 87.8694 65.6666C87.8951 65.6794 87.9144 65.6923 87.9336 65.7051C87.9529 65.718 87.9722 65.7308 87.9979 65.7437C87.9979 65.7437 87.9987 65.7437 88 65.7438V109C88 110.65 86.65 112 85 112H67C65.35 112 64 110.65 64 109V43C64 41.35 65.35 40 67 40H77ZM37 40H55C56.65 40 58 41.35 58 43V104.776L40.5531 88.0119C38.7736 86.3017 36.29 85.6818 34 86.1522V43C34 41.35 35.35 40 37 40ZM40 58H52V52H40V58ZM70 58H82V52H70V58Z" fill="white"/>
<g clip-path="url(#clip0_320_73)">
<path d="M38.2813 94.3162C36.4688 92.5613 33.5313 92.5613 31.7188 94.3162L11.3625 114.029C9.55005 115.784 9.55005 118.625 11.3625 120.377L31.725 140.093C33.5375 141.848 36.4719 141.848 38.2813 140.093L58.6438 120.377C60.4563 118.622 60.4563 115.781 58.6438 114.029L38.2813 94.3162ZM27.1719 111.255C27.0712 111.256 26.9712 111.237 26.8782 111.2C26.7851 111.163 26.7009 111.107 26.6307 111.037C26.5605 110.967 26.5058 110.884 26.4699 110.793C26.434 110.702 26.4177 110.605 26.4219 110.507C26.7188 105.379 31.0532 103.59 35.0157 103.59C39.3782 103.59 43.3657 105.799 43.3657 110.368C43.3657 113.636 41.3813 115.191 39.4782 116.592C37.175 118.284 36.3219 118.916 36.3219 121.088V121.406C36.3219 121.607 36.2396 121.799 36.0931 121.941C35.9466 122.083 35.7479 122.163 35.5407 122.163H33.0094C32.8044 122.163 32.6075 122.085 32.4614 121.945C32.3152 121.806 32.2315 121.617 32.2282 121.418L32.2157 120.762C32.0969 117.957 33.7625 116.229 35.8657 114.749C37.7094 113.406 38.8813 112.522 38.8813 110.601C38.8813 108.105 36.9188 107.067 34.775 107.067C32.2657 107.067 30.8594 108.513 30.5813 110.498C30.525 110.913 30.1813 111.255 29.75 111.255H27.1719V111.255ZM34.4375 130.75C32.6125 130.75 31.2844 129.558 31.2844 127.945C31.2844 126.275 32.6125 125.101 34.4407 125.101C36.3438 125.101 37.6532 126.275 37.6532 127.945C37.6532 129.558 36.3407 130.75 34.4375 130.75Z" fill="#005BBF"/>
</g>
<mask id="path-6-outside-1_320_73" maskUnits="userSpaceOnUse" x="85.75" y="12.75" width="55" height="55" fill="black">
<rect fill="white" x="85.75" y="12.75" width="55" height="55"/>
<path d="M139.119 40.5438C139.156 40.4875 139.212 40.4125 139.231 40.3375V40.3188C139.25 40.2813 139.25 40.2438 139.269 40.2063C139.269 40.1688 139.288 40.1313 139.288 40.075V39.925C139.288 39.8875 139.269 39.85 139.269 39.8125V39.7938C139.269 39.7563 139.25 39.7188 139.231 39.7V39.6812L139.175 39.5688C139.156 39.5313 139.138 39.5125 139.119 39.475L139.1 39.4563C139.081 39.4188 139.044 39.4 139.025 39.3625C138.998 39.333 138.966 39.3077 138.931 39.2875L138.912 39.2687C138.871 39.2504 138.833 39.225 138.8 39.1937C133.963 36.5875 131.3 33.0062 130.925 28.5625C130.625 25.1687 131.788 22.5062 131.788 22.4875V22.4688C131.806 22.4313 131.825 22.3938 131.825 22.3563V22.3375C131.844 22.3 131.844 22.2625 131.844 22.225V21.925C131.84 21.8529 131.821 21.7825 131.788 21.7188C131.788 21.7187 131.788 21.7 131.769 21.7C131.754 21.6664 131.735 21.6349 131.712 21.6063C131.694 21.5688 131.656 21.5312 131.638 21.5125V21.4938L131.619 21.475L131.581 21.4375L131.544 21.4L131.525 21.3813C131.487 21.3625 131.469 21.325 131.431 21.3063C131.431 21.3063 131.412 21.3062 131.412 21.2875C131.394 21.2875 131.356 21.2687 131.338 21.25C131.338 21.25 131.319 21.25 131.319 21.2312C131.281 21.2125 131.244 21.1937 131.206 21.1937H131.188C131.15 21.175 131.112 21.175 131.075 21.175H130.756C130.719 21.175 130.681 21.1937 130.644 21.1937C125.375 22.7687 120.969 22.1312 117.556 19.2437C114.969 17.0687 113.9 14.3687 113.9 14.35L113.844 14.2375C113.825 14.2 113.806 14.1813 113.788 14.1438L113.769 14.125C113.75 14.0875 113.713 14.0688 113.694 14.0313L113.619 13.9562L113.6 13.9375C113.544 13.9 113.469 13.8437 113.394 13.825H113.375C113.338 13.8062 113.3 13.8062 113.262 13.7875C113.187 13.7687 113.15 13.75 113.112 13.75H112.944C112.906 13.75 112.869 13.7687 112.831 13.7687H112.812C112.775 13.7687 112.756 13.7875 112.719 13.8062C112.719 13.8062 112.7 13.8062 112.7 13.825L112.587 13.8812H112.569C112.531 13.9 112.513 13.9187 112.475 13.9375L112.456 13.9562C112.419 13.975 112.4 14.0125 112.362 14.0313L112.287 14.1063L112.269 14.125C112.25 14.1625 112.231 14.2 112.212 14.2188C109.606 19.0562 106.025 21.7187 101.581 22.0937C98.2062 22.4312 95.5437 21.25 95.525 21.25H95.5063L95.3938 21.1937H95.375C95.3375 21.1937 95.3 21.175 95.2813 21.175H94.9812C94.9062 21.1938 94.8312 21.2125 94.7562 21.25C94.7562 21.25 94.7375 21.25 94.7375 21.2688C94.7 21.2688 94.6625 21.2875 94.6438 21.3063C94.5875 21.3438 94.5688 21.3625 94.5313 21.3813H94.5125L94.4938 21.4C94.4938 21.4187 94.4937 21.4375 94.475 21.4375C94.4562 21.4562 94.4562 21.475 94.4375 21.475L94.4188 21.4938C94.4 21.5313 94.3625 21.5688 94.3438 21.6063C94.3438 21.6063 94.3437 21.625 94.325 21.625C94.325 21.6437 94.3062 21.6812 94.2875 21.7C94.2875 21.7 94.2875 21.7188 94.2688 21.7188C94.2688 21.7562 94.25 21.7938 94.2312 21.85C94.2312 21.8875 94.2125 21.925 94.2125 21.9625V22.2438C94.2125 22.2813 94.2312 22.3188 94.2312 22.3563C95.8062 27.625 95.1687 32.0312 92.2812 35.4437C90.1062 38.0312 87.425 39.0813 87.3687 39.1L87.2562 39.1563H87.2375C87.2 39.175 87.1813 39.1937 87.1438 39.2125L87.125 39.2313C87.0875 39.25 87.0688 39.2875 87.0313 39.3063L87.0125 39.325C86.9938 39.3438 86.975 39.3813 86.9375 39.4L86.9187 39.4187C86.8812 39.475 86.8437 39.55 86.8062 39.625V39.6438C86.7875 39.6813 86.7875 39.7187 86.7687 39.7562C86.7687 39.7937 86.75 39.8313 86.75 39.8688V40.0188C86.75 40.0563 86.7687 40.0937 86.7687 40.1312V40.15C86.7687 40.1875 86.7875 40.225 86.8062 40.2437V40.2625L86.8625 40.375C86.8812 40.4125 86.9 40.4313 86.9187 40.4688L86.9375 40.4875C86.9562 40.525 86.9938 40.5437 87.0125 40.5812C87.0313 40.6 87.0688 40.6375 87.1063 40.6563L87.125 40.675C87.1625 40.6938 87.2 40.7125 87.2375 40.75C92.075 43.3562 94.7375 46.9375 95.1125 51.3812C95.45 54.8312 94.2875 57.4938 94.2875 57.5125V57.5313C94.2687 57.5688 94.25 57.6062 94.25 57.6437V57.6625C94.2313 57.7 94.2312 57.7375 94.2312 57.775V58.075C94.25 58.15 94.2688 58.225 94.3063 58.3C94.3063 58.3 94.3062 58.3188 94.325 58.3188C94.3437 58.3563 94.3625 58.3937 94.3813 58.4125C94.4 58.45 94.4375 58.4875 94.4563 58.5063V58.525L94.475 58.5437L94.5125 58.5812L94.55 58.6188L94.5688 58.6375C94.6063 58.6563 94.625 58.6937 94.6625 58.7125C94.6625 58.7125 94.6813 58.7125 94.6813 58.7312C94.7188 58.75 94.7375 58.7688 94.775 58.7875C94.775 58.7875 94.7937 58.7875 94.7937 58.8063C94.8312 58.825 94.8687 58.8437 94.9062 58.8437H94.925C94.9625 58.8625 95 58.8625 95.0375 58.8625H95.3188C95.3563 58.8625 95.3938 58.8437 95.4313 58.8437C100.7 57.25 105.106 57.9063 108.519 60.7938C111.106 62.9688 112.175 65.6688 112.175 65.6875L112.231 65.8C112.25 65.8375 112.269 65.8562 112.287 65.8937L112.306 65.9125C112.325 65.95 112.363 65.9688 112.381 66.0063L112.456 66.0812L112.475 66.1C112.531 66.1375 112.606 66.1937 112.681 66.2125H112.7C112.738 66.2312 112.775 66.2313 112.812 66.25C112.85 66.25 112.888 66.2688 112.925 66.2688H113.15C113.187 66.2688 113.206 66.25 113.244 66.25H113.262C113.336 66.2303 113.406 66.1986 113.469 66.1563L113.488 66.1375C113.506 66.1188 113.544 66.1 113.562 66.0812L113.581 66.0625C113.619 66.0437 113.638 66.0063 113.656 65.9875L113.675 65.9688C113.694 65.95 113.712 65.9312 113.731 65.8937L113.75 65.875C113.769 65.8375 113.788 65.8187 113.806 65.7812C116.413 60.9438 119.994 58.2812 124.438 57.9062C127.813 57.6062 130.475 58.7688 130.494 58.7875C130.531 58.8063 130.569 58.825 130.606 58.825H130.625C130.662 58.8438 130.7 58.8437 130.737 58.8437H131.056C131.131 58.825 131.206 58.8063 131.281 58.7688C131.281 58.7688 131.3 58.7687 131.3 58.75C131.338 58.7313 131.375 58.7125 131.394 58.6937C131.431 58.675 131.469 58.6375 131.488 58.6188H131.506L131.525 58.6L131.562 58.5625L131.6 58.525L131.619 58.5063C131.638 58.4688 131.675 58.45 131.694 58.4125C131.694 58.4125 131.694 58.3937 131.712 58.3937C131.731 58.3562 131.75 58.3375 131.769 58.3C131.769 58.3 131.769 58.2812 131.788 58.2812C131.806 58.2438 131.825 58.2063 131.825 58.1688C131.844 58.1313 131.844 58.0937 131.844 58.0562V57.775C131.844 57.7375 131.825 57.7 131.825 57.6625C130.25 52.3938 130.887 47.9875 133.775 44.575C135.95 41.9875 138.65 40.9187 138.669 40.9187L138.781 40.8625H138.8C138.838 40.8437 138.856 40.825 138.894 40.8063L138.912 40.7875C138.95 40.7688 138.969 40.7312 139.006 40.7125L139.081 40.6375C139.1 40.5625 139.1 40.5625 139.119 40.5438V40.5438ZM135.125 39.0625H127.344C122.019 36.0625 123.444 31.4687 123.781 30.5875L129.144 25.225C128.994 26.2187 128.937 27.3813 129.031 28.6188C129.425 33.5125 132.181 36.85 135.125 39.0625V39.0625ZM104.562 46.3C104.431 44.7625 103.831 42.7375 101.919 40.9375H110.787L104.6 47.125C104.6 46.8625 104.581 46.5813 104.562 46.3ZM113.975 28.9938C114.163 29.1813 114.369 29.3688 114.575 29.5563C115.7 30.5125 117.444 31.4687 119.919 31.4687H120.238L113.975 37.7312V28.9938V28.9938ZM112.1 37.7312L105.913 31.5437C106.175 31.5437 106.456 31.5437 106.737 31.525C108.275 31.3937 110.3 30.7937 112.1 28.8812V37.7312V37.7312ZM110.769 39.0625H102.031C102.219 38.875 102.406 38.6688 102.594 38.4625C103.587 37.2813 104.6 35.4437 104.506 32.8L110.769 39.0625ZM112.1 42.2687V51.025C111.913 50.8375 111.706 50.65 111.5 50.4625C110.375 49.5062 108.631 48.55 106.156 48.55H105.838L112.1 42.2687ZM113.975 42.2687L120.162 48.4563C119.9 48.4563 119.619 48.4563 119.337 48.475C117.8 48.6063 115.775 49.2063 113.975 51.1188V42.2687V42.2687ZM115.306 40.9375H124.062C123.875 41.125 123.688 41.3312 123.5 41.5375C122.506 42.7187 121.494 44.5563 121.587 47.2L115.306 40.9375V40.9375ZM115.306 39.0625L121.494 32.875C121.494 33.1375 121.494 33.4188 121.513 33.7C121.644 35.2375 122.244 37.2625 124.156 39.0625H115.306V39.0625ZM116.3 20.6313C120.031 23.8188 124.344 24.2312 128 23.7062L122.487 29.2188C116.6 30.8687 114.369 26.6125 113.975 25.75V18.1562C114.575 18.9625 115.344 19.825 116.3 20.6313V20.6313ZM101.656 24.0062C106.55 23.6125 109.888 20.8562 112.1 17.9125V25.6937C109.1 31.0187 104.506 29.5938 103.625 29.2563L98.2625 23.8937C99.2563 24.025 100.4 24.1 101.656 24.0062V24.0062ZM93.6688 36.7375C96.8563 33.0063 97.2687 28.6938 96.7437 25.0375L102.256 30.55C103.906 36.4188 99.65 38.6688 98.7875 39.0625H91.1937C92 38.4625 92.8625 37.6938 93.6688 36.7375V36.7375ZM90.95 40.9375H98.7313C104.056 43.9375 102.631 48.5313 102.294 49.4125L96.9312 54.775C97.0812 53.7812 97.1375 52.6187 97.0437 51.3812C96.65 46.4875 93.8937 43.15 90.95 40.9375V40.9375ZM109.775 59.3687C106.887 56.9125 103.644 56.1063 100.644 56.1063C99.7625 56.1063 98.9 56.1813 98.075 56.2938L103.587 50.7812C109.475 49.1313 111.706 53.3875 112.1 54.25V61.8437C111.5 61.0375 110.731 60.175 109.775 59.3687V59.3687ZM124.419 55.9938C119.525 56.3875 116.188 59.1438 113.975 62.0875V54.3062C116.975 48.9812 121.569 50.4062 122.45 50.7437L127.812 56.1063C126.819 55.975 125.675 55.9 124.419 55.9938ZM132.406 43.2625C129.219 46.9937 128.806 51.3062 129.331 54.9625L123.819 49.45C122.169 43.5625 126.425 41.3312 127.288 40.9375H134.881C134.075 41.5375 133.213 42.3062 132.406 43.2625V43.2625Z"/>
</mask>
<path d="M139.119 40.5438C139.156 40.4875 139.212 40.4125 139.231 40.3375V40.3188C139.25 40.2813 139.25 40.2438 139.269 40.2063C139.269 40.1688 139.288 40.1313 139.288 40.075V39.925C139.288 39.8875 139.269 39.85 139.269 39.8125V39.7938C139.269 39.7563 139.25 39.7188 139.231 39.7V39.6812L139.175 39.5688C139.156 39.5313 139.138 39.5125 139.119 39.475L139.1 39.4563C139.081 39.4188 139.044 39.4 139.025 39.3625C138.998 39.333 138.966 39.3077 138.931 39.2875L138.912 39.2687C138.871 39.2504 138.833 39.225 138.8 39.1937C133.963 36.5875 131.3 33.0062 130.925 28.5625C130.625 25.1687 131.788 22.5062 131.788 22.4875V22.4688C131.806 22.4313 131.825 22.3938 131.825 22.3563V22.3375C131.844 22.3 131.844 22.2625 131.844 22.225V21.925C131.84 21.8529 131.821 21.7825 131.788 21.7188C131.788 21.7187 131.788 21.7 131.769 21.7C131.754 21.6664 131.735 21.6349 131.712 21.6063C131.694 21.5688 131.656 21.5312 131.638 21.5125V21.4938L131.619 21.475L131.581 21.4375L131.544 21.4L131.525 21.3813C131.487 21.3625 131.469 21.325 131.431 21.3063C131.431 21.3063 131.412 21.3062 131.412 21.2875C131.394 21.2875 131.356 21.2687 131.338 21.25C131.338 21.25 131.319 21.25 131.319 21.2312C131.281 21.2125 131.244 21.1937 131.206 21.1937H131.188C131.15 21.175 131.112 21.175 131.075 21.175H130.756C130.719 21.175 130.681 21.1937 130.644 21.1937C125.375 22.7687 120.969 22.1312 117.556 19.2437C114.969 17.0687 113.9 14.3687 113.9 14.35L113.844 14.2375C113.825 14.2 113.806 14.1813 113.788 14.1438L113.769 14.125C113.75 14.0875 113.713 14.0688 113.694 14.0313L113.619 13.9562L113.6 13.9375C113.544 13.9 113.469 13.8437 113.394 13.825H113.375C113.338 13.8062 113.3 13.8062 113.262 13.7875C113.187 13.7687 113.15 13.75 113.112 13.75H112.944C112.906 13.75 112.869 13.7687 112.831 13.7687H112.812C112.775 13.7687 112.756 13.7875 112.719 13.8062C112.719 13.8062 112.7 13.8062 112.7 13.825L112.587 13.8812H112.569C112.531 13.9 112.513 13.9187 112.475 13.9375L112.456 13.9562C112.419 13.975 112.4 14.0125 112.362 14.0313L112.287 14.1063L112.269 14.125C112.25 14.1625 112.231 14.2 112.212 14.2188C109.606 19.0562 106.025 21.7187 101.581 22.0937C98.2062 22.4312 95.5437 21.25 95.525 21.25H95.5063L95.3938 21.1937H95.375C95.3375 21.1937 95.3 21.175 95.2813 21.175H94.9812C94.9062 21.1938 94.8312 21.2125 94.7562 21.25C94.7562 21.25 94.7375 21.25 94.7375 21.2688C94.7 21.2688 94.6625 21.2875 94.6438 21.3063C94.5875 21.3438 94.5688 21.3625 94.5313 21.3813H94.5125L94.4938 21.4C94.4938 21.4187 94.4937 21.4375 94.475 21.4375C94.4562 21.4562 94.4562 21.475 94.4375 21.475L94.4188 21.4938C94.4 21.5313 94.3625 21.5688 94.3438 21.6063C94.3438 21.6063 94.3437 21.625 94.325 21.625C94.325 21.6437 94.3062 21.6812 94.2875 21.7C94.2875 21.7 94.2875 21.7188 94.2688 21.7188C94.2688 21.7562 94.25 21.7938 94.2312 21.85C94.2312 21.8875 94.2125 21.925 94.2125 21.9625V22.2438C94.2125 22.2813 94.2312 22.3188 94.2312 22.3563C95.8062 27.625 95.1687 32.0312 92.2812 35.4437C90.1062 38.0312 87.425 39.0813 87.3687 39.1L87.2562 39.1563H87.2375C87.2 39.175 87.1813 39.1937 87.1438 39.2125L87.125 39.2313C87.0875 39.25 87.0688 39.2875 87.0313 39.3063L87.0125 39.325C86.9938 39.3438 86.975 39.3813 86.9375 39.4L86.9187 39.4187C86.8812 39.475 86.8437 39.55 86.8062 39.625V39.6438C86.7875 39.6813 86.7875 39.7187 86.7687 39.7562C86.7687 39.7937 86.75 39.8313 86.75 39.8688V40.0188C86.75 40.0563 86.7687 40.0937 86.7687 40.1312V40.15C86.7687 40.1875 86.7875 40.225 86.8062 40.2437V40.2625L86.8625 40.375C86.8812 40.4125 86.9 40.4313 86.9187 40.4688L86.9375 40.4875C86.9562 40.525 86.9938 40.5437 87.0125 40.5812C87.0313 40.6 87.0688 40.6375 87.1063 40.6563L87.125 40.675C87.1625 40.6938 87.2 40.7125 87.2375 40.75C92.075 43.3562 94.7375 46.9375 95.1125 51.3812C95.45 54.8312 94.2875 57.4938 94.2875 57.5125V57.5313C94.2687 57.5688 94.25 57.6062 94.25 57.6437V57.6625C94.2313 57.7 94.2312 57.7375 94.2312 57.775V58.075C94.25 58.15 94.2688 58.225 94.3063 58.3C94.3063 58.3 94.3062 58.3188 94.325 58.3188C94.3437 58.3563 94.3625 58.3937 94.3813 58.4125C94.4 58.45 94.4375 58.4875 94.4563 58.5063V58.525L94.475 58.5437L94.5125 58.5812L94.55 58.6188L94.5688 58.6375C94.6063 58.6563 94.625 58.6937 94.6625 58.7125C94.6625 58.7125 94.6813 58.7125 94.6813 58.7312C94.7188 58.75 94.7375 58.7688 94.775 58.7875C94.775 58.7875 94.7937 58.7875 94.7937 58.8063C94.8312 58.825 94.8687 58.8437 94.9062 58.8437H94.925C94.9625 58.8625 95 58.8625 95.0375 58.8625H95.3188C95.3563 58.8625 95.3938 58.8437 95.4313 58.8437C100.7 57.25 105.106 57.9063 108.519 60.7938C111.106 62.9688 112.175 65.6688 112.175 65.6875L112.231 65.8C112.25 65.8375 112.269 65.8562 112.287 65.8937L112.306 65.9125C112.325 65.95 112.363 65.9688 112.381 66.0063L112.456 66.0812L112.475 66.1C112.531 66.1375 112.606 66.1937 112.681 66.2125H112.7C112.738 66.2312 112.775 66.2313 112.812 66.25C112.85 66.25 112.888 66.2688 112.925 66.2688H113.15C113.187 66.2688 113.206 66.25 113.244 66.25H113.262C113.336 66.2303 113.406 66.1986 113.469 66.1563L113.488 66.1375C113.506 66.1188 113.544 66.1 113.562 66.0812L113.581 66.0625C113.619 66.0437 113.638 66.0063 113.656 65.9875L113.675 65.9688C113.694 65.95 113.712 65.9312 113.731 65.8937L113.75 65.875C113.769 65.8375 113.788 65.8187 113.806 65.7812C116.413 60.9438 119.994 58.2812 124.438 57.9062C127.813 57.6062 130.475 58.7688 130.494 58.7875C130.531 58.8063 130.569 58.825 130.606 58.825H130.625C130.662 58.8438 130.7 58.8437 130.737 58.8437H131.056C131.131 58.825 131.206 58.8063 131.281 58.7688C131.281 58.7688 131.3 58.7687 131.3 58.75C131.338 58.7313 131.375 58.7125 131.394 58.6937C131.431 58.675 131.469 58.6375 131.488 58.6188H131.506L131.525 58.6L131.562 58.5625L131.6 58.525L131.619 58.5063C131.638 58.4688 131.675 58.45 131.694 58.4125C131.694 58.4125 131.694 58.3937 131.712 58.3937C131.731 58.3562 131.75 58.3375 131.769 58.3C131.769 58.3 131.769 58.2812 131.788 58.2812C131.806 58.2438 131.825 58.2063 131.825 58.1688C131.844 58.1313 131.844 58.0937 131.844 58.0562V57.775C131.844 57.7375 131.825 57.7 131.825 57.6625C130.25 52.3938 130.887 47.9875 133.775 44.575C135.95 41.9875 138.65 40.9187 138.669 40.9187L138.781 40.8625H138.8C138.838 40.8437 138.856 40.825 138.894 40.8063L138.912 40.7875C138.95 40.7688 138.969 40.7312 139.006 40.7125L139.081 40.6375C139.1 40.5625 139.1 40.5625 139.119 40.5438V40.5438ZM135.125 39.0625H127.344C122.019 36.0625 123.444 31.4687 123.781 30.5875L129.144 25.225C128.994 26.2187 128.937 27.3813 129.031 28.6188C129.425 33.5125 132.181 36.85 135.125 39.0625V39.0625ZM104.562 46.3C104.431 44.7625 103.831 42.7375 101.919 40.9375H110.787L104.6 47.125C104.6 46.8625 104.581 46.5813 104.562 46.3ZM113.975 28.9938C114.163 29.1813 114.369 29.3688 114.575 29.5563C115.7 30.5125 117.444 31.4687 119.919 31.4687H120.238L113.975 37.7312V28.9938V28.9938ZM112.1 37.7312L105.913 31.5437C106.175 31.5437 106.456 31.5437 106.737 31.525C108.275 31.3937 110.3 30.7937 112.1 28.8812V37.7312V37.7312ZM110.769 39.0625H102.031C102.219 38.875 102.406 38.6688 102.594 38.4625C103.587 37.2813 104.6 35.4437 104.506 32.8L110.769 39.0625ZM112.1 42.2687V51.025C111.913 50.8375 111.706 50.65 111.5 50.4625C110.375 49.5062 108.631 48.55 106.156 48.55H105.838L112.1 42.2687ZM113.975 42.2687L120.162 48.4563C119.9 48.4563 119.619 48.4563 119.337 48.475C117.8 48.6063 115.775 49.2063 113.975 51.1188V42.2687V42.2687ZM115.306 40.9375H124.062C123.875 41.125 123.688 41.3312 123.5 41.5375C122.506 42.7187 121.494 44.5563 121.587 47.2L115.306 40.9375V40.9375ZM115.306 39.0625L121.494 32.875C121.494 33.1375 121.494 33.4188 121.513 33.7C121.644 35.2375 122.244 37.2625 124.156 39.0625H115.306V39.0625ZM116.3 20.6313C120.031 23.8188 124.344 24.2312 128 23.7062L122.487 29.2188C116.6 30.8687 114.369 26.6125 113.975 25.75V18.1562C114.575 18.9625 115.344 19.825 116.3 20.6313V20.6313ZM101.656 24.0062C106.55 23.6125 109.888 20.8562 112.1 17.9125V25.6937C109.1 31.0187 104.506 29.5938 103.625 29.2563L98.2625 23.8937C99.2563 24.025 100.4 24.1 101.656 24.0062V24.0062ZM93.6688 36.7375C96.8563 33.0063 97.2687 28.6938 96.7437 25.0375L102.256 30.55C103.906 36.4188 99.65 38.6688 98.7875 39.0625H91.1937C92 38.4625 92.8625 37.6938 93.6688 36.7375V36.7375ZM90.95 40.9375H98.7313C104.056 43.9375 102.631 48.5313 102.294 49.4125L96.9312 54.775C97.0812 53.7812 97.1375 52.6187 97.0437 51.3812C96.65 46.4875 93.8937 43.15 90.95 40.9375V40.9375ZM109.775 59.3687C106.887 56.9125 103.644 56.1063 100.644 56.1063C99.7625 56.1063 98.9 56.1813 98.075 56.2938L103.587 50.7812C109.475 49.1313 111.706 53.3875 112.1 54.25V61.8437C111.5 61.0375 110.731 60.175 109.775 59.3687V59.3687ZM124.419 55.9938C119.525 56.3875 116.188 59.1438 113.975 62.0875V54.3062C116.975 48.9812 121.569 50.4062 122.45 50.7437L127.812 56.1063C126.819 55.975 125.675 55.9 124.419 55.9938ZM132.406 43.2625C129.219 46.9937 128.806 51.3062 129.331 54.9625L123.819 49.45C122.169 43.5625 126.425 41.3312 127.288 40.9375H134.881C134.075 41.5375 133.213 42.3062 132.406 43.2625V43.2625Z" fill="#005BBF"/>
<path d="M139.119 40.5438C139.156 40.4875 139.212 40.4125 139.231 40.3375V40.3188C139.25 40.2813 139.25 40.2438 139.269 40.2063C139.269 40.1688 139.288 40.1313 139.288 40.075V39.925C139.288 39.8875 139.269 39.85 139.269 39.8125V39.7938C139.269 39.7563 139.25 39.7188 139.231 39.7V39.6812L139.175 39.5688C139.156 39.5313 139.138 39.5125 139.119 39.475L139.1 39.4563C139.081 39.4188 139.044 39.4 139.025 39.3625C138.998 39.333 138.966 39.3077 138.931 39.2875L138.912 39.2687C138.871 39.2504 138.833 39.225 138.8 39.1937C133.963 36.5875 131.3 33.0062 130.925 28.5625C130.625 25.1687 131.788 22.5062 131.788 22.4875V22.4688C131.806 22.4313 131.825 22.3938 131.825 22.3563V22.3375C131.844 22.3 131.844 22.2625 131.844 22.225V21.925C131.84 21.8529 131.821 21.7825 131.788 21.7188C131.788 21.7187 131.788 21.7 131.769 21.7C131.754 21.6664 131.735 21.6349 131.712 21.6063C131.694 21.5688 131.656 21.5312 131.638 21.5125V21.4938L131.619 21.475L131.581 21.4375L131.544 21.4L131.525 21.3813C131.487 21.3625 131.469 21.325 131.431 21.3063C131.431 21.3063 131.412 21.3062 131.412 21.2875C131.394 21.2875 131.356 21.2687 131.338 21.25C131.338 21.25 131.319 21.25 131.319 21.2312C131.281 21.2125 131.244 21.1937 131.206 21.1937H131.188C131.15 21.175 131.112 21.175 131.075 21.175H130.756C130.719 21.175 130.681 21.1937 130.644 21.1937C125.375 22.7687 120.969 22.1312 117.556 19.2437C114.969 17.0687 113.9 14.3687 113.9 14.35L113.844 14.2375C113.825 14.2 113.806 14.1813 113.788 14.1438L113.769 14.125C113.75 14.0875 113.713 14.0688 113.694 14.0313L113.619 13.9562L113.6 13.9375C113.544 13.9 113.469 13.8437 113.394 13.825H113.375C113.338 13.8062 113.3 13.8062 113.262 13.7875C113.187 13.7687 113.15 13.75 113.112 13.75H112.944C112.906 13.75 112.869 13.7687 112.831 13.7687H112.812C112.775 13.7687 112.756 13.7875 112.719 13.8062C112.719 13.8062 112.7 13.8062 112.7 13.825L112.587 13.8812H112.569C112.531 13.9 112.513 13.9187 112.475 13.9375L112.456 13.9562C112.419 13.975 112.4 14.0125 112.362 14.0313L112.287 14.1063L112.269 14.125C112.25 14.1625 112.231 14.2 112.212 14.2188C109.606 19.0562 106.025 21.7187 101.581 22.0937C98.2062 22.4312 95.5437 21.25 95.525 21.25H95.5063L95.3938 21.1937H95.375C95.3375 21.1937 95.3 21.175 95.2813 21.175H94.9812C94.9062 21.1938 94.8312 21.2125 94.7562 21.25C94.7562 21.25 94.7375 21.25 94.7375 21.2688C94.7 21.2688 94.6625 21.2875 94.6438 21.3063C94.5875 21.3438 94.5688 21.3625 94.5313 21.3813H94.5125L94.4938 21.4C94.4938 21.4187 94.4937 21.4375 94.475 21.4375C94.4562 21.4562 94.4562 21.475 94.4375 21.475L94.4188 21.4938C94.4 21.5313 94.3625 21.5688 94.3438 21.6063C94.3438 21.6063 94.3437 21.625 94.325 21.625C94.325 21.6437 94.3062 21.6812 94.2875 21.7C94.2875 21.7 94.2875 21.7188 94.2688 21.7188C94.2688 21.7562 94.25 21.7938 94.2312 21.85C94.2312 21.8875 94.2125 21.925 94.2125 21.9625V22.2438C94.2125 22.2813 94.2312 22.3188 94.2312 22.3563C95.8062 27.625 95.1687 32.0312 92.2812 35.4437C90.1062 38.0312 87.425 39.0813 87.3687 39.1L87.2562 39.1563H87.2375C87.2 39.175 87.1813 39.1937 87.1438 39.2125L87.125 39.2313C87.0875 39.25 87.0688 39.2875 87.0313 39.3063L87.0125 39.325C86.9938 39.3438 86.975 39.3813 86.9375 39.4L86.9187 39.4187C86.8812 39.475 86.8437 39.55 86.8062 39.625V39.6438C86.7875 39.6813 86.7875 39.7187 86.7687 39.7562C86.7687 39.7937 86.75 39.8313 86.75 39.8688V40.0188C86.75 40.0563 86.7687 40.0937 86.7687 40.1312V40.15C86.7687 40.1875 86.7875 40.225 86.8062 40.2437V40.2625L86.8625 40.375C86.8812 40.4125 86.9 40.4313 86.9187 40.4688L86.9375 40.4875C86.9562 40.525 86.9938 40.5437 87.0125 40.5812C87.0313 40.6 87.0688 40.6375 87.1063 40.6563L87.125 40.675C87.1625 40.6938 87.2 40.7125 87.2375 40.75C92.075 43.3562 94.7375 46.9375 95.1125 51.3812C95.45 54.8312 94.2875 57.4938 94.2875 57.5125V57.5313C94.2687 57.5688 94.25 57.6062 94.25 57.6437V57.6625C94.2313 57.7 94.2312 57.7375 94.2312 57.775V58.075C94.25 58.15 94.2688 58.225 94.3063 58.3C94.3063 58.3 94.3062 58.3188 94.325 58.3188C94.3437 58.3563 94.3625 58.3937 94.3813 58.4125C94.4 58.45 94.4375 58.4875 94.4563 58.5063V58.525L94.475 58.5437L94.5125 58.5812L94.55 58.6188L94.5688 58.6375C94.6063 58.6563 94.625 58.6937 94.6625 58.7125C94.6625 58.7125 94.6813 58.7125 94.6813 58.7312C94.7188 58.75 94.7375 58.7688 94.775 58.7875C94.775 58.7875 94.7937 58.7875 94.7937 58.8063C94.8312 58.825 94.8687 58.8437 94.9062 58.8437H94.925C94.9625 58.8625 95 58.8625 95.0375 58.8625H95.3188C95.3563 58.8625 95.3938 58.8437 95.4313 58.8437C100.7 57.25 105.106 57.9063 108.519 60.7938C111.106 62.9688 112.175 65.6688 112.175 65.6875L112.231 65.8C112.25 65.8375 112.269 65.8562 112.287 65.8937L112.306 65.9125C112.325 65.95 112.363 65.9688 112.381 66.0063L112.456 66.0812L112.475 66.1C112.531 66.1375 112.606 66.1937 112.681 66.2125H112.7C112.738 66.2312 112.775 66.2313 112.812 66.25C112.85 66.25 112.888 66.2688 112.925 66.2688H113.15C113.187 66.2688 113.206 66.25 113.244 66.25H113.262C113.336 66.2303 113.406 66.1986 113.469 66.1563L113.488 66.1375C113.506 66.1188 113.544 66.1 113.562 66.0812L113.581 66.0625C113.619 66.0437 113.638 66.0063 113.656 65.9875L113.675 65.9688C113.694 65.95 113.712 65.9312 113.731 65.8937L113.75 65.875C113.769 65.8375 113.788 65.8187 113.806 65.7812C116.413 60.9438 119.994 58.2812 124.438 57.9062C127.813 57.6062 130.475 58.7688 130.494 58.7875C130.531 58.8063 130.569 58.825 130.606 58.825H130.625C130.662 58.8438 130.7 58.8437 130.737 58.8437H131.056C131.131 58.825 131.206 58.8063 131.281 58.7688C131.281 58.7688 131.3 58.7687 131.3 58.75C131.338 58.7313 131.375 58.7125 131.394 58.6937C131.431 58.675 131.469 58.6375 131.488 58.6188H131.506L131.525 58.6L131.562 58.5625L131.6 58.525L131.619 58.5063C131.638 58.4688 131.675 58.45 131.694 58.4125C131.694 58.4125 131.694 58.3937 131.712 58.3937C131.731 58.3562 131.75 58.3375 131.769 58.3C131.769 58.3 131.769 58.2812 131.788 58.2812C131.806 58.2438 131.825 58.2063 131.825 58.1688C131.844 58.1313 131.844 58.0937 131.844 58.0562V57.775C131.844 57.7375 131.825 57.7 131.825 57.6625C130.25 52.3938 130.887 47.9875 133.775 44.575C135.95 41.9875 138.65 40.9187 138.669 40.9187L138.781 40.8625H138.8C138.838 40.8437 138.856 40.825 138.894 40.8063L138.912 40.7875C138.95 40.7688 138.969 40.7312 139.006 40.7125L139.081 40.6375C139.1 40.5625 139.1 40.5625 139.119 40.5438V40.5438ZM135.125 39.0625H127.344C122.019 36.0625 123.444 31.4687 123.781 30.5875L129.144 25.225C128.994 26.2187 128.937 27.3813 129.031 28.6188C129.425 33.5125 132.181 36.85 135.125 39.0625V39.0625ZM104.562 46.3C104.431 44.7625 103.831 42.7375 101.919 40.9375H110.787L104.6 47.125C104.6 46.8625 104.581 46.5813 104.562 46.3ZM113.975 28.9938C114.163 29.1813 114.369 29.3688 114.575 29.5563C115.7 30.5125 117.444 31.4687 119.919 31.4687H120.238L113.975 37.7312V28.9938V28.9938ZM112.1 37.7312L105.913 31.5437C106.175 31.5437 106.456 31.5437 106.737 31.525C108.275 31.3937 110.3 30.7937 112.1 28.8812V37.7312V37.7312ZM110.769 39.0625H102.031C102.219 38.875 102.406 38.6688 102.594 38.4625C103.587 37.2813 104.6 35.4437 104.506 32.8L110.769 39.0625ZM112.1 42.2687V51.025C111.913 50.8375 111.706 50.65 111.5 50.4625C110.375 49.5062 108.631 48.55 106.156 48.55H105.838L112.1 42.2687ZM113.975 42.2687L120.162 48.4563C119.9 48.4563 119.619 48.4563 119.337 48.475C117.8 48.6063 115.775 49.2063 113.975 51.1188V42.2687V42.2687ZM115.306 40.9375H124.062C123.875 41.125 123.688 41.3312 123.5 41.5375C122.506 42.7187 121.494 44.5563 121.587 47.2L115.306 40.9375V40.9375ZM115.306 39.0625L121.494 32.875C121.494 33.1375 121.494 33.4188 121.513 33.7C121.644 35.2375 122.244 37.2625 124.156 39.0625H115.306V39.0625ZM116.3 20.6313C120.031 23.8188 124.344 24.2312 128 23.7062L122.487 29.2188C116.6 30.8687 114.369 26.6125 113.975 25.75V18.1562C114.575 18.9625 115.344 19.825 116.3 20.6313V20.6313ZM101.656 24.0062C106.55 23.6125 109.888 20.8562 112.1 17.9125V25.6937C109.1 31.0187 104.506 29.5938 103.625 29.2563L98.2625 23.8937C99.2563 24.025 100.4 24.1 101.656 24.0062V24.0062ZM93.6688 36.7375C96.8563 33.0063 97.2687 28.6938 96.7437 25.0375L102.256 30.55C103.906 36.4188 99.65 38.6688 98.7875 39.0625H91.1937C92 38.4625 92.8625 37.6938 93.6688 36.7375V36.7375ZM90.95 40.9375H98.7313C104.056 43.9375 102.631 48.5313 102.294 49.4125L96.9312 54.775C97.0812 53.7812 97.1375 52.6187 97.0437 51.3812C96.65 46.4875 93.8937 43.15 90.95 40.9375V40.9375ZM109.775 59.3687C106.887 56.9125 103.644 56.1063 100.644 56.1063C99.7625 56.1063 98.9 56.1813 98.075 56.2938L103.587 50.7812C109.475 49.1313 111.706 53.3875 112.1 54.25V61.8437C111.5 61.0375 110.731 60.175 109.775 59.3687V59.3687ZM124.419 55.9938C119.525 56.3875 116.188 59.1438 113.975 62.0875V54.3062C116.975 48.9812 121.569 50.4062 122.45 50.7437L127.812 56.1063C126.819 55.975 125.675 55.9 124.419 55.9938ZM132.406 43.2625C129.219 46.9937 128.806 51.3062 129.331 54.9625L123.819 49.45C122.169 43.5625 126.425 41.3312 127.288 40.9375H134.881C134.075 41.5375 133.213 42.3062 132.406 43.2625V43.2625Z" stroke="#005BBF" mask="url(#path-6-outside-1_320_73)"/>
<defs>
<clipPath id="clip0_320_73">
<rect width="50" height="48.4127" fill="white" transform="translate(10 93)"/>
</clipPath>
</defs>
</svg>
