<svg width="145" height="138" viewBox="0 0 145 138" fill="none" xmlns="http://www.w3.org/2000/svg">
<path fill-rule="evenodd" clip-rule="evenodd" d="M91.9191 38.0264L82.6169 55.5971H95.5258L94.7271 59.857H35.1122C33.5136 59.857 31.9594 60.0513 30.4773 60.4121C30.6504 59.5732 30.9205 58.7573 31.2822 57.9808L37.6878 44.1038C38.5764 42.1781 39.9981 40.5472 41.7845 39.4042C43.5709 38.2611 45.6473 37.6537 47.7681 37.6537H89.0663C90.0343 37.6537 90.993 37.7802 91.9191 38.0264Z" fill="white"/>
<path fill-rule="evenodd" clip-rule="evenodd" d="M93.1659 68.1833H35.1122C32.1678 68.1833 29.3441 69.353 27.2621 71.435C25.1801 73.5169 24.0105 76.3407 24.0105 79.285C24.0105 82.2294 25.1801 85.0531 27.2621 87.1351C29.3441 89.2171 32.1678 90.3867 35.1122 90.3867H101.722C104.667 90.3867 107.49 89.2171 109.572 87.1351C111.654 85.0531 112.824 82.2294 112.824 79.285C112.824 76.3407 111.654 73.5169 109.572 71.435C108.999 70.8621 108.37 70.3584 107.698 69.929L102.074 75.1368C103.049 75.2194 103.969 75.6438 104.666 76.3412C105.447 77.122 105.885 78.1809 105.885 79.285V79.3405C105.885 80.4447 105.447 81.5036 104.666 82.2843C103.885 83.065 102.826 83.5037 101.722 83.5037H101.667C100.563 83.5037 99.5036 83.065 98.7229 82.2843C97.9488 81.5102 97.511 80.4625 97.5036 79.3685L89.7168 86.5786L93.1659 68.1833ZM85.0142 75.1219C83.91 75.1219 82.8511 75.5605 82.0704 76.3412C81.2897 77.122 80.851 78.1809 80.851 79.285V79.3405C80.851 81.6386 82.7161 83.5037 85.0142 83.5037H85.0697C86.1738 83.5037 87.2327 83.065 88.0134 82.2843C88.7942 81.5036 89.2328 80.4447 89.2328 79.3405V79.285C89.2328 78.1809 88.7942 77.122 88.0134 76.3412C87.2327 75.5605 86.1738 75.1219 85.0697 75.1219H85.0142ZM53.8522 120.916L40.0708 98.7129H101.722C104.667 98.7129 107.49 99.8826 109.572 101.965C111.654 104.047 112.824 106.87 112.824 109.815C112.824 112.759 111.654 115.583 109.572 117.665C107.49 119.747 104.667 120.916 101.722 120.916H53.8522ZM97.5035 109.815C97.5035 108.71 97.9422 107.652 98.7229 106.871C99.5036 106.09 100.563 105.651 101.667 105.651H101.722C102.826 105.651 103.885 106.09 104.666 106.871C105.447 107.652 105.885 108.71 105.885 109.815V109.87C105.885 110.974 105.447 112.033 104.666 112.814C103.885 113.595 102.826 114.033 101.722 114.033H101.667C100.563 114.033 99.5036 113.595 98.7229 112.814C97.9422 112.033 97.5035 110.974 97.5035 109.87V109.815ZM85.0142 105.651C83.91 105.651 82.8511 106.09 82.0704 106.871C81.2897 107.652 80.851 108.71 80.851 109.815V109.87C80.851 112.168 82.7161 114.033 85.0142 114.033H85.0697C86.1738 114.033 87.2327 113.595 88.0134 112.814C88.7942 112.033 89.2328 110.974 89.2328 109.87V109.815C89.2328 108.71 88.7942 107.652 88.0134 106.871C87.2327 106.09 86.1738 105.651 85.0697 105.651H85.0142Z" fill="white"/>
<path d="M131.89 39.5708H118.838L130.575 24.7405C130.818 24.4264 130.599 23.9702 130.202 23.9702H107.479C107.313 23.9702 107.153 24.0591 107.07 24.2072L91.7186 50.7218C91.5349 51.0358 91.7601 51.4328 92.1275 51.4328H102.461L97.1637 72.6207C97.0512 73.0829 97.6081 73.4088 97.9518 73.077L132.216 40.3826C132.524 40.0923 132.317 39.5708 131.89 39.5708Z" fill="#FF1F00"/>
<path d="M46.1106 121.831L30.4338 95.832C29.7999 94.8404 28.9265 94.0242 27.8942 93.4589C26.8619 92.8936 25.7038 92.5973 24.5269 92.5973C23.3499 92.5973 22.1919 92.8936 21.1596 93.4589C20.1272 94.0242 19.2539 94.8404 18.62 95.832L2.94316 121.831C2.38937 122.754 2.08837 123.806 2.07043 124.883C2.05249 125.959 2.31824 127.021 2.84096 127.962C3.44531 129.022 4.32006 129.901 5.37583 130.512C6.43159 131.122 7.63051 131.442 8.85006 131.437H40.2037C41.4152 131.45 42.6087 131.143 43.6638 130.547C44.7188 129.952 45.5981 129.088 46.2128 128.044C46.7509 127.093 47.0251 126.016 47.0071 124.923C46.9892 123.831 46.6796 122.763 46.1106 121.831V121.831ZM24.5269 123.261C24.1226 123.261 23.7275 123.141 23.3913 122.917C23.0552 122.692 22.7932 122.373 22.6385 122C22.4838 121.626 22.4434 121.215 22.5222 120.819C22.6011 120.422 22.7958 120.058 23.0816 119.772C23.3675 119.486 23.7316 119.292 24.1281 119.213C24.5246 119.134 24.9356 119.174 25.309 119.329C25.6825 119.484 26.0017 119.746 26.2263 120.082C26.4509 120.418 26.5708 120.813 26.5708 121.217C26.5708 121.76 26.3554 122.279 25.9721 122.663C25.5888 123.046 25.069 123.261 24.5269 123.261ZM26.5708 115.086C26.5708 115.628 26.3554 116.148 25.9721 116.531C25.5888 116.914 25.069 117.13 24.5269 117.13C23.9848 117.13 23.4649 116.914 23.0816 116.531C22.6983 116.148 22.483 115.628 22.483 115.086V106.91C22.483 106.368 22.6983 105.848 23.0816 105.465C23.4649 105.081 23.9848 104.866 24.5269 104.866C25.069 104.866 25.5888 105.081 25.9721 105.465C26.3554 105.848 26.5708 106.368 26.5708 106.91V115.086Z" fill="#FF1F00"/>
<path d="M7.69193 17.6921L3.80173 22.5542L29.9428 37.9128L30.9417 36.3826L7.69193 17.6921Z" fill="white"/>
<path d="M17.5542 8.04883L12.299 11.3891L32.0573 34.3858L33.4979 33.2616L17.5542 8.04883Z" fill="white"/>
<path d="M30.7175 1.90374L24.6423 3.26984L35.4587 31.5938L37.1946 31.023L30.7175 1.90374Z" fill="white"/>
</svg>
