<svg xmlns="http://www.w3.org/2000/svg" width="24px" height="24px" viewBox="0 0 24 24" class="isotipo">
    <path d="M9.75,8.71v6.58a.79.79,0,0,0,1.22.65l4.93-3.29a.78.78,0,0,0,0-1.3L11,8.06A.79.79,0,0,0,9.75,8.71Z" transform="translate(0 0)"></path>
    <path d="M7.64,1.17a22.62,22.62,0,0,1,5.11,1.67A22.1,22.1,0,0,1,17.42,5.7,12.61,12.61,0,0,1,21,10.05a6.94,6.94,0,0,1,.66,2.83,5.1,5.1,0,0,1-.76,2.68,7,7,0,0,0-1.26-4.75,18,18,0,0,0-3.47-3.56c-1.32-1.07-2.72-2.07-4.17-3S9,2.26,7.64,1.17Z" transform="translate(0 0)"></path>
    <path d="M20.5,5.5" transform="translate(0 0)" fill="none"></path>
    <path d="M3.5,5.5" transform="translate(0 0)" fill="none"></path>
    <path d="M5.49,10.41c-.14,1.69-.3,3.34-.28,4.92a9.76,9.76,0,0,0,.25,2.23A2.27,2.27,0,0,0,6.36,19a4.22,4.22,0,0,0,1.87.46,12.66,12.66,0,0,0,2.28-.11c1.58-.22,3.18-.57,4.86-.9a12.94,12.94,0,0,1-4.5,2.47,10.43,10.43,0,0,1-2.66.47,5.3,5.3,0,0,1-2.91-.7,3.8,3.8,0,0,1-1.64-2.72,8.29,8.29,0,0,1,0-2.73A13.62,13.62,0,0,1,5.49,10.41Z" transform="translate(0 0)"></path>
</svg>