<?xml version="1.0" encoding="UTF-8" standalone="no"?>
<svg
   viewBox="0 0 24 24"
   fill="currentColor"
   version="1.1"
   id="svg200"
   sodipodi:docname="neutral-filter.svg"
   inkscape:version="1.2.1 (0f2f062aeb, 2022-09-21, custom)"
   xmlns:inkscape="http://www.inkscape.org/namespaces/inkscape"
   xmlns:sodipodi="http://sodipodi.sourceforge.net/DTD/sodipodi-0.dtd"
   xmlns="http://www.w3.org/2000/svg"
   xmlns:svg="http://www.w3.org/2000/svg">
  <defs
     id="defs204" />
  <sodipodi:namedview
     id="namedview202"
     pagecolor="#505050"
     bordercolor="#ffffff"
     borderopacity="1"
     inkscape:showpageshadow="0"
     inkscape:pageopacity="0"
     inkscape:pagecheckerboard="1"
     inkscape:deskcolor="#505050"
     showgrid="false"
     inkscape:zoom="20.875"
     inkscape:cx="11.976048"
     inkscape:cy="12"
     inkscape:window-width="1366"
     inkscape:window-height="704"
     inkscape:window-x="0"
     inkscape:window-y="0"
     inkscape:window-maximized="1"
     inkscape:current-layer="svg200" />
  <path
     id="path341"
     d="M 8.484375 5.2050781 C 8.2928502 5.2178456 8.1050999 5.3031245 7.96875 5.4589844 L 3.4355469 11.505859 C 3.4226979 11.520541 3.4138586 11.53734 3.4023438 11.552734 C 3.392863 11.565403 3.3817271 11.576573 3.3730469 11.589844 C 3.3546514 11.617959 3.3404072 11.647934 3.3261719 11.677734 C 3.3183927 11.693926 3.3093596 11.709752 3.3027344 11.726562 C 3.2925542 11.75254 3.2864667 11.779901 3.2792969 11.806641 C 3.2746952 11.823724 3.2690269 11.839879 3.265625 11.857422 C 3.2563968 11.904842 3.25 11.95187 3.25 12 C 3.25 12.04813 3.2563968 12.095158 3.265625 12.142578 C 3.2690269 12.160121 3.2746952 12.176276 3.2792969 12.193359 C 3.2864667 12.220099 3.2925542 12.24746 3.3027344 12.273438 C 3.3093596 12.290248 3.3183927 12.306074 3.3261719 12.322266 C 3.3404072 12.352066 3.3546514 12.382041 3.3730469 12.410156 C 3.3817271 12.423427 3.392863 12.434597 3.4023438 12.447266 C 3.4138586 12.46266 3.4226979 12.479459 3.4355469 12.494141 L 8.046875 18.974609 C 8.3195747 19.286309 8.7937691 19.317722 9.1054688 19.044922 C 9.4171684 18.772222 9.448581 18.298028 9.1757812 17.986328 L 5.6523438 12.75 L 18.347656 12.75 L 14.824219 17.986328 C 14.551419 18.298028 14.582832 18.772222 14.894531 19.044922 C 15.206231 19.317722 15.680425 19.286309 15.953125 18.974609 L 20.564453 12.494141 C 20.577302 12.479459 20.586141 12.46266 20.597656 12.447266 C 20.607137 12.434597 20.618273 12.423427 20.626953 12.410156 C 20.645349 12.382041 20.659593 12.352066 20.673828 12.322266 C 20.681607 12.306074 20.69064 12.290248 20.697266 12.273438 C 20.707446 12.24746 20.713533 12.220099 20.720703 12.193359 C 20.725305 12.176276 20.730973 12.160121 20.734375 12.142578 C 20.743603 12.095158 20.75 12.04813 20.75 12 C 20.75 11.95187 20.743603 11.904842 20.734375 11.857422 C 20.730973 11.839879 20.725305 11.823724 20.720703 11.806641 C 20.713533 11.779901 20.707446 11.75254 20.697266 11.726562 C 20.69064 11.709752 20.681607 11.693926 20.673828 11.677734 C 20.659593 11.647934 20.645349 11.617959 20.626953 11.589844 C 20.618273 11.576573 20.607137 11.565403 20.597656 11.552734 C 20.586141 11.53734 20.577302 11.520541 20.564453 11.505859 L 16.03125 5.4589844 C 15.75855 5.1472647 15.284356 5.1159121 14.972656 5.3886719 C 14.660957 5.6614316 14.629544 6.1355359 14.902344 6.4472656 L 18.347656 11.25 L 5.6523438 11.25 L 9.0976562 6.4472656 C 9.370456 6.1355359 9.3390434 5.6614316 9.0273438 5.3886719 C 8.8714939 5.252292 8.6758998 5.1923106 8.484375 5.2050781 z " />
</svg>
