<svg width="24px" height="24px" viewBox="0 0 24 24" fill="none" xmlns="http://www.w3.org/2000/svg">
<path d="M19.6984 11.0311L15.9431 16.0937L11.7587 21.3672C11.4368 21.7891 11.0077 22 10.4712 22C10.2566 22 10.1493 22 9.93474 21.8945C9.29099 21.6836 8.86182 21.0508 8.86182 20.4179V15.4608H5.53575C4.892 15.4608 4.35554 15.1444 4.14095 14.5116C3.92637 13.9842 3.92637 13.3514 4.35554 12.8241L8.43265 7.76148L12.0806 2.6989C12.5098 2.17154 13.1535 1.85513 13.9046 2.06607C14.5483 2.27701 14.9775 2.90984 14.9775 3.54266V8.49977H18.4108C19.0546 8.49977 19.5911 8.81619 19.8057 9.34354C20.1275 9.87089 20.0202 10.6092 19.6984 11.0311Z" fill="#030D45"/>
</svg>
