<svg width="24px" height="24px" viewBox="0 0 24 24" fill="none" xmlns="http://www.w3.org/2000/svg">
<path d="M21.6907 4.88654C21.5876 3.54633 20.5567 2.41231 19.1134 2.30922C17.0515 2.10303 14.1649 1.99994 12 1.99994C9.83505 1.99994 6.94845 2.10303 4.8866 2.30922C4.16495 2.30922 3.54639 2.6185 3.13402 3.13396C2.72165 3.64942 2.41237 4.16489 2.30928 4.88654C2.10309 6.94839 2 9.83499 2 11.9999C2 14.1649 2.20619 17.0515 2.30928 19.1133C2.41237 20.4535 3.4433 21.5876 4.8866 21.6907C6.94845 21.8968 9.83505 21.9999 12 21.9999C14.1649 21.9999 17.0515 21.7938 19.1134 21.6907C20.4536 21.5876 21.5876 20.5566 21.6907 19.1133C21.8969 17.0515 22 14.1649 22 11.9999C22 9.83499 21.8969 6.94839 21.6907 4.88654ZM13.0309 13.0309L9.52577 16.6391C9.31959 16.7422 9.21649 16.8453 9.01031 16.8453C8.80412 16.8453 8.59794 16.7422 8.49485 16.6391C8.18557 16.3298 8.18557 15.8144 8.49485 15.5051L11.3814 12.6185V7.87623C11.3814 7.46386 11.6907 7.05148 12.2062 7.05148C12.7216 7.05148 13.0309 7.36076 13.0309 7.87623V13.0309Z" fill="#030D45"/>
</svg>
