<svg width="24px" height="24px" viewBox="0 0 24 24" fill="none" xmlns="http://www.w3.org/2000/svg">
<path fill-rule="evenodd" clip-rule="evenodd" d="M12.1667 7C12.6269 7 13 7.35346 13 7.78947L13 13.0526C13 13.262 12.9122 13.4628 12.7559 13.6109L9.42258 16.7688C9.09715 17.0771 8.56951 17.0771 8.24408 16.7688C7.91864 16.4605 7.91864 15.9606 8.24408 15.6523L11.3333 12.7256V7.78947C11.3333 7.35346 11.7064 7 12.1667 7Z" fill="#030D45"/>
<path fill-rule="evenodd" clip-rule="evenodd" d="M12 3.53846C9.83082 3.53846 6.86615 3.73753 5.01495 3.88095C4.40616 3.92811 3.92811 4.40616 3.88095 5.01495C3.73753 6.86615 3.53846 9.83082 3.53846 12C3.53846 14.1692 3.73753 17.1338 3.88095 18.985C3.92811 19.5938 4.40616 20.0719 5.01495 20.1191C6.86615 20.2625 9.83082 20.4615 12 20.4615C14.1692 20.4615 17.1338 20.2625 18.985 20.1191C19.5938 20.0719 20.0719 19.5938 20.1191 18.985C20.2625 17.1338 20.4615 14.1692 20.4615 12C20.4615 9.83082 20.2625 6.86615 20.1191 5.01495C20.0719 4.40616 19.5938 3.92811 18.985 3.88095C17.1338 3.73753 14.1692 3.53846 12 3.53846ZM4.89612 2.34708C6.74819 2.2036 9.76547 2 12 2C14.2345 2 17.2518 2.2036 19.1039 2.34708C20.4686 2.45281 21.5472 3.53141 21.6529 4.89612C21.7964 6.74819 22 9.76547 22 12C22 14.2345 21.7964 17.2518 21.6529 19.1039C21.5472 20.4686 20.4686 21.5472 19.1039 21.6529C17.2518 21.7964 14.2345 22 12 22C9.76547 22 6.74819 21.7964 4.89612 21.6529C3.53141 21.5472 2.45281 20.4686 2.34708 19.1039C2.2036 17.2518 2 14.2345 2 12C2 9.76547 2.2036 6.74819 2.34708 4.89612C2.45281 3.53141 3.53141 2.45281 4.89612 2.34708Z" fill="#030D45"/>
</svg>
